<!DOCTYPE svg PUBLIC "-//W3C//DTD SVG 1.1//EN" "http://www.w3.org/Graphics/SVG/1.1/DTD/svg11.dtd">
<!-- Uploaded to: SVG Repo, www.svgrepo.com, Transformed by: SVG Repo Mixer Tools -->
<svg fill="#000000" height="64px" width="64px" version="1.1" id="Layer_1" xmlns="http://www.w3.org/2000/svg" xmlns:xlink="http://www.w3.org/1999/xlink" viewBox="0 0 512 512" xml:space="preserve">
<g id="SVGRepo_bgCarrier" stroke-width="0"/>
<g id="SVGRepo_tracerCarrier" stroke-linecap="round" stroke-linejoin="round"/>
<g id="SVGRepo_iconCarrier"> <g> <g> <path d="M495.304,478.603h-22.261v-116.87c0-27.618-22.469-50.087-50.087-50.087h-16.696v-116.87 c0-27.618-22.469-50.087-50.087-50.087h-83.478v-14.002c29.497-10.461,42.313-45.135,26.713-72.192 c-0.001-0.002-0.002-0.004-0.003-0.007L270.46,8.343C264.037-2.783,247.95-2.765,241.54,8.344l-28.944,50.147 c-15.637,27.098-2.736,61.754,26.708,72.196v14.002h-83.478c-27.618,0-50.087,22.469-50.087,50.087v116.87H89.044 c-27.618,0-50.087,22.469-50.087,50.087c0,4.13,0,81.762,0,116.87H16.696C7.475,478.603,0,486.078,0,495.299 s7.475,16.696,16.696,16.696c10.044,0,434.008,0,478.609,0c9.22,0,16.696-7.475,16.696-16.696S504.525,478.603,495.304,478.603z M241.517,75.182L256,50.088l14.481,25.088c6.37,11.042-1.65,24.992-14.481,24.992C243.135,100.168,235.171,86.182,241.517,75.182 z M139.13,194.777c0-9.206,7.49-16.696,16.696-16.696h200.348c9.206,0,16.696,7.49,16.696,16.696v48.108 c-1.557-1.574-3.241-3.367-5.13-5.423c-9.682-10.534-22.943-24.96-45.692-24.96c-22.738,0-35.995,14.423-45.675,24.953 c-9.253,10.066-13.753,14.167-21.108,14.167c-7.591,0-12.475-4.878-21.158-14.226c-9.758-10.505-23.121-24.893-45.625-24.893 c-22.737,0-35.995,14.423-45.675,24.953c-1.309,1.424-2.521,2.73-3.677,3.942V194.777z M139.13,281.853 c12.665-4.841,21.384-14.319,28.261-21.8c9.248-10.062,13.746-14.16,21.091-14.16c7.591,0,12.476,4.878,21.159,14.226 c9.758,10.505,23.12,24.893,45.624,24.893c22.748,0,36.009-14.426,45.692-24.96c9.248-10.062,13.746-14.16,21.091-14.16 c7.355,0,11.855,4.1,21.108,14.167c7.155,7.784,16.268,17.686,29.714,22.327v29.26H139.13V281.853z M72.348,478.603v-55.261 c0.009,0.01,0.019,0.02,0.028,0.031c11.611,12.74,26.062,28.596,49.323,28.596c22.748,0,36.009-14.426,45.692-24.96 c9.248-10.062,13.746-14.16,21.091-14.16c7.591,0,12.476,4.878,21.159,14.226c9.758,10.505,23.12,24.893,45.624,24.893 c22.748,0,36.009-14.426,45.692-24.96c9.248-10.062,13.746-14.16,21.091-14.16c7.355,0,11.855,4.1,21.108,14.167 c9.68,10.531,22.936,24.953,45.675,24.953c22.748,0,36.009-14.426,45.692-24.96c1.889-2.056,3.573-3.849,5.13-5.423v57.018H72.348 z M439.652,382.084c-13.446,4.641-22.56,14.544-29.714,22.327c-9.253,10.066-13.753,14.167-21.108,14.167 c-7.346,0-11.843-4.098-21.091-14.16c-9.682-10.534-22.943-24.96-45.692-24.96c-22.738,0-35.995,14.423-45.675,24.953 c-9.253,10.066-13.753,14.167-21.108,14.167c-7.591,0-12.475-4.878-21.158-14.226c-9.758-10.505-23.121-24.893-45.625-24.893 c-22.738,0-35.995,14.423-45.675,24.953c-9.253,10.066-13.753,14.167-21.108,14.167c-7.943,0-14.609-6.686-24.644-17.696 c-7.037-7.722-14.758-16.165-24.708-21.733v-17.416c0-9.206,7.49-16.696,16.696-16.696c8.802,0,324.662,0,333.913,0 c9.206,0,16.696,7.49,16.696,16.696V382.084z"/> </g> </g> </g>
</svg>