<?xml version="1.0" encoding="UTF-8"?>
<svg id="Layer_1" data-name="Layer 1" xmlns="http://www.w3.org/2000/svg" viewBox="0 0 4000 3969">
  <path d="m3341.52,1571.92c-284.21-195.92-598.52-243.68-923.64-218.53-153.55,11.91-304.54,48.09-452.66,95.57-73.03,23.41-144.84,51.75-216.29,81.07-89.59,36.74-78.21,83.51-150.83,7.41-212.2-222.33-561.05-300.54-837.16-311.71-222.53-8.96-548.33,7.69-727.56,181.94-19.85,19.28,6.2,57.99,27.58,41.38,219.04-169.69,550.52-166.18,803.38-145.44,155.57,12.71,315.2,71.12,461.37,132.39,102.31,42.88,189.03,112.18,269.03,196.25,12.72,13.32,28.27,25.71,45.04,31.01,7.74,2.48,17.42,1.59,24.3-3.66,65.37-50.34,142.41-76.05,216.45-104.2,155.81-59.26,316.86-100.92,479.88-121.28,166.06-20.78,332.21-15.81,497.46,10.09,163.64,25.71,309.69,120.48,462.59,185.55,29.81,12.67,46.98-39.97,21.06-57.85Z" style="fill: #303c44;"/>
  <path d="m2154.77,350.32c-95.47,211.92-194.37,421.21-287.29,634.82-84.65,194.52-152.25,402.21-245.61,591-28.11,33.26,30.38,91.3,54.44,42.18,94.05-191.79,159.99-400.1,240.83-599.54,87.81-216.61,181.86-436.69,245-664.84,1.38-5.02-5.26-8.26-7.37-3.61Z" style="fill: #303c44;"/>
  <path d="m3778.75,327.38C3390.61-74.59,2745.88-24.4,2283.53,131.93c-23.98,8.11-117.18,64.84-140.99,37.2-39.7-46.07-99.6-71.83-149.22-99.32C1905.11,20.97,1800.89.05,1704.09,0c-270.85-.14-478.39,64.89-717.92,206.71-224.55,132.91-443.71,326.68-607.91,548.45C253.87,923.17,61.96,1192.98,22.8,1414.56c-3.77,21.44,22.96,30.31,28.39,9.06,27.75-108.42,115.72-236.65,177.2-323.25,67.36-94.91,122.32-203.66,188.95-299.89,143.3-207.09,352.91-374.43,551.61-502.85,238.93-154.4,461.21-226.18,735.13-226.37,127.55-.05,246.1,49.64,357.85,117.43,22.36,13.61,64.52,82.29,104.42,63.01C2618.17,33.36,3242.08.56,3665.18,316.87c62.62,46.82,116.53,104.72,158.33,176.41,37.14,63.71-62.42,165.24-90.2,205.54-58.81,85.29-107.13,173.96-153.71,268.97-100.61,205.4-190.28,398.13-257.48,621.73-13.53,44.9,46.98,63.2,60.96,19.47,95.71-299.94,223.3-605.17,394.63-858.7,122.32-181,165.98-252.03,1.05-422.9Z" style="fill: #303c44;"/>
  <path d="m3411.71,1768.55c-65.54-83.23-180.4-85.86-269.06-113.16-150.51-46.4-308.19-70.79-462.87-89.42-260.72-31.34-551.13-15.81-791.8,111.19-189.68,100.08-302.89,20.98-480.41-77.74-126.45-70.38-273.6-119.83-412.61-140.75-336.14-50.53-638.94-49.45-961.75,74.17-8.1,3.1-11.18,11.07-10.01,20.37.33,2.3.61,4.64.89,6.94,1.9,14.87,23.94,14.87,25.84,0,2.83-22.66,386.24-72.25,403.86-73.85,161.36-14.35,324.63,5.53,484.54,28.67,168.29,24.35,335.04,82.43,486.93,168,96.07,54.14,175.66,115.98,285.11,116.68,90.32.61,127.95-17.97,208.07-62.16,151.73-83.75,309.77-92.24,474.54-107.77,150.63-14.17,300.86,13.04,449.54,34.25,96.28,13.75,189.52,34.35,283.65,60.52,62.9,17.5,163.63,26.74,221.84,74.59,2.07,7.18,6.12,13.79,13.94,18.3l12.47,7.23c31.31,18.16,61.36-25.52,37.31-56.07Z" style="fill: #303c44;"/>
  <path d="m192.51,1330.35c-48.04-.1-60.51,38.89-92.92,71.74-37.06,37.48-66.58,88.95-85.58,141.35-6.44,17.69,13.61,29.98,25.56,22.76,34.47-20.83,57.47-65.31,84.53-96.65,8.42-9.81,19.48-15.72,27.83-25.39,8.26-9.57,14.18-22.19,21.95-32.37,12.35-16.23,25.15-27.82,36.45-45.51,9.6-15.06-3.44-35.89-17.82-35.94Z" style="fill: #303c44;"/>
  <path d="m3986.9,590.48c.69-12.29-7.98-24.77-18.1-27.59-34.63-9.57-67.64-22.57-101.14-36.59-20.53-8.63-32.04,27.25-14.46,39.69,94.45,66.48,82.3,53.53,20.13,189.17-53.34,116.35-118.39,225.81-180.32,336.11-121.92,217.17-218.23,449.6-303.25,690.51-2.88,4.6-4.42,9.57-4.7,14.54-4.21,18.16,5.99,30.68,19.28,35.47,8.3,4.83,17.98,5.44,26.41-1.22,6.89-3.61,12.15-10.09,13.53-20.08,112.93-220.5,176.27-469.44,302-683.23,82.02-139.58,230.95-362.94,240.63-536.77Z" style="fill: #303c44;"/>
  <path d="m3441.68,1765.59c-5.14-22.29-37.83-25.2-41.31,0-32.04,231.62-211.02,105.09-327.15,52.68-135.04-61.04-288.06-95.33-431.44-117.01-144.8-21.96-275.67-20.12-416.58,24.63-205.51,65.26-338.08,196.2-565.95,140.75-148.32-36.13-283.04-138.4-426.54-194.66-124.63-48.89-255.7-82.53-387.01-94.07-163.91-14.35-333.75,8.45-497.66,15.72-63.83,2.82-325.97,84.68-307.5-32.51,3.85-24.16-25.39-34.11-32-10.23-15.15,54.8-14.99,121.42,41.24,139.34,61.6,19.61,144.84-13.74,203.32-21.44,107.13-14.12,217.38-10.79,325.08-14.31,203.16-6.62,392.27-.75,588.31,68.92,176.59,62.82,351.89,207.28,538.41,228.86,213.74,24.73,340.88-76.61,537.2-155.43,230.95-92.71,473.69-5.02,701.64,51.18,138.52,34.15,599.24,353.75,497.95-82.43Z" style="fill: #303c44;"/>
  <path d="m3977.74,594.38c-8.91-22.43-36.82-5.87-32.81,16,45.24,245.56-125.24,529.21-216.37,737.19-89.51,204.37-222.81,382.98-314.55,587.39-17.78,39.64,29.85,71.22,51.36,34.72,141.44-239.93,274.77-501.39,387.41-760.75,71.49-164.67,198.71-428.11,124.95-614.55Z" style="fill: #303c44;"/>
  <path d="m1573.75,1231.45c-142.9-157.59-349.14-201.74-540.23-228.71-235.81-33.31-442.46,17.78-656.27,124.42-3.97,1.97-1.14,9.24,2.92,7.93,419.9-138.4,790.14-123.3,1171.84,129.02,17.58,11.59,36.73-16.14,21.75-32.65Z" style="fill: #303c44;"/>
  <path d="m1711.99,1021.69c-158.89-121.98-291.91-205.21-485.23-232.19-197.41-27.59-381.01-6.8-568.91,69.67-5.51,2.25-3.32,11.68,2.43,10.18,186.11-47.85,371.94-65.07,560.89-32.04,86.39,15.11,164.45,39.46,246.71,74.08,86.11,36.17,144.23,117.38,232.16,143.19,17.5,5.11,26.49-21.77,11.95-32.89Z" style="fill: #303c44;"/>
  <path d="m1793.76,738.79c-128.6-99.13-221.59-155.9-375.79-179.83-207.87-32.23-396.73,9.01-592.53,89.8-7.09,2.91-4.33,15.34,3.16,13.13,196.85-57.94,381.42-90.08,583.82-55.22,82.26,14.17,155.49,33.45,229.37,80.74,53.18,34.06,79.43,70.14,138.57,88.25,19.64,6.01,29.61-24.4,13.4-36.88Z" style="fill: #303c44;"/>
  <path d="m1966.19,526.12c-271.94-222.99-672.8-208.64-967.42-62.96-5.02,2.49-1.42,12.2,3.73,10.23,152.62-59.68,308.19-79.71,468.78-74.64,173.72,5.44,321.43,103.73,484.18,156.84,16,5.21,23.17-19.33,10.73-29.46Z" style="fill: #303c44;"/>
  <path d="m1978.91,323.81c-214.18-164.96-454.45-161.81-700.06-110.39-9.48,1.97-7.33,20.78,2.26,19.47,105.84-14.35,210.9-13.23,317.27-10.55,133.05,3.43,249.66,73.89,369.39,132.07,15.88,7.74,24.06-20.69,11.14-30.59Z" style="fill: #303c44;"/>
  <path d="m3205.75,1279.35c-129.85-132.96-361.61-147.32-527.6-168.06-202.72-25.38-436.42-21.53-614.43,105.7-13.73,9.85-4.82,38.1,11.34,31.2,344.44-146.66,790.34-151.91,1126.44,37.49,3.4,1.88,7.37-3.14,4.25-6.33Z" style="fill: #303c44;"/>
  <path d="m3309.93,990.4c-412.97-117.01-830.2-213.7-1234.18,2.44-16.32,8.72-4.62,38.14,11.99,32.89,204.62-64.61,396.04-127.52,610.99-124.28,206.04,3.09,407.55,58.03,609.46,96.13,4.01.75,5.83-6.01,1.74-7.18Z" style="fill: #303c44;"/>
  <path d="m3442.33,789.17c-56.95-65.87-135.93-82.81-213.25-98.89-123.21-25.57-242.57-59.3-367.93-71.55-240.06-23.46-477.66-2.72-699.25,112.83-18.31,9.57-5.18,43.02,13.41,36.88,212.44-70.56,401.63-113.68,623.67-116.35,193.49-2.34,471.22,20.78,638.82,143.89,3.65,2.68,7.53-3.38,4.53-6.8Z" style="fill: #303c44;"/>
  <path d="m3594.66,648.75c-141.72-175.47-372.18-231.58-568.95-270.56-269.02-53.3-506.86-35.8-759.52,87.45-17.17,8.4-11.18,39.78,7.98,33.49,233.22-76.8,438.13-119.4,681.47-89.93,210.98,25.62,463.64,86.65,627.64,252.69,7.78,7.88,18.51-4.31,11.38-13.13Z" style="fill: #303c44;"/>
  <path d="m3674.58,455.27c-131.92-128.22-320.71-204.03-490.42-223.04-243.71-27.31-478.06-55.5-697.31,91.58-16.52,11.07-2.07,37.3,14.58,28.9,344.93-173.49,854.34-144.27,1165.04,114.71,6.16,5.16,13.94-6.52,8.1-12.15Z" style="fill: #303c44;"/>
  <path d="m3908.28,1948.14c-153.47,117.71-278.46,310.16-417.1,452.93-151.4,155.85-287.37,333.29-430.92,498.81-30.62,35.33-158.65,209.01-221.79,184.38-64.32-25.1-156.38-16.75-223.78-24.35-248.13-28.01-495.11-68.92-742.59-103.78-485.43-68.31-960.13-196.44-1441.96-289.52-105.39-20.31-178.66-4.13-172.5-152.29,4.94-119.26-1.78-237.49,4.29-356.65,18.63-364.73,305.23-337.42,493.86-525.6,12.76-12.72-3.44-31.53-16.52-24.87-170.8,86.65-392.68,135.54-499,330.85-40.1,73.71-33.5,194.09-37.51,276.15-6.56,134.7-6.15,280.74-.61,415.44,5.1,122.31,310.22,119.83,378.99,135.21,295.43,66.25,590.22,142.86,887.14,199.44,280.93,53.58,564.78,84.68,846.56,131.37,116.77,19.33,234.43,31.53,351.81,44.19,73.39,7.93,151.12,31.06,223.82,14.69,53.42-12.06,133.29-116.59,177.97-164.16,92.02-97.96,180-201.65,266.23-306.46,94.94-115.41,194.82-221.82,298.76-326.16,101.82-102.23,186.72-242.98,296.08-333.29,4.3-1.73,8.55-4.6,12.48-9.15,2.07-2.39,4.17-4.78,6.24-7.18,26.2-30.07-8.22-84.31-39.94-60Z" style="fill: #303c44;"/>
  <path d="m2800.35,2357.15c-115.19-72.39-320.09-54.98-449.26-73.19-250.84-35.33-500.54-80.93-750.45-124-234.84-40.49-468.83-85.86-703.46-127.89-196.4-35.19-406.53-83.55-605.12-66.2-7.49.66-9.88,13.56-1.82,15.81,193.85,54.66,397.66,65.64,594.26,103.82,233.87,45.42,467.37,92.89,701.64,135.45,398.76,72.49,798.89,152.43,1200.36,195.5-.08-.47-.2-.94-.32-1.36,24.91-1.12,41.11-41.05,14.18-57.94Z" style="fill: #303c44;"/>
  <path d="m3351.93,1894.47c-99.8,34.11-204.46,136.01-291.83,201.83-103.08,77.78-199.52,181.28-308.07,247.71-7.29,4.46-11.14,15.76-8.75,24.87,1.86,6.99,4.86,12.34,11.22,14.64,69.18,25.01,213.65-130.8,268.41-170.91,71.53-52.36,142.01-105.8,215.97-153.65,48.73-31.57,113.93-61.22,142.37-120.29,10.9-22.57-6.97-51.84-29.32-44.19Z" style="fill: #303c44;"/>
  <path d="m3861.7,1424.47c-86.96,58.17-186.44,116.21-257.11,200.05-11.1,13.19,2.87,30.45,15.91,23.88,92.67-46.77,183.64-106.31,269.59-167.68,30.82-22,3.16-77.37-28.39-56.25Z" style="fill: #303c44;"/>
  <path d="m3912.9,1432.63c-8.02-34.11-26.53-71.22-60.59-74.27-17.09-1.5-33.62,5.44-49.9,10.46-22.84,7.04-46.5,8.21-69.83,11.91-20.49,3.29-20.53,44.62,0,47.85,31.47,4.97,62.7,6.71,94.09.42,5.02-1.03,20.22-8.91,21.31-1.59,2.55,17.08,13.65,31.95,26.37,39.55,20.09,11.97,44.88-7.55,38.56-34.34Z" style="fill: #303c44;"/>
  <path d="m2863.86,2880.64c-4.25-2.21-8.47-4.45-12.72-6.66-9.15-4.83-17.86-4.04-25.23-.28-486.77-42.69-971.31-142.34-1453.78-229.14-251.56-45.23-508.64-67.47-757.25-128.83-96.48-23.83-226.01,16.33-214.39-127.52,10.94-135.58,12.64-270.38-4.82-405.17-3.08-23.6-32.12-15.39-33.66,5.3-11.67,155.57-11.38,312.27-23.61,468.36-3.65,46.4,11.38,74.41,51.92,87.31,271.17,86.42,571.99,91.91,849.64,142.58,532.86,97.21,1069.65,225.05,1608.79,258.74,28.72,1.78,42.45-50.3,15.11-64.7Z" style="fill: #303c44;"/>
  <path d="m2869.45,2413.45c-1.05-12.1-17.21-12.52-16.6,0,3.97,82.39,3.77,164.53-.25,246.87-1.58,32.32-8.51,64.23-9.88,97.16-.89,22.15-1.29,89.56-7.57,123.72-.12.47-.44.8-.57,1.32-1.86,6.62-3.72,13.18-5.59,19.8-11.75,41.94,50.26,55.41,52.89,8.3,9.03-160.5,1.99-335.96-12.43-497.17Z" style="fill: #303c44;"/>
  <path d="m3825.62,1750.53c-14.7-79.76-10.94-161.58-24.38-241.94-3.04-18.06-26.53-13.14-26.81,4.17-.93,52.83-1.7,105.65-2.39,158.53-.61,43.21,24.58,113.07,9.72,153.04-7.85,21.16,9.36,49.26,29.69,34.39,31.55-23.08,20.86-71.97,14.18-108.19Z" style="fill: #303c44;"/>
  <path d="m3797.83,1666.17c-6.08-20.6-31.71-16.98-32.6,5.12-1.46,36.78-4.13,72.63,3.6,108.98,23.01,107.48-22.52,138.12-79.67,198.88-87.36,92.85-167.72,193.72-257.44,284.5-198.95,201.45-393.29,412.62-572.47,637.54-8.55,10.74,2.67,29.74,13.97,20.97,246.1-191.61,456.27-462.13,678.67-689.06,96.24-98.19,181.86-208.78,274.45-311.19,48.44-53.58-12.19-200.66-28.51-255.74Z" style="fill: #303c44;"/>
  <path d="m3980.46,1856.37c-8.34-32.14-28.27-49.5-55.53-56.91-15.76-4.22-32.77-3.56-48.81-4.36-17.01-.85-33.66-6.38-50.79-6.05-28.51.57-27.3,45.09-5.95,51.7,0,.05-.04.05-.08.1.2.04.36.09.57.19.32.09.61.24.89.33,15.47,4.74,28.92,11.82,45.32,13.94,12.48,1.64,49.21-2.58,57.23,9.47,26.13,39.27-17.86,92.89-38.48,120.44-16.08,21.48,3.85,51.75,26,38.94,55.12-31.86,88.34-95.76,69.63-167.77Z" style="fill: #303c44;"/>
  <path d="m2136.63,2630.3c-325.69-88.21-662.59-116.44-993.83-164.96-167.04-24.49-343.43-51.09-508.32-92.71-35.88-9.06-237.02-68.92-225.48-15.15-2.39-11.31-12.84-17.36-22.28-14.69-1.9.56-3.85,1.12-5.79,1.69-12.19,3.52-14.78,20.64-8.22,30.54,2.31,11.87,12.68,19.24,24.06,17.13,104.62-19.28,236.38,45.27,343.14,57.99,135.48,16.09,267.04,54.89,402.89,68.87,328.4,33.83,662.03,77.32,987.27,138.78,15.35,2.91,22.32-23.27,6.56-27.49Z" style="fill: #303c44;"/>
  <path d="m921.89,2349.23c-104.5-28.15-209.2-56.11-313.45-85.48-73.96-20.78-148.37-60.19-225.48-47.81-9.36,1.55-8.06,17.83,0,20.36,176.35,55.59,355.54,91.11,535.78,126.11,7.37,1.41,10.66-11.16,3.16-13.18Z" style="fill: #303c44;"/>
  <path d="m1936.42,2462.15c-284.98-70.7-572.31-147.69-860.61-197.19-218.44-37.49-463.68-154.73-684.27-136.48-10.37.85-13.69,18.95-2.55,21.91,508.84,136.62,1026.47,255.69,1545.32,330.05,9.03,1.27,10.9-16.14,2.11-18.29Z" style="fill: #303c44;"/>
  <path d="m3605.97,2370.24c-1.14-44.01-57.76-44.01-58.9,0-.08,2.39-.16,4.78-.2,7.18-.36,15.3,9.35,29.09,21.79,33.12,56.18,18.39,124.92,47.81,59.38,112.13-75.26,73.89-148.16,150.88-224.67,223.41-134.55,127.52-273.84,251.89-400.82,389.54-57.59,62.4-116.89,122.22-176.64,181.85-85.87,85.72-140.67,72.67-244.43,68.82-200.21-7.46-401.31-30.68-599.45-64.41-372.23-63.29-745.42-129.58-1116.8-198.78-166.1-30.92-332.33-41.1-499.97-53.81-47.23-1.93-94.17-6.8-140.95-14.78-25.76-4.37,95.67-158.81,105.87-170.96,31.39-37.49,69.87-126.63,109.52-153.23,24.59-16.47,3.04-55.08-21.63-42.83-59.62,29.56-111.83,139.39-158.41,192.12-45.32,51.33-102.68,118.47-98.02,196.77.77,12.9,7.37,26.46,19.24,29.28,198.91,47.06,405.88,37.72,606.82,70.52,220.82,36.08,441.85,73.37,662.03,114.38,392.68,73.14,782.97,150.6,1181.28,165.75,31.8,1.22,99.11,28.43,136.66,5.49,71.49-43.73,127.18-114.15,188.22-174.85,151.4-150.7,300.13-305.43,456.27-449.55,93-85.81,304.02-221.4,337.76-363.41,21.75-91.49-144.48-124.47-143.95-103.73Z" style="fill: #303c44;"/>
  <path d="m2736.76,3886.15c-213.17-.09-433.71-61.51-645.86-91.25-268.82-37.72-538.69-68.55-806.22-118.61-258.09-48.27-515.12-89.32-771.95-146.8-42.37-9.43-81.98-14.73-124.75-20.97-109.08-15.91-175.14-1.83-181.58-147.65-5.22-117.53,4.54-224.87-23.25-339.86-4.9-20.17-31.8-16.28-31.59,4.92,1.29,141.88-65.13,449.6,74.16,527.2,89.43,49.87,233.17,34.01,329.17,55.92,150.23,34.2,298.79,68.22,450.56,92.47,282.92,45.27,564.61,99.65,847.98,142.02,174.16,26.04,349.26,43.82,523.42,71.08,116.65,18.2,228.6,49.73,346.22,52.03.49.05.77.28,1.21.28,4.17.04,8.34.09,12.48.14,22.6.24,33.86-20.08,33.74-40.44.12-20.36-11.14-40.73-33.74-40.49Z" style="fill: #303c44;"/>
  <path d="m2832.59,3853.03c-32.32-133.99-16.61-281.07-60.92-414.36-6.15-18.53-26.37-18.53-32.53,0-21.26,63.94,5.79,147.17,16.65,211.92,8.75,51.89,8.83,101.1,8.67,153.56-.12,36.59,38.8,81.63-9.07,82.71-36.25.8-36.25,64.32,0,65.12,54.16,1.22,93.56-31.2,77.2-98.94Z" style="fill: #303c44;"/>
  <path d="m3798.35,2922.63c-358.37,322.74-697.1,670.58-1064.1,981.63-30.02,25.47-3.32,82.76,29.85,59.16,169.99-103.82,325.45-264.7,474.17-404.09,196.56-184.1,421.2-385.65,576.77-617.42,9.36-13.98-4.58-30.17-16.69-19.28Z" style="fill: #303c44;"/>
  <path d="m3706.49,2686.51c-2.02-48.79,1.74-100.02-19.28-143.66-6.11-12.57-24.71-7.41-23.98,7.55,5.27,109.55-22.56,226.56,25.92,329.21,10.82,22.94,36.94,10.09,38.92-12.2,5.35-60.05-19.12-120.34-21.59-180.91Z" style="fill: #303c44;"/>
  <path d="m3674.66,2880.18c-274.29,292.24-603.9,511.43-871.43,813.62-9.15,10.37,3.44,30.35,13.97,20.97,163.55-145.58,335.29-281.03,497.95-429.51,98.95-90.27,204.3-170.3,300.46-264.51,5.26-5.16,75.05-81.16,86.68-85.57,44.23-16.84,6.56-91.4-27.62-54.98Z" style="fill: #303c44;"/>
  <path d="m3836.83,2879.61c-8.63-25.62-22.08-54.8-47.27-62.16-27.5-8.07-60.72-13.93-88.09-2.86-20.49,8.26-20.41,39.74,0,48.04,16.77,6.8,35.88,6.9,53.38,11.31,19,4.88,22.4,8.63,29,30.03-4.62,4.65-8.79,10.08-13.28,14.68-16.52,16.94-30.09,38.05-43.82,57.9-13.28,19.1,6.56,42.08,23.09,26.74,13.61-12.67,27.34-25.05,41.88-36.31,6.24-4.88,22.76-8.02,7.74-11.4,7.01,1.59,14.78,1.73,21.06-3.19,21.99-17.17,25.76-44.85,16.32-72.77Z" style="fill: #303c44;"/>
  <path d="m3525.81,2808.63c-144.84,145.96-295.87,285.53-456.07,408.17-104.29,79.8-225.36,193.81-302.64,305.42-8.06,11.59,3.97,25.52,13.97,16.23,115.11-107.06,230.67-223.04,351.28-321.66,138.4-113.11,298.91-241.29,407.83-391.47,8.47-11.64-4.41-26.74-14.38-16.7Z" style="fill: #303c44;"/>
  <path d="m3398.71,3025.94c-113.33,85.9-221.35,181.94-329.21,276.76-97.29,85.43-212.6,166.27-292.64,274.08-2.99,4.08-.2,10.93,4.7,9.38,99.35-32.47,190.53-149.06,270.97-223.28,117.62-108.61,244.32-205.35,354.93-323.81,6-6.43-1.86-18.39-8.75-13.14Z" style="fill: #303c44;"/>
  <path d="m2995.7,3453.72c-43.66,23.13-82.67,61.46-122.36,92.57-33.62,26.37-71.85,54.14-90.08,97.12-1.66,3.99,1.7,7.93,5.14,5.96,80.89-45.84,138.4-129.16,211.91-186.54,4.94-3.85.69-11.92-4.62-9.1Z" style="fill: #303c44;"/>
</svg>