<?xml version="1.0" encoding="UTF-8"?>
<svg id="Layer_1" data-name="Layer 1" xmlns="http://www.w3.org/2000/svg" viewBox="0 0 3967 2455.29">
  <path d="m1419.38,1065.74c-192.19,13.56-315.82,219.76-302.69,418.98-1.82,152.39,57.26,307.66,172.86,396.8,219.18,169.23,475.19,58.33,539.74-225.1,67.1-295.75-137.49-609.98-409.54-590.68h-.36Zm350.83,572.6c-52.88,263.71-302.33,329.43-483.94,167.59-83.51-74.35-128.73-205.38-133.84-335.59,11.67-151.16,90.08-288.35,228.29-333.54,254.19-83.38,439.08,253.44,389.12,501.54h.36Z" style="fill: #303c44;"/>
  <path d="m1656.06,1306.04c-59.44-76.4-138.22-119.53-228.29-115.83-144.78,6.16-231.94,144.59-225.01,294.11-8.02,117.89,29.9,232.49,135.66,301.09,63.09,41.08,159,65.31,227.93,32.04,106.85-51.35,138.58-162.25,162.65-281.37,15.32-74.76-31.36-176.63-72.94-230.03Zm13.13,247.28c-15.32,75.58-38.29,151.57-101.38,197.17-63.82,46.01-165.93,5.75-225.74-30.4-64.91-39.02-94.82-109.67-103.94-187.31,1.82-119.94,35.37-264.53,157.18-278.5,143.32-16.02,310.35,117.89,273.88,299.03Z" style="fill: #303c44;"/>
  <path d="m1676.12,1581.25c-43.03,27.93-67.47,57.51-121.08,60.79-48.87,3.29-97.01-4.52-141.5-27.52-129.83-67.78-116.34-253.03-40.48-361.06,5.84-8.22-3.28-19.31-10.58-11.91-49.96,51.35-77.31,101.87-83.88,178.27-8.39,99.82,24.07,160.2,87.89,225.1,84.61,86.26,286.28,90.78,335.15-41.49,6.2-16.84-13.49-29.99-25.53-22.18Z" style="fill: #303c44;"/>
  <path d="m2108.64,1328.22c-101.02-409.12-532.08-425.96-794.65-207.02-9.85,8.22-1.46,25.06,9.85,18.9,277.89-155.27,698.74-155.68,740.32,286.71,27.72,294.93-318.01,369.69-486.49,480.18-14.59,9.45-9.48,41.08,9.12,38.61,266.59-35.33,607.57-271.1,521.87-616.96v-.41Z" style="fill: #303c44;"/>
  <path d="m2810.66,2385.93c-251.63-3.7-501.81-31.63-753.45-43.54-138.95-6.57-277.53-24.23-416.11-40.25-125.45-14.79-252-11.5-375.26-48.06-138.58-40.67-129.1-278.5-145.88-400.9-18.96-139.25-40.85-276.44-49.23-417.33-7.66-126.1-13.86-253.85-26.62-379.54-10.94-108.85-62.36-448.14,60.17-505.65,18.6-8.63,12.03-40.67-8.39-34.91-205.68,57.92-116.7,482.65-106.12,649.41,19.33,309.71,28.45,640.38,101.75,941.06,74.76,307.66,378.91,245.22,609.39,272.34,191.1,22.18,382.92,30.4,574.02,48.88,174.69,16.84,361.41,39.84,536.09,20.54,34.65-3.7,36.1-61.61,0-62.02h-.36Z" style="fill: #303c44;"/>
  <path d="m2979.51,1555.37c-4.38-233.72,1.46-481.82-44.49-711.44-37.2-186.08-175.41-193.47-323.48-234.55-46.68-13.14-91.17-29.57-138.58-36.97-70.38-10.68-99.56-108.85-129.83-166.77-43.03-82.97-99.92-172.11-164.84-234.96-31.73-30.81-106.85-15.2-143.32-15.2-82.42,0-190.37-22.59-270.23,1.64-33.92,10.27-91.54,9.04-114.15,46.83-66.74,110.49-108.68,271.51-249.45,263.71-130.19-6.98-251.27,15.2-359.22,94.89-7.29,5.34-2.92,20.13,6.2,16.43,112.69-45.59,234.13-53.81,353.02-53.81s155.36-45.18,219.91-151.98c55.8-92.83,90.08-148.29,195.84-154.04,86.43-4.93,175.05,2.88,261.85,3.29,168.12,0,199.85,271.92,299.04,383.65,33.19,37.38,74.76,36.15,118.52,42.72,88.25,13.56,191.1,51.35,276.07,83.38,162.65,61.2,129.83,438.28,136.39,589.44,8.75,197.17-.73,393.92-.73,590.68,0,105.57-4.74,215.24-16.78,319.98-12.03,107.62-39.39,133.91-120.35,160.61-29.18,9.45-24.8,65.31,7.29,61.61,99.56-12.32,167.03-48.47,181.25-175.81,25.89-235.37,25.16-486.34,20.42-723.35h-.36Z" style="fill: #303c44;"/>
  <path d="m2945.96,2109.07c-1.82-29.99-27.35-39.84-45.22-29.99-280.81-8.63-563.44-39.84-844.25-39.02-160.83.41-324.21-8.63-485.03-17.25-150.62-8.22-314.73-7.39-462.42-37.38-12.76-2.46-21.52,16.84-9.12,24.65,90.81,58.33,211.88,43.95,312.9,55.45,179.43,20.54,360.31,25.06,540.1,31.63,320.2,11.91,641.49,62.44,961.68,53.81,16.41-.41,32.82-16.02,31.73-35.74v-6.16h-.36Z" style="fill: #303c44;"/>
  <path d="m2902.93,883.36s0-.41.36-.82c-143.32-19.72-287.74-18.48-431.43-34.91-165.93-19.31-343.17-41.49-509.83-36.15-325.67,9.86-651.7-34.91-976.63-46.83-21.52-.82-26.62,37.38-5.11,42.72,299.41,73.94,623.25,66.13,928.86,75.17,327.49,9.86,667.74,93.65,994.5,65.72,39.75-3.29,34.28-64.9-.36-64.49l-.36-.41Z" style="fill: #303c44;"/>
  <path d="m2191.42,442.61c-20.79-42.31-56.16-138.84-93.72-163.89-47.41-31.22-127.64-11.91-179.79-18.48-38.29-4.52-72.94,10.68-112.69,11.91-14.59.41-48.14-6.16-63.09,3.7-36.83,24.23-43.4,80.51-52.15,122.82-4.74,21.77,21.15,33.68,31.73,15.2,24.8-43.13,29.9-88.72,83.15-87.49,35.74.82,77.68-11.09,112.69-6.57,39.02,5.34,132.75-14.38,156.82,24.65,21.88,35.33,41.21,78.04,59.44,117.48.73,9.45,5.11,18.48,13.13,23.41,1.46.82,2.55,1.64,4.01,2.46,26.26,16.43,55.07-16.43,40.48-45.59v.41Z" style="fill: #303c44;"/>
  <path d="m2171.36,452.47c-77.68-2.05-152.44-13.56-229.39-23-43.4-5.34-87.53-5.34-131.29-10.68-48.5-6.16-105.03,27.93-87.89-48.06,2.55-11.09-10.94-21.77-18.23-11.91-50.69,71.06-34.28,107.21,47.41,116.66,138.22,16.02,279.72,43.95,419.03,40.67,36.47-.82,36.47-62.85,0-63.67h.36Z" style="fill: #303c44;"/>
  <path d="m2310.31,3.51c-25.16-8.63-44.13.41-69.66,8.22-59.81,18.07-119.98,23.82-180.52,36.15-125.09,25.06-262.21,57.51-371.98,132.68-14.22,9.86-5.11,37.38,11.67,30.81,95.91-37.38,192.92-58.74,291.39-85.44,52.88-14.38,106.49-18.48,160.46-26.7,46.68-6.98,104.67-35.33,150.98-31.63,33.55,2.46,37.93-53.4,7.66-64.08Z" style="fill: #303c44;"/>
  <path d="m2281.86,17.06c-13.49,4.52-16.05,25.47-4.01,33.27,22.25,14.79,110.5,29.16,159.37,39.84-43.4,14.38-90.08,23.41-131.65,34.09-66.37,16.84-131.29,38.61-198.39,52.58-15.32,3.29-15.68,32.45,0,35.33,66.01,12.73,124.36-1.23,188.91-17.25,73.67-18.07,152.44-27.11,221.73-62.44,10.21-5.34,14.95-19.31,15.68-30.81,4.74-98.17-199.48-101.87-251.63-84.62Z" style="fill: #303c44;"/>
  <path d="m3333.62,450.01c-16.41-66.95-91.17-67.36-138.95-75.99-110.5-20.13-223.55-25.47-334.78-41.08-108.68-15.2-196.57-25.06-265.86-143.36-28.08-48.06-54.34-88.72-90.44-128.98-11.31-12.73-29.18,3.29-21.88,18.9,44.13,91.6,81.33,182.38,140.4,262.89,55.07,75.58,204.23,52.99,273.52,65.31,106.85,18.9,215.17,23,322.02,43.54,78.41,15.2,76.95,242.76,96.64,322.45,6.93,27.52,42.67,21.36,43.4-6.57,2.55-98.17-.73-223.45-23.7-317.52l-.36.41Z" style="fill: #303c44;"/>
  <path d="m2669.89,323.9c-95.55,64.9-200.21,119.53-278.62,211.13-6.2,7.39-4.74,18.9,2.92,24.23l3.65,2.46c5.11,3.7,12.03,3.29,17.14,0,47.04-31.63,93.72-64.08,140.4-96.94,51.42-35.74,103.57-55.45,140.77-111.32,12.03-18.07-10.58-40.25-26.26-29.57Z" style="fill: #303c44;"/>
  <path d="m1679.4,190c-114.88,15.61-203.5,6.57-306.7,73.94-115.24,75.17-216.26,173.34-320.56,264.53-13.49,11.91,3.65,31.22,16.78,24.65,93-46.83,180.16-121.59,264.4-185.25,67.1-50.93,129.83-94.89,215.17-102.69,45.59-4.11,95.18,2.05,138.22-16.84,25.53-11.09,24.8-62.44-6.93-58.33h-.36Z" style="fill: #303c44;"/>
  <path d="m3312.84,454.12c-35.01-30.81-82.42,14.38-114.51,33.27-37.93,22.59-75.49,46.83-113.05,70.24-48.14,29.99-90.44,73.53-141.13,97.35-14.59,6.98-9.48,30.4,6.56,27.11,123.99-24.23,223.55-136.37,343.54-171.29,11.67-3.29,19.33-14.38,21.52-27.52,4.38-9.45,5.11-22.18-2.92-29.57v.41Z" style="fill: #303c44;"/>
  <path d="m3286.58,2029.8c-74.03,87.9-139.31,172.52-230.85,239.88-70.02,51.35-180.16,70.65-236.68,138.43-5.11,6.16-3.65,18.9,4.74,20.54,91.9,18.07,207.51-59.56,282.27-112.96,84.97-60.38,192.92-146.64,217.72-261.66,5.11-23.82-21.52-43.54-37.2-24.23Z" style="fill: #303c44;"/>
  <path d="m3450.32,1287.14c-18.96-68.6-74.4-115.42-134.57-129.8-33.19-7.8-69.66,6.57-101.75,14.38-13.86,3.29-12.4-30.4-20.79-52.17-3.28-8.63-13.86-11.91-21.52-9.86-61.27,18.07-67.83,76.4-52.52,135.96,4.74,18.07,27.35,13.56,28.08-4.11,1.46-26.7,16.41-74.35,15.68-86.26,1.09,18.07,4.01,36.15,7.29,53.81,1.46,8.22,8.39,15.61,15.68,17.66,52.52,13.97,94.45-25.47,150.98,1.64,36.47,17.25,55.8,61.2,66.37,101.05,19.69,73.94-82.05,184.02-146.97,138.02-18.96-13.56-40.48,4.52-41.57,27.11-.73,11.09-1.46,22.18-1.82,32.86,3.28,25.47-2.55,47.24-17.51,65.31-3.28-27.93-8.39-72.29-5.47-98.58,2.55-24.23-27.72-34.5-40.85-18.9-1.82,2.05-3.65,4.11-5.47,6.16-8.39,9.45-8.39,20.95-4.01,30.4-5.11,50.11-5.47,124.87,39.02,138.43,67.83,20.95,81.33-52.17,87.53-113.37,49.6,8.63,112.32-18.07,144.78-52.58,51.42-55.45,60.54-120.76,39.39-196.34v-.82Z" style="fill: #303c44;"/>
  <path d="m3373.01,1316.3c-14.22-46.83-51.79-70.24-92.63-74.76-51.42-5.34-128.01,48.06-148.06-27.93-2.92-10.27-17.87-11.91-20.06,0-4.38,26.7-7.66,59.15,11.31,80.51,23.7,26.7,62.36,11.91,91.54,9.86,22.25-1.64,43.03-3.7,65.28-2.46,47.04,46.83,50.33,71.88,9.48,74.76-13.13,2.05-26.62,3.29-39.75,2.88-36.1-6.16-58.35-13.56-92.63,7.8-8.39,5.34-13.86,16.02-13.49,26.7,1.09,55.04-11.31,103.92-5.11,159.79,1.82,18.9,28.08,26.7,31.73,4.93,8.39-48.47,21.88-94.06,26.26-142.53,24.8-4.93,53.24,11.09,78.04,9.04,20.42-1.64,40.85-6.98,59.44-16.02,43.4-21.36,53.61-63.26,38.29-112.55h.36Z" style="fill: #303c44;"/>
  <path d="m3364.62,851.32c-7.66-106.39-22.61-200.04-63.09-296.16-2.55-6.57-10.21-1.64-9.48,4.52,30.27,207.43,21.52,423.08,29.18,632.57,1.46,44.36,59.44,44.36,60.9,0,4.01-111.73-9.48-229.21-17.51-340.52v-.41Z" style="fill: #303c44;"/>
  <path d="m3385.41,1475.68c-2.55-19.72-32.46-19.72-35.01,0-11.67,94.06-5.11,188.54-14.59,282.6-5.47,56.69,0,102.69-8.02,163.07-9.85,80.51-65.64,140.89-103.21,207.02-10.58,18.48,10.94,44.77,27.72,31.22,94.45-75.99,128.01-149.52,141.5-278.09,13.86-129.39,7.66-276.44-8.39-405.42v-.41Z" style="fill: #303c44;"/>
  <path d="m3307.37,677.16c-137.49,48.47-261.12,144.59-393.5,207.02-22.98,10.68-21.15,49.29,6.2,50.52,62.36,2.88,127.28-42.72,184.17-69.83,79.5-37.79,158.27-85.44,235.22-130.21,39.39-23-5.84-80.92-32.09-57.51Z" style="fill: #303c44;"/>
  <path d="m3335.45,1727.48c-51.06,37.38-95.18,96.94-140.4,143.77-81.33,83.8-172.13,181.56-274.25,231.67-21.15,10.27-5.47,45.59,14.95,40.25,175.05-44.77,302.69-225.92,432.16-352.84,1.09-.82,2.19-2.05,2.92-2.88,1.09-.82,1.82-2.05,2.92-2.88h0c1.46-1.64,2.55-2.46,3.65-4.52.36-.82,1.09-1.64,1.46-2.46,17.87-29.57-17.14-68.19-43.4-48.88v-1.23Z" style="fill: #303c44;"/>
  <path d="m3351.86,1339.31c-7.29.41-14.95,2.05-20.42,2.05,3.28,0-2.19-4.11-3.65-6.57-7.29-12.73-.73-32.86-4.74-50.52-5.11-24.65-34.28-20.95-40.85,0-4.74,14.38-14.22,33.27-12.4,49.29,2.55,20.54,7.66,35.33,19.33,51.35,22.25,30.81,76.58,32.04,83.88-13.97,2.55-14.79-5.84-32.86-21.52-32.04l.36.41Z" style="fill: #303c44;"/>
  <path d="m3401.09,1303.16c-21.88,19.31-40.85,33.27-68.56,20.54-16.41-7.8-34.65,13.14-20.42,29.57,17.87,20.13,37.56,32.45,63.09,34.09,21.88,1.64,41.21-11.5,58.35-26.29,3.65-2.46,6.93-5.75,10.58-9.45,28.81-32.04-13.13-75.17-43.03-48.47Z" style="fill: #303c44;"/>
  <path d="m3850.02,1836.33c-26.99-111.32-181.25-78.04-263.3-80.51-13.13-81.33-8.39-176.63-10.21-231.26-4.38-120.35-27.72-279.73-159.37-292.46-6.56-.82-13.49,4.52-16.41,10.68-2.55,5.75-5.47,11.09-8.75,16.43-4.38,7.39-3.65,16.02-.36,23.41,1.82,14.38,11.31,25.06,25.89,26.29-25.16,0-40.85,19.31-47.04,58.33,2.19-6.98-6.2-14.38-11.31-9.86-6.56,5.75-13.49,11.5-20.06,17.25-8.02,6.57-12.03,23.82,0,29.57,45.59,21.77,113.78,16.84,123.26-55.45.73-5.34,1.82-11.91,2.92-18.07,22.61,32.86,42.67,61.61,42.3,55.04,14.59,43.13,13.86,93.65,16.78,138.84,4.01,66.95,4.38,136.37,12.4,202.92,16.05,131.03,51.06,217.29,174.69,243.58,55.8,11.91,157.18-60.79,138.95-134.73h-.36Zm-190.37,57.51c-30.27-15.2-49.23-47.24-61.27-87.08h10.58c39.75-6.57,79.14-4.11,118.16,6.16,89.71,74.35,67.47,101.46-67.47,80.92Z" style="fill: #303c44;"/>
  <path d="m3938.28,1746.78c-68.2-129.8-257.47-102.69-367.97-102.69-31.73,0-31.73,55.45,0,55.45,76.95,0,162.65,0,238.14,12.32,86.8,13.97,122.17,118.3,97.74,201.27-41.57,141.3-187.08,183.2-295.4,120.76-172.86-99.4-91.54-463.34-166.3-642.84-3.28-7.8-12.76-1.64-11.67,5.34,29.54,197.58-6.56,418.98,67.47,604.64,59.44,148.7,263.67,145,362.86,68.19,97.01-75.17,135.3-207.43,74.76-322.86l.36.41Z" style="fill: #303c44;"/>
  <path d="m3471.84,1669.97c-11.31-17.25-27.35-20.54-45.22-21.36-14.95,0-37.2,4.52-49.6,14.79-9.48,7.8-9.85,21.77,0,29.16,8.39,6.57,19.33,7.39,29.18,9.04,6.93,1.23,13.49,2.46,20.42,2.88-1.09,0,9.48,1.23,5.84.41h1.46c20.06,18.48,55.43-8.63,37.93-35.33v.41Z" style="fill: #303c44;"/>
  <path d="m3467.83,1766.91h-1.46c-1.09,0-1.82,0-2.92-.41-6.2-1.23-12.4-1.64-18.96-1.23-9.12,0-18.23-4.52-27.35-4.93-16.05-.82-35.01,6.57-45.95,20.13-14.95,18.07,3.65,42.72,22.61,32.86,0,0,10.21,3.29,10.94,3.7,7.29,1.64,14.59,2.88,21.88,5.34,11.67,3.7,23.7,3.7,35.74,1.64h5.47c13.86-3.29,18.96-15.61,18.23-28.34.73-12.32-4.38-25.06-18.23-28.34v-.41Z" style="fill: #303c44;"/>
  <path d="m1007.28,1386.96c-69.29-2.05-125.45-27.11-113.42-119.12,9.85-75.99,65.28-86.67,118.16-110.91,16.41-7.39,18.96-34.09,0-40.25-97.01-32.45-168.12,81.33-173.59,175.4-5.84,103.92,94.45,190.18,180.52,144.59,22.61-11.91,10.21-49.29-12.03-49.7h.36Z" style="fill: #303c44;"/>
  <path d="m1039.74,1327.81c-17.14-15.61-39.75-13.97-56.89-31.63-21.88-22.59-4.74-56.27,13.86-72.7,12.76-11.5-1.09-36.56-15.68-30.4-43.4,18.07-72.21,62.85-53.61,115.01,13.86,39.02,70.38,88.72,107.95,59.97,10.94-8.63,16.78-29.16,4.74-40.25h-.36Z" style="fill: #303c44;"/>
  <path d="m950.39,1253.46c-2.55.82-4.38,2.46-6.56,3.7v-.41c-.73.41-1.09,1.23-1.82,1.64-5.11,3.7-9.12,7.8-12.4,13.56-5.11,5.75-10.58,11.09-19.33,11.91-9.85,1.23-20.42-5.34-29.9-13.14,2.92-4.52,5.11-9.45,5.84-15.2,2.92-23-11.67-44.36-33.92-38.2-68.56,19.31-40.85,108.85-6.2,149.52,22.61,26.7,56.16,29.57,84.61,12.32,14.59-8.63,20.79-24.23,30.27-38.61,3.28-4.93,4.74-11.91,6.56-17.66.73-2.88,1.82-5.34,2.55-8.22.73-.82,1.46-2.05,2.19-2.88,25.89-19.31,10.21-69.83-21.88-58.74v.41Z" style="fill: #303c44;"/>
  <path d="m836.24,1239.49c-84.97,105.16-124.72,301.91-104.3,440.34,28.08,187.72-52.15,255.08-191.46,293.69-83.51,23-346.09,80.51-405.53-36.56-10.21-20.13-40.85-12.32-39.75,12.32,8.39,205.79,394.59,105.16,497.07,76.4,52.88-14.79,185.63-47.65,200.21-126.1,39.75-215.24-40.85-431.3,71.84-636.27,10.58-18.9-14.22-41.08-27.72-23.82h-.36Z" style="fill: #303c44;"/>
  <path d="m779.35,1776.77h0c.36-12.32-4.74-23.82-17.14-27.11-1.82-.41-4.01-.82-5.84-.82h0c-194.38-4.11-449.66-23.41-617.42,108.85-41.21,32.45-54.7,83.8-28.81,133.91,6.56,12.73,45.59,42.72,32.82,23.41,3.65,5.34,9.85,5.34,13.49,0,1.09-1.23,1.82-2.88,2.92-4.11,3.28-4.52,1.09-11.09-1.82-15.2-79.87-111.32,176.87-164.3,228.66-170.88,123.99-16.02,245.43-17.66,370.16-20.13h0c2.19,0,4.01,0,5.84-.82,12.4-3.29,17.51-14.79,17.14-26.7h0v-.41Z" style="fill: #303c44;"/>
  <path d="m905.17,1376.69c1.46-13.97-11.67-26.7-23.34-26.29h-5.47c-29.9.82-29.9,51.76,0,52.58-45.95-1.23-27.35,274.8-31,318.34-13.13,163.89-57.62,283.84-219.18,315.05-81.33,15.61-161.56,36.15-243.25,51.35-83.88,15.61-162.65,24.65-247.62,8.63-103.21-69.01-115.24-150.75-36.1-245.64,51.79-71.47,130.92-82.15,203.5-98.99,151.35-34.5,300.5-29.57,452.94-46.42,17.14-2.05,17.14-28.34,0-30.4-123.63-13.56-239.96-7.8-362.86,8.22-94.45,12.32-221,21.36-293.94,96.53-76.58,78.87-166.66,282.19-21.88,349.15,90.08,41.49,183.44,39.43,278.26,20.95,120.71-23.82,282.63-20.95,390.58-92.01,215.53-142.12,134.57-446.91,159-681.45l.36.41Z" style="fill: #303c44;"/>
  <path d="m1040.1,1764.86h0c-59.44,8.22-119.98,1.23-179.43,11.09-17.51,2.88-15.68,33.27,0,37.79,59.08,16.43,126.91,35.33,186.72,10.27,33.19-13.97,17.51-59.15-7.29-59.56v.41Z" style="fill: #303c44;"/>
  <path d="m1058.7,1684.35c-32.09-5.75-64.55-9.04-97.01-10.68-26.62-1.23-57.62-4.93-81.69,9.45-10.21,5.75-8.02,20.95,0,27.52,20.79,16.43,44.13,20.13,68.93,22.18,34.28,3.29,67.83,9.45,102.11,14.38h0c28.45.41,41.21-56.69,7.66-62.85Z" style="fill: #303c44;"/>
</svg>