<?xml version="1.0" encoding="UTF-8"?>
<svg id="OBJECTS" xmlns="http://www.w3.org/2000/svg" viewBox="0 0 418.64 500">
  <path d="m192.07,169.61c10.09,3.92,25.56,4.29,34.47-2.4,7.83-5.88-6.04-16.15-12.13-18.24-9.38-3.23-19.6.89-26.37,7.36-2.02,1.41-3.62,3.04-4.11,4.87-1.15,4.35,4.64,7.05,8.13,8.4Zm31.44-4.5c-3.04,2.55-7.98,3.47-12.91,3.57,2.92-3.93,2.47-11.75.66-15.82-.24-.53-.66-1.05-1.17-1.49,6.68,1.93,19.14,8.93,13.43,13.74Zm-34.19-5.05c.44-1.05,1.59-2.24,2.98-3.4,3.8-2.74,8.25-5,12.62-5.62-2.71,2.95-2.53,9.91-2.08,12.72.21,1.34.5,3.21,1.32,4.63-1.57-.16-3.03-.38-4.31-.62-3.5-.65-12.8-2.31-10.52-7.72Z"/>
  <path d="m136.31,157.88c9.11-4.04-1.79-17-7.17-20.34-8.3-5.15-19.28-3.33-27.51,1.51-2.32.94-4.29,2.18-5.23,3.86-2.22,3.99,2.72,7.85,5.77,9.91,8.82,5.97,23.77,9.65,34.13,5.06Zm-22.18-8.44c-.14,1.35-.33,3.23.11,4.79-1.48-.49-2.85-1.02-4.04-1.52-3.24-1.38-11.86-4.99-8.28-9.76.69-.92,2.12-1.84,3.76-2.67,4.39-1.85,9.29-3.1,13.7-2.76-3.38,2.29-4.97,9.1-5.25,11.92Zm10.95-8.8c-.1-.57-.38-1.16-.76-1.7,6,3.31,16.35,12.79,9.57,16.24-3.6,1.83-8.64,1.66-13.46.7,3.84-3.19,5.38-10.9,4.65-15.25Z"/>
  <path d="m194.08,189.02c.78-2.79-3.91-3.98-4.69-1.19-2.12,7.5-6.02,19.45-16.71,19.28-10.3-.17-11.05-11.51-11.22-19.94,5.33-1.32,11.26-7.42,14.2-10.41,12.15-12.35-12.52-15.6-21.72-14.73-5.55.53-10.05,3.39-8.26,9.02,1.14,3.59,3.72,8.14,7.02,11.57.85,1.19,1.77,2.28,2.75,3.13-1.49,8.06-3.7,17.87-12.94,19.84-14.06,2.99-17.53-16.42-17.71-25.26-.03-1.39-2.46-1.82-2.74-.34-2.04,10.99,1.8,28.73,16.44,30.62,10.39,1.34,15.78-5.49,18.91-13.47,1.36,7.06,4.62,13.35,13.14,14.36,14.3,1.7,20.64-12.2,23.52-22.5Z"/>
  <path d="m162.04,222.01c-2.78.23-4.78,2.16-7.68,2.42-3.46.31-7.08-.78-9.62-2.99-.94-.82-2.55-.01-2.19,1.17,1.22,4.04,5.75,6.05,10.09,6.24,3.72.16,10.02-.96,11.15-4.73.29-.96-.55-2.21-1.74-2.11Z"/>
  <path d="m48.38,280.27c-.11-.05-.22-.09-.33-.14-.1-.04-.2-.07-.3-.11-1.04-.38-2.48.25-2.99,1.12-4.96,8.4-5.48,17.99-2.42,27.02,1.11,3.28,6.16,1.9,5.52-1.4-1.58-8.11-.57-15.86,1.75-23.74.28-.96-.17-2.31-1.22-2.75Z"/>
  <path d="m56.7,297.71c-5.09,8.22-7.83,17.46-6.91,26.94.35,3.62,6.33,3.75,6.24,0-.22-8.85.73-17.28,3.95-25.67.68-1.78-2.29-2.87-3.28-1.27Z"/>
  <path d="m70.33,333.66c-.21-5.42.85-10.73,1.31-16.11.11-1.24-1.63-1.35-2.28-.57-8.31,10.1-6.9,25.49-.88,36.22,1.7,3.03,7.4.93,6.08-2.36-2.22-5.56-4-11.22-4.23-17.18Z"/>
  <path d="m87.47,361.44c-1.08-5.43-.36-11.39-2.43-16.59-.29-.72-1.24-.83-1.71-.21-7.11,9.41-1.59,26.43,4.07,35.36,1.72,2.71,7.04.9,5.7-2.21-2.29-5.32-4.51-10.71-5.63-16.36Z"/>
  <path d="m205.55,281.23c-1.28-.59-3.09.69-2.13,1.96,7,9.31,10.54,18.78,14.35,29.46,1.13,3.16,5.86,1.83,5.32-1.35-1.89-10.94-5.77-24.69-17.53-30.07Z"/>
  <path d="m206.53,307.12c-.4-.27-.99.09-.98.52.2,5.28,2.89,10.18,4.38,15.23,1.68,5.72,2.43,11.63,3.45,17.47.45,2.59,4.52,1.73,4.7-.58.81-10.14-2.02-26.19-11.55-32.63Z"/>
  <path d="m199.86,336.8c-.74-.47-1.9.15-1.84.97.25,3.35,1.69,6.61,2.5,9.89.99,3.98,1.37,8.02,1.55,12.09.18,4.06,6.65,4.06,6.87,0,.39-7.56-1.83-18.31-9.08-22.94Z"/>
  <path d="m190.89,364.69c1.36,4.22,2.24,8.16,1.95,12.6-.2,2.97,4.92,2.99,5.05,0,.21-4.78-.8-9.81-3.57-13.93-1.09-1.62-4.04-.6-3.42,1.33Z"/>
  <path d="m125.5,299.85c-2,7.47-3.46,14.9-4.71,22.5-.51,3.1,4.59,4.5,5.22,1.32,1.54-7.86,2.39-15.48,2.25-23.48-.02-1.43-2.37-1.79-2.76-.34Z"/>
  <path d="m401.42,4.48c-14.71-8.21-31.93-4.25-45,4.73-14.43,9.91-25.56,24.44-34.37,38.7-9.62,15.56-16.61,32.56-20.5,50.09-7.99,36.01-2.97,74.11,15.31,106.67-18.81-14.1-41.7-22.97-66.28-25.71-.1-1.37-.21-2.73-.37-4.09-1.07-9.25-3.56-22.21-10.06-31.03,9.16-16.51,13.09-34.88,11.1-53.36-.15-1.41-1.56-2.88-3.29-2.3-7.52,2.5-14.9,5.27-22.12,8.41-6.46,2.81-13.79,5.81-19.23,10.22-1.24-.7-2.47-1.37-3.7-2.02-12.24-6.49-25.71-11.29-39.35-14.6-24.14-5.85-49.96-6.4-72.93,2.15-7.26-7.43-14.69-14.71-22.29-21.85-4.24-3.98-8.29-7.47-12.47-1.57-5.11,7.22-8.35,16.62-10.73,24.87-2.27,7.88-4.4,16.77-3.77,25.02-6.12,4.62-10.23,13.04-13.02,18.9-5.25,11.02-9.1,22.62-11.55,34.43-2.4,11.56-3.5,23.35-3.21,35.12.15,6.34.48,13.14,1.43,19.8C3.86,243.11.5,265.48.05,284.07c-.53,21.78,3.71,43.49,10.43,64.31,13.25,41.02,34.59,80.22,59.83,116.1-1.15,1.46-2.38,2.88-3.73,4.23-3.32,3.33-7.17,6.28-9.04,10.58-9.46,21.78,32.1,21.49,45.21,20.27,10.73-1,22.54-2.51,31.65-8.21,8.56-5.36,14.65-13.52,19.46-21.81,4.53-7.8,8.57-15.92,12.28-24.21,8.69,3.44,19.25,3.69,29.03,2.8-2.04,5.68-2.67,12.44-3.75,18.11-11.25,4.98-15,21.35-.9,25.74,8.27,2.58,18.53.82,26.94-.2,10.09-1.22,19.93-3.35,29.58-6.26,1.22,1.53,2.84,2.9,4.93,4.05,6.56,3.6,15.72,2,22.9,1.3,9.37-.92,18.96-2.23,28.03-4.62,15.89-4.18,22.62-18.96,29.69-31.5,8.02-14.23,14.78-29.07,20.26-44.28,18.99-52.71,26.7-116.25-2.02-166.87.01-.01.02-.02.03-.03,11.19-12.67,3.69-32.69,1.56-47.13-3.07-20.78-3.81-41.32,3.03-61.57,6.18-18.26,17.02-35.09,30.1-49.88,11.94-13.51,27.35-25.85,31.96-43.45,3.79-14.47-2.04-29.21-16.09-37.05Zm-157.06,475.31c-1.91.54-3.82,1.07-5.75,1.55-1.41-4.98-1.09-9.82-1.45-14.98-.09-1.29-1.78-1.68-2.57-.64-3.72,4.89-3.75,11.42-2.68,17.17-5.84,1.26-11.75,2.24-17.72,2.89-.03-.03-.05-.07-.09-.1-4.57-4.61.44-13.06,2.1-17.86.46-1.33-1.31-2.6-2.6-1.84-5.69,3.38-10.07,13.89-7.17,20.53-4.13.36-8.49.65-12.41-.06-10.12-1.83-6.98-13.06.87-15.56.95-.3,1.93-.97,2.12-1.95.97-4.89,1.96-9.78,2.84-14.68.33-1.81,1.19-4.49,1.3-6.84,1.32-.18,2.62-.37,3.88-.57,15.92-2.56,31.04-8.06,45.91-13.75,3.86,7.46,2.63,18.24,1.85,26.57-.15.1-.3.19-.45.32-5.72,4.95-9.41,12.92-7.99,19.81Zm112.27-106.03c-6.21,27.38-16.23,54.06-30.34,78.85-3.73,6.55-7.57,13.23-12.14,19.33-3.32,4.44-7.77,6.76-12.75,8.26-.64-5.51-.1-10.08,1.53-15.69.36-1.24-1.35-2.17-2.35-1.26-4.88,4.47-6.91,12.15-5.26,18.42-1.66.33-3.35.63-5.05.93-5.22.94-10.7,1.88-16.18,2.46.06-3.92.52-7.65,1.89-11.46,1.22-3.42,3.86-6.93,3.63-10.57-.04-.59-.65-.89-1.21-.64-4.13,1.8-6.46,6.94-8.18,10.63-1.92,4.12-3,8.18-2.77,12.53-1.71.06-3.41.09-5.08.04-14.48-.47-13.96-13.94-5.3-21.28.02-.02.03-.03.05-.05,1.19-.41,2.21-1.34,2.4-2.78,1.06-8.17,1.14-16.69-.23-24.84-1.25-7.39-6.72-13.21-10.3-19.78-4.03-7.4-7.01-15.26-9.14-23.3-2.1-7.93-2.52-16.04-4.19-24.02-.32-1.51-2.99-1.5-3.31,0-3.07,14.29,1.54,30.71,7.43,43.94,2.17,4.88,4.99,9.29,7.76,13.78-12.96,4.8-26,9.6-39.68,12.38-7.13,1.45-14.39,2.24-21.69,2.38-6.09.12-11.99-.84-17.96-1.4,6.73-15.62,12.41-31.74,18.05-47.39,1.38-3.84-5.19-5.48-6.57-1.67-7.51,20.79-15.7,41.41-25.01,61.58-4.23,9.16-8.92,18.6-16.04,26.21-6.23,6.65-13.74,9.95-22.5,11.87.35-6.3,2.45-11.62,5.18-17.63.71-1.57-1.67-2.33-2.78-1.49-6.32,4.78-9.25,12.89-9.24,20.33-7.87,1.15-15.94,1.67-23.91,1.11.12-9.07,1.4-16.85,8.62-24.07,1.73-1.73-.84-3.99-2.76-2.54-7.8,5.91-13.77,16.26-12.34,25.88-.98-.15-1.96-.28-2.93-.47-6.35-1.2-15.29-3.46-12.22-11.08,2.07-5.16,8.17-8.97,11.76-13.27.06-.07.11-.14.16-.21,1.61-.44,2.9-1.8,2.57-3.39,2.2-3.13,4.09-6.45,5.81-9.85.07.02.13.05.21.07,13.77,3.27,28.99-.47,38.46-10.46,5-5.27,7.93-11.76,10.89-18.11,3.53-7.56,7.79-14.17,12.77-20.99,6.55-8.96,12.85-22.58,3.38-32.02-8.54-8.52-25.72-5.73-36.23-.44,1.97-8.17,3.53-16.56,2.68-24.7-.21-2.05-3.31-2.08-3.48,0-1.08,12.71-5.24,25.53-9.04,37.75-.69,2.23-1.41,4.44-2.12,6.66-.37-.68-.75-1.34-1.1-1.98-.99-1.8-1.35-3.82-3.63-4.54-.91-.28-1.68,0-2.18.54,0,0,0,0,0,0-1.87,1.64-.93,4.39-.5,6.45.49,2.32,1.6,4.81,3.25,6.62.45.49.96.78,1.5.92-2.17,6.39-4.45,12.74-6.9,19.05-4.57,11.74-9.44,23.55-15.24,34.82-.75,1.46-1.55,2.9-2.39,4.3-23.45-33.75-43.17-70.25-56.25-108.48-6.83-19.94-11.44-40.62-11.65-61.59-.11-10.6.86-21.3,3.08-31.71,1.6-7.47,4.34-14.39,6.99-21.44.66,2.73,1.45,5.4,2.44,7.95.82,2.12,4.99,2,4.62-.57-1.54-10.77-4.23-21.19-4.73-32.12-.53-11.69.27-23.45,2.43-34.98,2.01-10.68,5.16-21.16,9.43-31.26,2.14-5.06,4.57-9.99,7.58-14.66,2.8-4.36,7.06-7.87,9.54-12.31.36-.65-.24-1.53-1.08-1.29-.45.13-.88.29-1.31.46,1.02-5.38,1.64-10.83,3-16.17,1.85-7.22,4.4-14.36,7.64-21.16.42-.88.87-1.76,1.32-2.63,1.79,3.44,4.09,6.73,5.68,10.22,2.51,5.54,4.51,11.28,6.43,17.02.89,2.66,5.48,1.5,4.53-1.15-3.2-8.89-6.95-22.46-15.13-29.25.53-1.15,1.09-1.91,2.67-1.64,3.15.53,6.19,4.92,8.38,7.02,5.34,5.11,10.56,10.32,15.72,15.59-2.58,1.13-5.11,2.38-7.6,3.76-1.56.87-.2,2.91,1.41,2.21,26.29-11.36,56.08-12.02,83.79-5.1,12.48,3.12,24.71,7.45,35.98,13.3,11.27,5.85,19.69,13.52,28.82,21.75,1.86,1.67,5.09-.49,3.66-2.6-5.19-7.66-13.52-13.94-22.02-19.01,5.6-1.92,10.97-4.89,16.35-7.16,6.64-2.8,13.39-5.35,20.24-7.68,1.17,15.99-2.07,31.64-9.73,46.09-1.11-1.02-2.3-1.96-3.6-2.74-.65-.39-1.54.26-1.31.93,2,6.04,6.1,11.38,8.34,17.4,2.45,6.59,3.96,13.42,4.54,20.36,1.18,13.98-.46,28.28-5.13,41.65-9.3,26.64-33.09,49.35-64.51,51.87-3.76.3-3.79,5.74,0,5.43,32.89-2.65,58.3-25.09,69.09-52.92,4.82-12.43,7.15-26.01,6.72-39.3,22.07,4.92,43.19,12.52,60.81,25.38-.57,1.9.36,6.37.24,8.1-.4,5.72-2.11,11.32-4.43,16.61-4.32,9.89-10.65,18.97-16.41,28.17-11.27,18-21.7,38.27-18.67,59.63,2.82,19.92,17.35,32.47,38.16,36.6,10.29,2.04,20.49,2.12,30.34-1.53,7.68-2.85,14.45-7.25,20.93-11.94-1.11,10.15-2.86,20.25-5.12,30.17Zm-269.65,74.71c.62-1.33,1.22-2.67,1.83-4,4.31-9.48,8.29-19.09,11.91-28.82,4.02-10.8,7.52-21.77,10.28-32.9.48-1.95.99-3.92,1.5-5.91,10.1-3.46,29.92-9.34,35.44,2.65,5.25,11.41-6.06,21.98-12.1,30.86-5.94,8.73-8.6,19.11-15.33,27.41-7.79,9.61-21.08,13.45-33.53,10.71Zm272.13-164.66c3.88,17.24,4.65,34.89,3.31,52.44-8.22,6.15-16.91,12.51-27.17,15.4-11,3.1-23.41,1.39-34.03-2.26-24.5-8.43-27.6-34.55-21.32-54.92,5.96-19.35,19.52-34.69,29.12-52.39,4.09-7.55,7.35-15.6,8.23-24.04.1-.98.38-3.05.43-5.27,1.99,1.68,3.94,3.41,5.82,5.25,18.56,18.17,30.15,41.55,35.6,65.8Zm50.85-237.9c-6.89,16.1-22.6,27.87-33.71,41.44-9.87,12.06-18.14,25.27-23.89,39.43-7.03,17.31-9.14,35.39-7.71,53.76.76,9.78,2.31,19.49,3.79,29.2,1.32,8.63,4.66,20.34-.93,28.31-2.72-4.29-5.68-8.49-8.97-12.56-3.81-4.71-7.96-9.09-12.39-13.14-16.17-29.73-24.36-63.22-20.89-96.44,3.43-32.74,18.12-65.11,41.61-89.99,10.91-11.56,27.63-24.21,45.5-18.91,18.25,5.41,24.2,23.46,17.59,38.9Z"/>
  <path d="m50.07,254.54c1.81.72,3.62-.76,2.7-2.49-1.78-3.37-4.65-6.06-6.17-9.58-1.66-3.83-2.2-7.88-1.54-11.96.33-2.01-2.79-2.94-3.41-.86-2.39,7.92-1.08,21.14,8.42,24.9Z"/>
  <path d="m67.88,260.46c3.39,2.67,8.35-1.87,4.93-4.53-3.66-2.85-6.62-6.27-8.64-10.29-1.81-3.6-2.45-7.74-4.6-11.16-.4-.63-1.44-.64-1.84,0-5.35,8.59,3.21,20.52,10.15,25.98Z"/>
  <path d="m87.44,257.59c-1.91-2.81-3.02-6.69-5.71-8.93-.66-.55-1.98-.59-2.41.29-3.73,7.56,6.01,18.46,12.82,21.72,3.05,1.46,6.44-2.17,3.78-4.51-3.05-2.69-6.23-5.24-8.48-8.57Z"/>
  <path d="m284.17,398.95c-.08-1.87.36-3.79-.21-5.61-.53-1.7-2.86-2.25-4.23-1.03-4.05,3.6-2.33,10.46-.4,14.6,1.46,3.13,7.17.9,6-2.32-.67-1.83-1.06-3.71-1.15-5.64Z"/>
  <path d="m297.99,395.31c-.63-.75-1.91-.53-2.57,0-1.36,1.09-1.54,3.19-1.66,4.76-.14,1.9.21,3.61,1.01,5.36.52,1.14,1.5,1.93,2.92,1.75,1.23-.15,2.4-1.19,2.31-2.41-.14-1.73-.33-3.4-.64-5.11-.28-1.56-.29-3.08-1.37-4.36Z"/>
  <path d="m313.38,398.25c-.58-.43-1.54-.48-1.94.23-1.62,2.83-1.62,7.1-.54,10.08.6,1.66,3.67,2.52,4.57.55.95-2.08,1.17-3.8.66-6.02-.42-1.8-1.18-3.67-2.76-4.84Z"/>
  <path d="m331.44,398.93c-.88-.5-1.84-.1-2.4.58-.95,1.14-.94,2.78-1.38,4.12-.48,1.47-1.04,2.79-1.98,4.06-2.41,3.27,3.46,6.46,5.78,3.11,1.33-1.93,2.25-4.1,2.31-6.4.04-1.96-.39-4.36-2.33-5.46Z"/>
  <path d="m363.56,26.79c-2.97-1.09-6.19,1.72-7.91,3.66-2.23,2.52-3.31,5.33-3.37,8.58-.06,3.35,5.81,4.25,6.51.81.41-2.04,1.21-4.08,2.41-5.84,1.13-1.66,3.39-2.95,3.74-4.96.19-1.06-.29-1.84-1.38-2.24Z"/>
  <path d="m371.06,41.1c.65-1.05,1.78-2.18,1.99-3.39.18-1.05-.28-2.33-1.59-2.57-4.4-.8-7.6,4.12-8.14,7.51-.27,1.67.45,3.37,2.38,3.86,1.61.41,3.92-.5,4.2-2.19.2-1.27.53-2.2,1.16-3.21Z"/>
  <path d="m380.3,46.99c.67-.84-.03-2.16-1.05-2.38-.71-.16-1.05-.32-1.81-.22-.5.07-1,.16-1.48.31-1.26.37-2.32.99-3.34,1.74-.94.69-1.76,1.56-2.37,2.52-.87,1.38-.91,2.73-.64,4.26.21,1.18,1.62,2.1,2.81,2.23,1.4.15,2.59-.41,3.37-1.48.54-.74.92-1.53,1.25-2.38,0,.01.27-.63.25-.62.15-.3.3-.6.48-.88.32-.53.68-.97,1.12-1.43.54-.56.95-1.08,1.42-1.67Z"/>
  <path d="m386.89,51.19c-3.69,1.37-7.11,3.73-7.97,7.48-.32,1.41.32,2.86,1.82,3.42,1.37.51,3.23.13,3.93-1.19,1.24-2.29,2.17-4.71,4.23-6.51,1.42-1.24-.04-3.93-2.02-3.19Z"/>
  <path d="m325.32,85.81c-2.67.41-5.06,2.19-6.61,4.14-1.85,2.34-2.14,5.04-.85,7.65.88,1.77,3.62,1.41,4.6,0,1.1-1.57,1.69-3.25,2.44-4.97.68-1.55,1.63-2.81,2.62-4.19,1.03-1.43-.67-2.87-2.2-2.63Z"/>
  <path d="m336.14,89.24c-2.83-1.22-5.48,1.66-6.96,3.54-2.12,2.69-3.01,5.86-1.4,8.95,1.3,2.51,5.25,1.58,6.06-.73.76-2.18.4-4.54,1.39-6.67.52-1.12,3.19-4.12.92-5.1Z"/>
  <path d="m344.32,95.62c-2.69,2.62-3.99,6.81-4.45,10.29-.16,1.24,1.09,2.49,2.31,2.79,1.43.36,2.74-.28,3.56-1.33,1.16-1.5,1.86-2.98,2.54-4.71.65-1.65,1.34-3.25,1.3-5.03-.05-2.38-3.39-3.84-5.27-2.01Z"/>
  <path d="m316.96,154.88c-1.44,2.62-1.01,6.19-.77,9.03.34,3.95,6.36,3.96,6.69,0,.24-2.85.67-6.41-.77-9.03-.98-1.79-4.18-1.79-5.16,0Z"/>
  <path d="m328.65,160.27c-2.07,3.12-1.51,6.94,0,10.11,1.18,2.49,5.33,1.1,5.33-1.33,0-2.69-.1-5.74-1.16-8.28-.68-1.64-3.08-2.14-4.16-.5Z"/>
  <path d="m151.45,121.7c1.23-.15,2.36-1.17,2.28-2.38-.19-3.05-.63-6.18-1.93-9-.48-1.04-2.08-.78-2.64,0-2.01,2.78-1.98,6.62-.6,9.64.51,1.12,1.48,1.91,2.89,1.73Z"/>
  <path d="m170.6,122.71c1.8-.7,2.86-2.56,2.31-4.33-.26-.84-.37-1.71-.65-2.54,0-.02,0-.02,0-.04-.02-.18-.03-.36-.03-.54-.01-.66,0-1.27-.21-1.92-.41-1.27-1.57-2.2-3-2.37-1.55-.19-2.68.49-3.59,1.58-.93,1.11-1.06,2.92-1.07,4.27-.01,1.63.46,2.95,1.27,4.38.92,1.62,3.25,2.18,4.99,1.5Z"/>
  <path d="m187.38,127.83c1.73.67,3.99-.17,4.43-1.95.36-1.46,1.07-3.16.56-4.64-.48-1.38-2.24-2.16-3.66-1.37-1.46.81-2.12,2.36-2.9,3.69-.93,1.59-.27,3.56,1.57,4.28Z"/>
  <path d="m74.75,179.78c.13.04.26.08.38.12.67.22,1.32-.04,1.8-.45.67.48,4.93-.85,5.03-.87,1.98-.51,3.98-.91,5.99-1.28,5.08-.93,10.21-1.42,15.38-1.69,3.83-.2,3.76-5.11,0-5.43-6.81-.58-13.6,0-20.14,1.86-2.56.73-10.36,2.21-9.91,5.96.11.87.56,1.47,1.47,1.77Z"/>
  <path d="m102.56,179.15c-5.86.86-11.45,3.58-16.28,6.68-2.08,1.34-4.04,2.84-5.85,4.48-1.24,1.12-2.36,2.27-3.41,3.55-.54.66-1.21.99-1.24,1.23-.29.1-.56.31-.76.66-.43.75-.5,1.18-.25,1.99.24.79.99,1.21,1.83,1.28,1.5.12,2.2-.58,3.32-1.39,2.74-1.98,5.18-4.21,8.05-6.05,5.24-3.38,10.96-5.36,16.78-7.69,3.16-1.26.7-5.15-2.17-4.73Z"/>
  <path d="m207.14,190.06c-2.64,1.14-1.3,5.05,1.46,4.96,3.95-.12,7.88-.84,11.85-.45,3.74.37,7.32,2.46,11.03,2.3.64-.03,1.37-.64,1.07-1.29-1.68-3.67-6.66-5.23-10.59-6.19-4.98-1.21-10.09-1.37-14.82.66Z"/>
  <path d="m201.01,199.26c-2.11.55-2.81,3.58-.65,4.55,3.75,1.67,7.8,1.81,11.38,4.02,3.56,2.2,5.52,5.58,8.56,8.24.77.67,1.84.14,1.94-.74.96-8.26-12.72-18.28-21.23-16.06Z"/>
</svg>