<?xml version="1.0" encoding="UTF-8"?>
<svg id="Layer_1" data-name="Layer 1" xmlns="http://www.w3.org/2000/svg" viewBox="0 0 3238 4000">
  <path d="m2821.78,3127.12c201.35-260.26,310.73-575.26,399.38-876.67,26.01-40.34,24.33-92.37-22.3-159.47-68.03-97.87-195.66-163.73-307.69-215.41-150.95-69.61-311.84-122.86-475.1-167.04,30.78-50.77,71.7-98.09,108.33-143.53,63.56-78.84,128.88-139.06,230.16-179.55,180.09-72.01,350.79-121.03,434.4-294.1,76.11-157.58,40.32-331.75-38.4-482.8-47.88-91.91-127.49-173.03-165.4-268.49-37.33-94.01,10.29-141.95,88.56-198.89,7.49-5.45,11.11-13.37,12.09-21.72,17.89-21.49,5.95-58.91-25.94-65.46-163.16-33.61-349.39,92.11-420.73,214.03-108.3,185.1,22.26,390.55-50.82,580.07-68.53,177.78-260,292.24-338.54,466.14-41.25,91.34-62.18,224.3-41.55,342.64-219.06-50.12-442.97-88.15-668.56-104.15-150.91-10.69-309.96-13.95-458.09,18.25-80.47,17.51-179.44,52.72-206.6,127.52-47.55-37.66-101.23-70.01-148.67-96.15-92.72-51.09-200.56-92.69-312.25-84.01C163.23,1537.82,17.12,1774.86,1.69,1974.38c-19.76,255.33,136.68,495.11,317.58,683.72,30.15,31.43,61.62,61.82,93.88,91.54-122.82,41.66-247.59,108.34-282.05,224.59-27.39,92.46,13.3,185.36,74.13,260.27,80,170.63,274.26,286.81,448.87,376.58,248.9,128,523.07,222.15,800.92,288.61,294.77,70.51,608.23,107.26,913.86,99.23,204.48-5.37,442.18-25.81,610.28-139.5,43.33-19.37,83.62-42.58,119.74-70.4,292.83-225.53-47.11-523.39-277.11-661.89ZM510.2,2138.82c-12.99-35.88-18.17-99.23,21.61-126.07,38.94-26.28,86.93-1.35,121.53,18.05,44.21,24.8,74.77,63.54,112.06,94.23-17.59,86.51-31.76,174.7-39.87,262.72-82.99-77.26-179.16-148.96-215.33-248.92Zm342.99,578.54c-37.3-271.06,18.09-549.37,89.11-816.27,5.6.32,11.18-.06,16.56-1.05,98.88,83.77,253.82,145.32,339.89,181.93,435.3,179.55,923.32,293.12,1405.71,301.61,81.63,1.44,240.68-5.31,364.02-41.69-143.12,459.4-385.65,1033.36-978.29,1101.05-292.2,33.37-632.05-44.46-877.17-186.16-213.48-123.41-329.56-319.49-359.82-539.42Zm1532.13-1403.41c83.69-142.26,231.49-246.01,303.8-394.99,83.62-172.29,1.52-339.61,29.42-515.7,11.5-72.6,56.18-135.86,121.21-181.46,7.17-5.03,14.54-9.55,22-13.82-15.79,61.88-9.03,132.94,14.46,184.32,43.75,95.67,119.5,177.06,167.63,271.06,54.25,105.95,84.69,226.96,49.41,341.34-70.63,228.95-338.51,223.83-519.7,348.84-94.38,65.12-187.25,165.41-240.01,274.09-3.08-18.51-5.48-37.06-6.14-55.69-3.15-88.69,11.15-178.5,57.93-257.99Zm-1236.31,352.87c323.3-54.63,685.19,16.77,997.67,85.95,33.78,7.48,67.52,15.35,101.21,23.41,12.01,22.52,26.62,43.15,43.86,61.52,7.58,41.24,73.07,41.03,77.58-2.51.94-9.15,2.62-18.15,4.62-27.08,115.35,30.98,229.09,66.67,339.05,109.67,116.38,45.51,240.04,98.32,332.84,176.87,42.3,35.8,100.14,92.24,36.72,132.81-32.18,20.58-72.65,33.21-116.47,40.91-67.8-69.52-174.17-129.84-250.84-161.7-423.95-176.26-934.16-241.75-1399.18-247.16-50.4-.58-126.15-1.43-210.19,2.65-3.08-2.01-6.25-3.92-9.29-5.98-34.42-23.17-125.17-80.43-105.92-128.6,14.11-35.31,115.77-53.57,158.35-60.77Zm-987.08,547.39c-68.88-189.92-49.91-491.08,201.14-575.86,96.82-32.71,195.96,2.88,279.97,46.23,47.92,24.72,92.93,53.55,134.18,86.27,21.63,17.15,41.13,36.74,60.69,56.2-14.33,52.29-28.56,106.32-41.95,161.53-44.96-37.49-100.74-67.01-145.78-81.74-90.64-29.61-190.87-7.79-240.92,68.37-64,97.38-23.4,214.24,45.78,299.39,41.08,50.55,87.92,97.87,133.38,145.38,41.09,42.97,80.92,91.84,129.7,129.43.53,117.44,15.19,232.33,50.54,339.95-62.3-46.66-125.61-91.69-180.84-138.78-177.74-151.52-349.34-325.39-425.89-536.37Zm2845.35,1503.86c-20.51,14.28-42.72,26.66-65.8,37.97-7.65,1.91-15.21,5.37-22.4,10.51-195.99,85.8-465.42,80.32-667.58,73.52-330.93-11.14-662.09-65.86-975.48-159.86-285.65-85.66-579.15-198.96-815.62-366.96-50.67-35.98-106.97-78.97-149.7-128.53-2.24-3.28-4.76-6.2-7.53-8.82-25.76-31.61-45.71-65.83-54.97-102.58-34.49-137,136.35-205.52,259.23-240.44,40.3,34.14,81.43,67.52,122.88,100.54,56.34,44.88,113.06,89.45,170.78,132.95,38.45,28.98,79.46,56.34,114.65,88.29,13.53,15.95,27.84,31.57,43.05,46.8,2.54,3.38,5.27,6.63,7.65,10.15,4.41,6.54,10.52,11.05,17.4,13.78,25.92,23.83,53.97,46.69,84.55,68.38,248.34,176.24,608.02,268.83,924.79,261.7,299.39-6.75,562.17-129.95,749.17-333.56,2.77-3.02,5.3-6.17,8.03-9.2,165.96,97.86,495.32,339.36,256.92,505.36Z" style="fill: #2d2d2d;"/>
  <path d="m1864.05,1004.97c36.82,51.6,59.8,112.54,64.7,173.52,4.09,51.01-12.88,91.06-30.24,134.33-7.81,9.55-15.07,19.38-20.88,29.91-16.99,30.83,11.99,78.98,56.3,64.35,122.67-40.48,230.39-178.7,292.39-276.98,67.24-106.54,102-231.58,68.32-352.12-35.76-127.94-159.58-204.01-221.08-319.01-32.71-61.15-50.28-135.95-42.81-203.4,8.59-77.5,55.46-141.7,91.11-210.83,14.98-29.04-17.92-55.21-47.27-40.54-.93.21-1.84.33-2.78.63-283.89,89.61-523.77,377.93-452.27,649.35,36.72,139.46,161.01,233.81,244.49,350.78Zm-91.44-613.61c38.45-73.11,96.87-132.6,160.9-188.06-37.1,137.87,7.44,294.92,104.17,405.96,47.37,54.38,103.36,105.89,129.54,171.76,30.65,77.14,18.45,162.32-15.65,236.9-26.15,57.23-65.8,110.35-109.7,158.47-.44-18.05-1.84-35.25-3.83-50.61-15.49-119.49-87.85-204.44-169.5-296.98-117.57-133.29-182.41-273.05-95.94-437.45Z" style="fill: #2d2d2d;"/>
  <path d="m367.53,1671.61c-99.02,2.74-181.12,133.26-175.1,211.13,1.72,22.34,34.23,31.4,48.39,11.52,20.9-29.32,30.1-64.24,48.85-94.71,16.91-27.45,48.9-70.95,85.04-81.29,27.97-8,24.5-47.54-7.17-46.66Z" style="fill: #2d2d2d;"/>
  <path d="m196.93,1939.47c-24.54,1.09-38.89,30.31-16.45,45.54,10.97,7.46,28.42,7.4,38.22-2,5.56-5.32,7.77-11.2,7.84-17.28,6-16.32-12.92-28.88-29.61-26.26Z" style="fill: #2d2d2d;"/>
  <path d="m2351.41,3310.85c245.22-145.01,419.55-377.84,518.87-619.68,12.27-29.86-39.71-40.72-53.05-12.86-113.06,235.86-292.13,418.77-497.89,596-20.98,18.08,6.63,51.57,32.06,36.54Z" style="fill: #2d2d2d;"/>
  <path d="m2892.24,2607.38c.96-.38,1.92-.77,2.87-1.15,18.94-7.65,17.57-31.86,2.94-41.81-16-10.85-39.73-4.03-45.29,13.17-.28.86-.56,1.71-.84,2.57-2.98,9.23,1.19,19.68,9.84,25.35,9.45,6.2,20.02,6.11,30.49,1.88Z" style="fill: #2d2d2d;"/>
  <path d="m2953.18,3534.06c-.59,123.11-220.71,154.38-330.07,165.72-33.99,3.52-36.07,49.18,0,48.12,103.34-3.03,211.92-17.08,303.12-63.09,65.82-33.21,121.34-97.37,78.35-162.98-13.72-20.95-51.28-11.68-51.4,12.23Z" style="fill: #2d2d2d;"/>
  <path d="m2926.02,3451.88c-6.58,21,15.3,36.81,37.63,33.09.86-.15,1.72-.29,2.56-.43,20.56-3.43,29.68-31.25,12.95-43.11-.66-.46-1.33-.94-2.01-1.41-8.75-6.2-18.36-9.68-29.77-6.91-10.27,2.48-18.52,9.74-21.35,18.77Z" style="fill: #2d2d2d;"/>
  <path d="m2769.07,1011.91c97.06-97.41,133.39-257.36,108.73-382.85-5.23-26.71-51.59-19.28-52.24,6.22-1.68,65.31-3.22,128.43-23.12,191.96-17.9,57.23-50.14,108.44-76.08,162.81-9.94,20.84,26.62,37.98,42.7,21.86Z" style="fill: #2d2d2d;"/>
  <path d="m2639.53,1242.56c71.6-31.92,137.63-77.34,198.41-123.35,51.7-39.14,106.04-90.21,123.59-149.57,6.2-20.92-24.27-37.69-42-21.49-51.98,47.52-89.96,100.24-150.39,141.34-55.76,37.92-112.6,72.03-160.4,118-19.71,18.94,4.9,46.63,30.78,35.08Z" style="fill: #2d2d2d;"/>
  <path d="m1914.49,722.53c-9.17-31.98-24.22-62.52-33.85-94.49-9.64-32.02-13.98-64.84-22.77-96.97-6.97-25.49-49.55-18.95-50.61,6.01-2.77,65.4,20.16,147.57,61.43,202.43,15.44,20.51,52.94,7.92,45.8-16.98Z" style="fill: #2d2d2d;"/>
</svg>