<?xml version="1.0" encoding="UTF-8"?>
<svg id="Layer_1" data-name="Layer 1" xmlns="http://www.w3.org/2000/svg" viewBox="0 0 3500 3969">
  <g>
    <path d="m911.03,1759.11c-162.15,11.6-325.81,36.25-485.9,61.73-19.47,3.1-15.23,33.16,4.72,31.29,161.67-15.21,326.67-32.04,485.99-61.1,19.77-3.61,15.62-33.38-4.81-31.92Z" style="fill: #2d2d2d;"/>
    <path d="m1370.95,324.38c.35.03.7.06,1.05.1,11.34,1.06,21.9-8,24.95-17.06.09-.27.18-.54.27-.8,5.72-17.02-12.93-32.12-31.18-28-2.49.52-4.86,1.37-7.1,2.55,6-2.34,5.47-2.15-1.57.54-5.52,2.9-9.78,7.91-11.1,13.56-3.68,15.75,7.55,27.5,24.68,29.1Z" style="fill: #2d2d2d;"/>
    <path d="m1584.25,2072.07c15.46-70.59,15.31-155.92-6.84-225.47-6.51-20.45-41.04-16.44-41.28,5.02-.8,70.71,6.02,145.68,13.17,216.2,1.69,16.6,30.78,23.25,34.94,4.25Z" style="fill: #2d2d2d;"/>
    <path d="m1538.45,2296.28c-16.52,5.7-16.34,32.74,4.59,30.48,83.2-8.97,191.5-49.52,245.22-109.22,11.93-13.25-2.63-32.41-20.68-24.08-36.49,16.84-68.36,40.99-105.04,58.05-39.88,18.54-82.34,30.38-124.09,44.78Z" style="fill: #2d2d2d;"/>
    <path d="m1810.18,2180.36c2.78-.17,5.59-.43,8.25-1.2,6.09-1.77,13.2-6.47,14.14-12.7.08-.54.17-1.08.24-1.63,2.04-13.46-7.98-23.35-23.39-21.01-.59.09-1.18.18-1.76.27-6.79,1.04-12.36,7.07-14.14,12.7-.77,2.43-1.14,4.98-1.23,7.5-.28,8.26,8.44,16.65,17.89,16.07Z" style="fill: #2d2d2d;"/>
    <path d="m2573.24,1358.79c1.04-36.99,2.12-73.85,1.78-110.88-2.47-276.89-16.37-554.24-34.12-830.65-3.17-49.28-6.52-98.56-11.13-147.76-.35-3.67-1.24-7-2.4-10.14-5.54-45.2-16.25-91.53-47.35-127.13-89.87-115.04-229.77-141.81-383.05-129.5-110.11,8.85-220.11,19.13-330.04,29.56-279.89,26.56-559.59,54.96-838.91,86.07-220.79,24.59-441.78,50.93-660.91,85.65-132.33,20.96-222.91,89.6-237.82,213.54C8.15,593.31,5.39,772.05,1.96,948.65c-4.15,213.55-2.49,427.31,12.42,640.54,5.64,80.63,2.72,176.67,47.33,249.52,35.77,58.41,109.48,111.18,182.9,123.46,2.59.43,5.02.5,7.47.58,80.9,19.62,189.82-2.79,261.41-10.78,185.43-20.72,370.55-45.52,555.31-73.12-.14,13.82-.4,27.62-.72,41.42-125.64,51.27-263.82,142.29-258.44,278.67,5.5,139.66,177.54,211.42,307.82,238.77,166.59,34.98,342.9,22.11,504.63-26.09,127.55-38.01,283.95-105.08,331.85-227.87,59.8-153.33-105.73-257.66-247.55-299.12-4.1-36.18-7.59-72.41-10.79-108.63,196.15-34.48,391.85-70.46,587.02-106.47,112.31-20.72,246.49-38.99,282.82-153.84,16.24-51.34,6.31-104.52,7.79-156.88Zm-874.96,789.52c38.99-47.85,32.05-99.77,22.9-154.99-1.04-6.27-1.83-12.59-2.8-18.87,114.39,44.15,218.93,135.42,109.19,241.62-98.58,95.41-264.99,138.33-404.04,155.48-150.38,18.54-350.15,5.84-470.17-87.75-128.23-99.99-2.21-214.22,111.51-272.47-.47,9.85-.9,19.7-1.46,29.56-2.45,43.24-2.97,88.25,23.14,126.51,62.55,91.65,215.91,106.9,323.22,97.69,102.71-8.81,224.34-38.02,288.53-116.78Zm-540.9-282.98c150.53-23.21,300.82-48.12,450.84-74.09,10.79,86.69,29.34,174.63,31.95,260.66,2.87,94.39-149.16,125.25-230.42,132.71-77.3,7.1-235.05,4.81-256.38-82.84-8.67-35.63,1.03-77.15,2.76-113,1.97-41.12,2.65-82.3,1.26-123.44Zm1237.15-299.6c-89.77,28.04-191.36,37.8-284.3,54.48-132.72,23.82-265.56,47.04-398.51,69.79-303.39,51.91-607.28,102.07-912.33,145.52-118.88,16.93-238.02,33.34-357.74,44.73-42.48,4.04-85.22,7.86-127.96,8.52-59.48.93-70.11-11-78.97-47.69-17.56-72.73-19.47-149.75-23.72-223.77-6.32-110.03-9.02-220.23-10.14-330.38-2.32-226.74-.48-454.65,19.09-680.82,4.24-49.08,8.33-139.01,26.25-171.37,29.34-53.01,95.1-69.64,154.72-79.19,67.44-10.81,135.43-19.41,203.01-29.63,285.16-43.12,573.83-70.38,860.97-100.29,160.49-16.72,321.05-32.84,481.72-48.14,64.2-6.11,128.42-12.09,192.67-17.78,68.31-6.06,141.5-17.7,209.74-7.29,66.2,10.11,85.16,54.9,92.73,108.85-.31,2.59-.42,5.31-.14,8.24,22.95,244.91,30.94,491.53,39.33,737.11,3.56,104.33,8.09,209.03,5.76,313.43-2.06,91.98,28.88,207.87-92.16,245.69Z" style="fill: #2d2d2d;"/>
    <path d="m2353.95,437.04c-.42-4.14-1.56-7.82-3.01-11.28-16-97.42-79.59-144.65-193.23-144.57-117.14.09-237.05,19.27-353.28,31.15-270.71,27.66-541.23,57.1-811.24,89.81-97.77,11.84-195.69,23.55-292.9,38.77-105.53,16.52-247.4,14.69-316.53,101.88-32.93,41.55-35.34,99.51-41.42,148.61-11.03,89.2-15.58,179.11-18.85,268.77-6.67,182.54-11.66,369.06,10.47,550.95,6.2,50.9,9.44,109.12,62.76,139.38,64.15,36.41,175.63,12.48,247.71,4.97,471.73-49.16,940.91-129.05,1407.55-207.28,93.44-15.67,220.11-20.14,287.87-86.37,59.21-57.89,48.01-151.03,48.48-224.18,1.51-232.85-11.1-468.72-34.38-700.61ZM442.1,1449.11c-.81,21.59-34.15,20.65-36.6,0-15.28-129.03-10.35-261.4-6.94-390.95,3.25-123.51,5.17-249.58,24.24-372.03,3.03-19.46,37.67-14.13,37.36,4.54-2.12,126.31-15.48,252.56-18.18,378.99-2.7,126.4,4.89,253.17.13,379.45ZM2105.43,386.53c-23.95,1.81-23.45-27.54-5.17-34.27,46.85-17.26,110.57-17.18,146.27,18.96,32.31,32.69,41.61,83.57,35.27,125.41-2.01,13.27-26.57,15.72-32.42,3.81-13.78-28.05-17.08-61.67-34.32-88.01-23.23-35.51-70.63-28.85-109.63-25.9Zm163.8,207.2c-12.51.51-23.17-9.92-23.17-20.81,0-3.14.54-6.28,1.28-9.35,4.67-19.46,39.13-19.45,43.8,0,.74,3.07,1.27,6.21,1.27,9.35,0,11.66-10.62,20.3-23.18,20.81Z" style="fill: #2d2d2d;"/>
    <path d="m2356.18,187.94c-25.75-10.85-61.44-14.8-87.57-3.79-15.19,6.4-9.02,25.45,4.31,29.62,19.58,6.13,41.21,1.59,60.8,8.79,16.86,6.2,24.09,18.81,35.5,30.46,11.53,11.77,28.79,1.02,30.63-11.4,3.59-24.19-21.51-44.35-43.67-53.69Z" style="fill: #2d2d2d;"/>
    <path d="m2257.71,1461.12c-47.86-17.35-96.26,39.42-71.75,77.66,10.8,16.85,34.75,26.44,55.52,20.94,42.03-11.13,64.15-81.23,16.23-98.61Z" style="fill: #2d2d2d;"/>
  </g>
  <path d="m3441.81,3167.39c16.73-84.18-63-195.14-102.34-254.89-78.03-118.76-161.68-233.11-249.25-342.9-57.77-72.41-123.12-169.54-201.67-215.16-75.15-43.71-176.45-13.24-256.7-.15-92.15,15.01-184.03,31.94-275.78,49.15-494.58,92.86-987.98,195.14-1479.81,304.49-86,19.13-241.41,33.26-332.9,98.31-4.84,2.06-9.8,5.15-14.38,9.71-2.88,2.8-5.49,5.74-8.1,8.68-22.87,21.49-39.34,47.68-46.4,79.76-42.22,118.03-13.07,276.82,28.23,385.43,35.68,93.89,94.63,176.31,145.21,260.34,51.76,85.8,104.3,171.01,160.63,253.13,34.51,50.33,67.31,107.14,118.55,137.6,47.97,28.55,105.08,30.9,158.02,26.2,118.15-10.74,234.74-46.8,350.15-75.79,487.91-122.88,975.56-247.83,1461.25-381.46,94.37-25.9,188.73-52.39,282.32-81.24,114.89-35.32,269.64-94.04,263.5-257.25,0-1.32-.39-2.5-.52-3.83v-.15Zm-2856.24-277.85c32.28-27.23,86-41.21,137.63-50.77,32.81,57.25,65.48,114.64,98.29,171.89-72.93,16.92-145.73,33.85-218.66,50.77-.52,0-1.05.44-1.57.59-20.52-37.97-47.97-89.18-41.69-129.8,6.4-15.75,14.9-30.02,25.88-42.68h.13Zm664.88-162.03c33.2,53.57,66.27,107.14,99.46,160.71-47.84,11.04-95.67,22.22-143.64,33.26-18.56,4.27-37.12,8.68-55.68,12.95-32.54-54.6-65.22-109.34-97.77-163.94,65.87-14.42,131.62-28.7,197.62-42.83v-.15Zm259.57-54.89c33.46,51.8,67.05,103.46,100.38,155.26-68.36,15.75-136.71,31.64-205.07,47.53-32.94-53.27-65.87-106.55-98.81-159.68,67.83-14.42,135.67-28.84,203.5-42.97v-.15Zm252.65-51.8c33.2,49.6,66.53,99.19,99.73,148.79-65.35,15.16-130.7,30.17-196.18,45.18h0c-33.07-51.36-66.27-102.58-99.46-153.79,65.35-13.54,130.7-26.93,196.05-40.18h-.13Zm235.66-47.09c32.54,47.39,65.09,94.78,97.77,142.16-59.08,13.54-118.29,27.23-177.36,40.91-32.81-49.3-65.87-98.31-98.81-147.46,59.47-11.92,119.07-23.69,178.54-35.47l-.13-.15Zm457.33,119.65s.78,1.47,1.31,2.21c38.56,53.72,76.98,107.28,115.54,161-57.77,14.57-115.41,29.14-173.05,43.27-3.14.74-6.4,1.62-9.54,2.35-.26-.44-.52-.88-.78-1.47-38.43-55.33-76.85-110.52-115.28-165.86,60.65-13.83,121.29-27.67,181.94-41.5h-.13Zm194.35-44.3c12.55-2.8,25.09-5.45,37.64-8.24.78,1.47,1.57,2.94,2.61,4.27,37.9,51.07,75.94,102.13,113.84,153.05-58.42,14.42-116.85,29.14-175.27,44-38.69-54.01-77.38-107.87-116.19-161.88,45.75-10.45,91.49-20.9,137.24-31.2h.13Zm487,133.92c39.86,53.72,79.07,108.46,116.32,164.68-130.57,28.7-260.49,62.25-390.28,96.98-40.52-55.92-81.04-111.85-121.55-167.77,18.69-4.41,37.25-9.12,55.94-13.54,113.06-27.08,226.77-51.51,339.56-80.35h0Zm-1959.36,476.82c38.43,65.49,76.98,130.83,115.41,196.32-139.72,36.64-279.57,73.14-419.29,109.79-39.99-66.22-78.55-133.92-115.8-202.5,139.85-34.44,279.83-69.02,419.69-103.61Zm297.35-340.84c37.64,60.04,75.28,119.94,112.93,179.98-66.53,16.34-133.19,32.82-199.71,49.15-36.99-61.07-73.85-122.15-110.84-183.22,65.87-15.31,131.75-30.61,197.62-45.92Zm258.4-59.75c38.3,58.57,76.72,117,115.02,175.57-68.49,16.78-136.98,33.7-205.33,50.63-37.51-59.75-75.02-119.5-112.4-179.25,67.57-15.75,135.28-31.35,202.85-46.95h-.13Zm250.56-57.84c38.69,57.25,77.64,114.35,116.46,171.74-65.48,16.04-131.09,32.08-196.58,48.12-.26-.59-.52-1.18-.91-1.62-37.64-57.84-75.68-115.53-113.45-173.22,64.83-15.01,129.66-29.87,194.62-44.89l-.13-.15Zm463.21,146.87c.92,2.35,2.09,4.56,3.66,6.77,39.34,56.07,78.68,112.14,118.15,168.06-7.84,2.06-15.82,4.12-23.66,6.18-51.5,13.25-102.86,26.78-154.23,40.18-40.52-59.46-81.43-118.62-121.95-178.07,59.34-14.42,118.81-28.7,178.15-43.27l-.13.15Zm239.32-57.98c1.05,3.24,2.48,6.33,4.71,9.42,38.69,53.27,77.25,106.7,115.93,159.97-60.91,16.34-121.68,32.67-182.46,48.86-40.65-57.84-81.3-115.82-121.95-173.66,61.3-14.86,122.6-29.73,183.9-44.59h-.13Zm299.96,186.02c38.17,52.39,76.2,104.78,114.36,157.17-39.6,12.21-79.47,23.99-119.2,35.61-38.43-54.01-76.85-108.17-115.41-162.18,28.1-7.21,56.07-14.42,84.17-21.63,12.02-3.09,24.05-6.03,36.07-8.98Zm-1282.97,53.72c39.73,62.55,79.34,124.94,119.07,187.49-66.79,17.51-133.58,34.88-200.37,52.39-38.95-63.58-77.9-127.3-116.85-190.88,66-16.34,132.14-32.67,198.14-48.86v-.15Zm258.66-63.43c40.26,61.07,80.77,121.85,121.16,182.93-68.62,17.95-137.37,35.76-205.99,53.72-39.47-62.25-79.07-124.5-118.55-186.75,67.83-16.63,135.67-33.26,203.37-49.89Zm665.93,101.69c.65,1.32,1.31,2.5,2.09,3.68,38.3,54.6,76.59,109.2,114.89,163.94-63.78,17.51-127.7,35.03-191.48,52.54-263.89,72.41-528.04,143.19-792.32,213.39-36.47-59.9-72.8-119.65-109.27-179.54,325.19-85.21,650.51-169.98,975.95-253.86l.13-.15Zm181.94-46.8c38.82,54.6,77.64,109.05,116.32,163.65-41.96,12.07-83.91,23.99-126,35.61-38.95-55.48-77.9-111.11-116.85-166.59,42.22-10.89,84.3-21.78,126.52-32.52v-.15Zm-1212.39,314.94c36.47,59.9,72.93,119.79,109.4,179.84-3.14.88-6.27,1.62-9.41,2.5-59.34,15.75-118.55,31.49-177.89,47.09-35.42-60.34-70.97-120.68-106.39-181.01,61.43-16.04,122.86-32.23,184.29-48.27v-.15Zm-238.4,62.4c35.42,60.34,70.84,120.68,106.26,181.01-47.18,12.36-94.37,24.72-141.68,36.5-19.74,5-41.43,11.04-64.17,17.22-34.24-60.63-68.49-121.12-102.73-181.75,67.44-17.66,134.75-35.32,202.2-52.98h.13Zm-256.05,67.11c34.11,60.34,68.23,120.68,102.34,181.01-89.92,19.87-186.51,25.75-246.9-45.62-.52-.88-.78-1.77-1.44-2.8-17.51-26.64-34.64-53.72-51.63-80.94,65.87-17.22,131.75-34.58,197.62-51.8v.15Zm1109.79-560.85c40.65,59.75,81.69,119.06,122.47,178.81-65.61,17.07-131.23,34.14-196.97,51.21-40.13-60.78-80.51-121.41-120.64-182.19,65.09-15.89,130.05-31.94,195.14-47.83h0Zm-762.52,187.34c39.08,63.87,78.16,127.74,117.37,191.61-28.89,7.51-57.77,15.16-86.66,22.66-44.7,11.63-89.27,23.4-133.84,35.03-38.3-65.19-76.72-130.39-115.02-195.58,72.67-17.95,145.47-35.91,218.14-53.86v.15Zm1705.53,24.58c-37.51-51.66-75.15-103.31-112.67-154.82,33.85-8.24,67.7-16.48,101.42-24.87,37.12,49.89,74.11,99.93,111.23,149.82-33.2,10.45-66.66,20.01-99.99,29.87Zm-938.97-469.17c38.95,56.07,77.9,111.99,116.85,168.06-59.21,14.42-118.42,28.99-177.62,43.41-38.56-57.1-77.38-113.91-115.93-171.01,58.82-13.54,117.76-27.08,176.58-40.47h.13Zm-994.78,229.73c37.12,61.22,74.11,122.59,111.23,183.96-73.32,18.1-146.52,36.06-219.84,54.16-36.34-62.55-72.54-125.09-108.88-187.64,72.54-16.78,144.95-33.7,217.49-50.48Zm-272.38,63.28c36.47,62.69,72.8,125.53,109.27,188.23-109.92,27.08-219.71,54.16-329.63,81.24h-.13c-34.51-64.61-67.83-129.8-100.51-195,107.05-24.87,214.09-49.74,321-74.47Zm2402.96,100.81c-5.88,14.72-24.44,22.66-41.96,28.4-36.34-49.01-72.67-97.87-109.01-146.87,28.62-7.21,57.25-14.72,85.74-22.37,10.98,17.37,21.7,35.03,32.15,52.83,11.89,20.16,42.87,63.58,33.07,88.15v-.15Zm-254.48-410.3c-79.07,16.19-158.02,34.14-236.7,53.13-38.56-52.1-77.38-104.05-116.06-156.14,77.25-16.63,154.62-33.11,231.47-51.51,41.96,50.04,81.95,102.28,121.29,154.52h0Zm-208.73-251.07c14.38,14.57,28.49,29.73,42.35,45.03-29.93,5.74-59.73,11.92-89.53,18.1-27.06-36.06-54.37-71.96-81.56-107.87,47.31-3.68,87.83,3.24,128.74,44.59v.15Zm-196.84-35.61c1.96-.29,3.92-.59,5.88-.88,28.36,37.38,56.59,74.91,84.96,112.29-53.07,11.63-106,23.55-158.93,36.06-29.67-40.47-59.47-80.94-89.27-121.41,52.41-9.27,104.82-18.1,157.37-26.05h0Zm-216.97,36.79c30.45,41.5,60.91,82.85,91.36,124.21-58.42,13.83-116.72,27.81-175.01,41.8-31.37-44.15-62.74-88.3-93.97-132.45,59.08-11.48,118.29-22.66,177.62-33.41v-.15Zm-235.92,44.89c31.89,44.89,63.65,89.77,95.54,134.51-25.49,6.03-50.97,11.92-76.46,17.81-35.42,8.09-70.84,16.34-106.39,24.43h0c-32.15-46.8-64.44-93.75-96.59-140.54,31.24-6.18,62.48-12.51,93.71-18.54,30.06-5.89,60.12-11.77,90.32-17.66h-.13Zm-1242.33,256.36c32.68,54.89,65.35,109.64,98.03,164.53-73.06,16.92-146.13,33.85-219.32,50.92-32.15-56.22-64.31-112.58-96.46-168.8,15.81-2.65,30.45-5.15,42.74-7.95,58.29-13.25,116.72-25.75,175.01-38.7Z" style="fill: #2d2d2d;"/>
  <path d="m2446.12,2776.07c10.59,12.51,30.58-.29,26.01-17.07-3.14-11.63-10.98-19.57-20.52-24.58-6.67-3.53-14.38-2.65-18.95,4.27-4.05,6.03-4.71,16.48,1.18,21.78,4.97,4.56,7.97,10.6,12.29,15.6Z" style="fill: #2d2d2d;"/>
  <path d="m2701.25,2732.22c13.33,7.95,27.45-7.95,20.39-22.96-5.49-11.63-15.82-21.34-24.18-30.32-15.16-16.48-37.9,8.98-23.13,26.05,8.1,9.42,16.6,21.04,26.92,27.23h0Z" style="fill: #2d2d2d;"/>
  <path d="m2971.15,2613.31c-5.1-3.83-10.85-6.77-17.12-6.62-10.06.29-20.13,9.42-19.87,21.49.26,9.42,4.44,16.48,11.24,21.78,1.31,1.03,2.61,1.91,3.79,2.8.13.29,2.48,2.65,2.61,2.8,7.84,9.27,18.43,18.25,30.06,10.6,5.36-3.53,10.06-11.18,9.41-18.54-1.44-15.45-9.15-25.9-20.26-34.44l.13.15Z" style="fill: #2d2d2d;"/>
  <path d="m2450.49,2598.14s2.35,2.65,2.61,2.8l2.35,3.53c-1.05-1.62-1.18-1.77-.26-.44,3.92,5.74,7.97,10.15,14.38,11.92,5.49,1.47,12.55.29,16.47-4.86,10.98-14.86,5.62-33.85-7.06-45.03-6.8-6.03-16.47-9.57-24.57-3.53-4.44,3.38-7.58,7.06-9.15,12.95,0,.29,0,.44-.13.74-1.96,7.51,0,16.92,5.23,22.22l.13-.29Z" style="fill: #2d2d2d;"/>
  <path d="m2214.13,2600.35c8.5,9.42,21.96,12.66,30.19.88,13.59-18.98-6.01-43.86-22.35-49.6-14.9-5.3-30.85,15.89-21.17,31.05,3.92,6.18,8.5,12.36,13.33,17.66Z" style="fill: #2d2d2d;"/>
  <path d="m1968.41,2633.91c8.23,8.39,17.51,20.31,29.67,18.98,9.93-1.03,16.08-7.95,17.12-19.28,1.44-16.04-12.42-26.93-22.35-35.32-5.49-4.56-14.77-3.97-20.26,0-4.57,3.24-7.19,6.92-8.89,12.51,0,.29-.26.59-.26,1.03-2.22,7.21.26,16.92,5.23,22.07h-.26Z" style="fill: #2d2d2d;"/>
  <path d="m1741.9,2687.77c7.45,7.36,18.17,8.98,26.27,1.77,7.06-6.33,11.24-20.01,5.1-29.14-4.71-7.06-9.93-14.86-16.99-18.84-7.06-3.97-15.03-3.97-21.44,1.77-5.49,4.86-9.8,14.86-6.93,22.81,3.14,8.54,7.71,15.6,13.85,21.63h.13Z" style="fill: #2d2d2d;"/>
  <path d="m1468.34,2725.59c4.84,10.3,16.08,22.66,26.66,24.28,11.11,1.77,20.91-4.86,21.44-18.4.65-17.37-13.07-31.94-26.4-37.67-7.06-2.94-15.95,1.47-20.13,7.8-4.71,7.21-5.23,16.04-1.44,23.99h-.13Z" style="fill: #2d2d2d;"/>
  <path d="m1226.93,2795.65c-2.09-2.65,1.7,2.65,1.83,2.65,3.79,5.74,7.97,10.89,14.38,12.8,6.14,1.91,13.46.15,17.91-5.15,17.78-21.19-9.54-61.07-32.28-53.42-7.06,2.35-13.85,10.6-13.2,19.43.65,7.95,3.01,13.69,7.84,19.43,1.18,1.47,2.48,2.65,3.53,4.12v.15Z" style="fill: #2d2d2d;"/>
  <path d="m968.53,2847.74c1.7,2.06,1.96,2.35.78.74,5.88,7.95,9.54,13.54,18.43,17.66,6.54,3.09,16.86-1.91,19.87-9.12,6.67-16.04.91-33.55-11.11-44.3-5.49-5-13.07-9.27-20.26-6.03-6.4,2.8-12.68,7.06-14.38,15.45-1.31,6.62-1.31,12.95,1.96,18.98,1.44,2.35,3.01,4.56,4.71,6.48v.15Z" style="fill: #2d2d2d;"/>
  <path d="m719.28,2934.28c8.1.15,14.38-6.33,16.86-14.42,4.31-14.13-5.36-29.58-14.25-38.56-7.71-7.8-18.69-9.12-27.19-1.77-7.32,6.48-11.5,20.75-5.36,30.02,7.45,11.33,16.08,24.58,29.8,24.87l.13-.15Z" style="fill: #2d2d2d;"/>
  <path d="m2662.22,2568.12c4.71,4.56,8.76,9.42,12.94,14.57,8.36,10.3,23.13,13.39,31.63,1.47,13.46-18.98-5.75-42.24-20.26-51.51-8.63-5.59-19.87-3.09-25.88,5.74-5.62,8.39-6.14,22.22,1.57,29.58v.15Z" style="fill: #2d2d2d;"/>
  <path d="m2646.88,2947.67c4.05,6.03,8.63,12.07,13.59,17.22,8.63,8.98,21.96,12.8,30.32.88,13.33-18.98-6.27-43.86-22.74-49.15-7.19-2.21-15.29.88-19.74,7.65-4.05,6.18-6.01,16.78-1.44,23.55v-.15Z" style="fill: #2d2d2d;"/>
  <path d="m2415.8,3007.12c8.36,7.95,18.17,20.16,30.06,18.4,9.67-1.32,16.34-7.8,17.12-19.28,1.05-16.19-12.42-26.64-22.87-34.73-5.49-4.27-14.77-4.12-20.26,0-4.44,3.38-7.32,6.77-9.02,12.66,0,.29-.13.59-.26.88-2.09,7.06,0,17.07,5.23,22.07h0Z" style="fill: #2d2d2d;"/>
  <path d="m2178.71,3053.19c2.35,6.03,7.71,11.92,12.29,16.04,8.36,7.65,20.13,9.27,28.36,0,8.36-9.42,6.8-22.37,0-31.94-3.79-5.3-8.76-11.18-14.25-13.98-18.17-9.27-34.37,9.42-26.4,29.73v.15Z" style="fill: #2d2d2d;"/>
  <path d="m1918.87,3116.76c6.4,12.8,18.56,22.96,31.63,24.43,9.15,1.03,16.86-9.57,16.99-19.13.13-16.19-12.29-31.49-26.79-37.09-16.34-6.33-29.54,16.19-21.7,31.79h-.13Z" style="fill: #2d2d2d;"/>
  <path d="m1675.76,3191.52c1.18,1.32,2.48,2.65,3.66,3.97,1.44,1.91,1.83,2.35,1.05,1.18-1.44-2.06-.39-.74,2.88,4.12,7.06,10.01,21.57,15.6,30.58,4.86,17.51-20.9-10.19-61.22-32.81-52.98-6.67,2.5-14.12,10.6-13.2,19.43.91,7.8,2.88,13.69,7.84,19.28v.15Z" style="fill: #2d2d2d;"/>
  <path d="m1428.87,3265.25s-.26-.15-.39-.29q.52.59.39.29Z" style="fill: #2d2d2d;"/>
  <path d="m1421.02,3254.95c1.31,1.62,2.61,3.24,3.92,4.71-3.4-4.12,3.27,4.41,3.92,5.45,3.79,4.27,8.23,7.8,13.33,9.71,6.93,2.5,16.6-1.62,19.87-9.12,8.1-18.84-2.09-36.94-15.95-47.68-5.75-4.41-15.29-4.27-21.04,0-4.71,3.53-7.45,7.21-9.28,13.25,0,.29-.13.59-.26.74-2.48,7.95.52,16.92,5.36,22.81l.13.15Z" style="fill: #2d2d2d;"/>
  <path d="m1148.64,3333.1c6.8,9.57,15.55,19.87,27.06,19.72,7.84,0,14.64-6.03,16.86-14.42,3.92-14.28-5.49-29.29-14.77-38.12-8.23-7.8-21.17-9.71-29.15,0-8.23,10.15-7.19,22.66,0,32.97v-.15Z" style="fill: #2d2d2d;"/>
  <path d="m3112.05,2866.58c8.5,10.01,23.26,13.54,31.76,1.32,13.46-19.13-6.01-42.09-20.78-50.92-8.76-5.3-19.74-3.38-25.88,5.74-5.36,8.09-6.27,22.52,1.57,29.58,4.84,4.41,9.02,9.12,13.33,14.13v.15Z" style="fill: #2d2d2d;"/>
  <path d="m2830.31,2552.52c3.92,2.65,7.58,5.15,12.02,6.48,14.38,4.42,24.83-16.04,14.51-27.96-3.27-3.68-6.93-6.03-10.98-8.68-17.25-11.18-32.81,18.69-15.55,30.02v.15Z" style="fill: #2d2d2d;"/>
  <path d="m2183.93,2819.63c8.23,8.24,17.51,20.31,29.67,18.98,9.93-1.18,16.21-7.95,17.12-19.28,1.31-16.04-12.42-26.93-22.48-35.32-5.49-4.56-14.77-3.97-20.26,0-4.44,3.24-7.19,6.92-8.89,12.51,0,.29-.26.59-.26,1.03-2.22,7.21.13,17.07,5.23,22.07h-.13Z" style="fill: #2d2d2d;"/>
  <path d="m1957.56,2874.38c7.45,7.36,18.17,9.12,26.27,1.77,7.06-6.33,11.24-20.01,5.1-29.14-4.71-6.92-9.93-14.86-16.99-18.84-7.06-3.83-15.03-3.97-21.44,1.77-5.49,4.86-9.8,14.86-6.93,22.81,3.14,8.54,7.71,15.6,13.99,21.63Z" style="fill: #2d2d2d;"/>
  <path d="m1684.13,2913.23c4.84,10.3,16.08,22.66,26.66,24.28,11.11,1.77,20.91-4.71,21.44-18.4.65-17.37-13.07-31.94-26.4-37.53-7.06-2.94-15.95,1.47-20.13,7.8-4.71,7.06-5.23,16.04-1.57,23.99v-.15Z" style="fill: #2d2d2d;"/>
  <path d="m1439.45,2979.9c1.18,1.47,2.48,2.65,3.53,4.12-2.09-2.65,1.7,2.5,1.83,2.65,3.79,5.74,7.97,10.89,14.38,12.8,6.14,1.91,13.46.15,17.91-5.15,17.78-21.04-9.67-61.07-32.41-53.42-6.93,2.35-13.85,10.6-13.2,19.43.65,7.95,3.01,13.69,7.84,19.43l.13.15Z" style="fill: #2d2d2d;"/>
  <path d="m1180.01,3030.67c1.44,2.35,3.01,4.56,4.71,6.48,1.7,2.21,1.96,2.35.78.74,6.01,7.95,9.54,13.54,18.56,17.66,6.54,3.09,16.86-1.91,19.87-9.12,6.54-16.04.91-33.55-11.11-44.3-5.49-4.86-13.07-9.27-20.26-6.03-6.4,2.8-12.81,7.06-14.38,15.45-1.31,6.62-1.31,12.95,1.96,18.98l-.13.15Z" style="fill: #2d2d2d;"/>
  <path d="m935.73,3124.56c7.97,0,14.38-6.33,16.86-14.42,4.18-14.13-5.36-29.43-14.38-38.56-7.71-7.8-18.69-9.12-27.06-1.77-7.32,6.48-11.5,20.75-5.36,30.02,7.58,11.33,16.21,24.58,29.93,24.87v-.15Z" style="fill: #2d2d2d;"/>
  <path d="m1078.19,3644.65c8.36,7.36,19.74,9.12,27.84,0,8.23-9.27,6.67-22.07,0-31.35-2.09-2.94-4.57-5.3-7.06-7.8-7.84-8.09-20.13-8.83-27.84,0-7.84,8.83-7.32,22.52,0,31.35,2.22,2.8,4.44,5.45,7.06,7.8Z" style="fill: #2d2d2d;"/>
  <path d="m1319.21,3557.97c1.05,3.83,3.01,7.21,5.75,9.71,4.57,8.98,11.24,15.45,21.96,16.34,6.14.44,11.89-4.12,15.03-9.71,7.19-12.51,2.22-27.23-4.71-38.26-7.45-11.77-22.48-16.19-32.28-4.71-1.83,2.06-3.53,4.42-4.71,7.06-2.48,5.74-3.66,13.54-1.05,19.57Z" style="fill: #2d2d2d;"/>
  <path d="m1553.56,3492.48c3.53,5.45,7.45,9.27,11.63,13.98,3.53,3.97,6.8,6.77,10.72,8.68.39.29.91.44,1.31.74.26.15.65.15.91.29.52.15,1.18.44,1.7.59,1.83.59,3.53,1.03,5.23,1.18h.13c9.8.59,18.17-6.77,18.95-19.57-.39,4.42-.13,3.24.52-3.83,0-2.8-.52-5.59-1.31-8.09-1.57-5.45-4.44-10.01-7.84-14.13-4.97-6.03-11.63-11.92-19.08-13.25-8.23-1.62-16.08.29-21.3,8.24-4.44,6.77-6.4,17.95-1.57,25.46v-.29Z" style="fill: #2d2d2d;"/>
  <path d="m2763.08,3178.57c1.57,3.97,4.57,6.92,7.32,9.86.92.88,1.7,2.21,2.74,2.94.13.15.26.15.39.29,0,.15.13.29.39.59,6.8,10.3,19.08,16.48,29.67,8.83,10.06-7.36,13.59-21.49,7.84-33.41-6.93-14.28-21.7-25.9-36.47-21.34-13.2,3.97-16.86,19.72-11.76,32.38l-.13-.15Z" style="fill: #2d2d2d;"/>
  <path d="m2956.52,3140.75s1.05.74,1.57,1.18c6.27,8.54,15.42,12.95,25.23,8.24,8.76-4.12,16.21-17.07,12.16-27.96-4.05-11.33-11.5-21.93-23-24.28-10.33-2.06-20.39,2.21-24.57,13.54-4.05,10.89-.39,23.11,8.5,29.29h.13Z" style="fill: #2d2d2d;"/>
  <path d="m3133.09,3064.22c-18.04-7.51-31.11,21.34-18.3,35.32,4.57,5,9.28,10.01,13.99,14.86,5.1,5.3,12.68,8.39,19.61,5.89,4.84-1.77,9.8-5,12.02-10.45,4.18-10.15,3.01-18.98-3.14-27.52-6.4-8.83-14.9-14.28-24.18-18.25v.15Z" style="fill: #2d2d2d;"/>
  <path d="m3296.99,3021.84c-5.36-7.21-16.34-7.95-23.26-3.38-6.8,4.41-11.89,15.75-8.76,24.43,2.22,6.33,4.18,12.36,7.58,17.95,6.14,10.15,17.91,14.72,27.71,8.24,9.8-6.48,12.42-20.31,7.32-31.2-2.88-6.03-6.67-10.89-10.46-16.04h-.13Z" style="fill: #2d2d2d;"/>
  <path d="m3439.36,1984.75c-77.9-82.42-217.67-147.97-344.85-157.47-143.13-10.75-242.26,65-254.75,179.99-12.58,115.63,94.43,188.71,196.15,252.21,108.45,64.76,261.86,88.55,374.24,16.56,114.69-73.4,114.12-201.27,29.2-291.23v-.08Zm-409.11-103.7c64.84-9.18,131.79,7.77,189.52,31.48-39.58,13.42-79.82,32.5-116.52,55.73-4.32-2.59-8.84-5.18-13.45-7.77,1.06-9.81-4.8-19.94-14.89-26.38-14.31-9.26-33.91-13.82-51.97-14.29-7.11-.16-14.41,1.02-20.46,3.53-17.87-4.71-35.83-7.22-53.5-6.59,19.98-18.05,46.78-30.85,81.27-35.72Zm-125.55,123.71c2.59-18.6,8.07-36.27,16.62-52.28,24.69-4.55,47.64-3.38,69.64,1.65.86,2.51,2.4,5.1,4.9,7.46,10.66,9.81,27.38,14.99,42.27,18.92,7.68,2.04,16.23,3.14,24.21,2.35,3.55,1.96,7.11,3.92,10.66,5.97-55.71,41.29-98.94,92.63-112,147.97-38.52-36.11-63.97-78.42-56.39-132.03h.1Zm524.09,164.3c-55.14,131.8-250.42,110.52-360.41,44.82-20.08-12.56-40.63-25.51-60.23-39.33,11.05-110.92,162.24-201.42,284.43-227.09,91.45,50.79,175.4,127.95,136.21,221.6Z" style="fill: #2d2d2d;"/>
  <path d="m3331.01,2039.86c11.24,14.44,24.21,27.16,32.08,43.17,8.16,16.64,10.76,34.77,21.23,50.55,7.3,10.99,24.3,4.4,25.94-5.73,5.67-34.3-21.9-87.13-61.38-102.67-11.05-4.32-25.46,4.95-17.96,14.68h.1Z" style="fill: #2d2d2d;"/>
  <path d="m3303.15,1998.41c-18.44,0-18.44,23.39,0,23.39s18.44-23.39,0-23.39Z" style="fill: #2d2d2d;"/>
</svg>