<?xml version="1.0" encoding="UTF-8"?>
<svg xmlns="http://www.w3.org/2000/svg" viewBox="0 0 500 500.82">
  <g id="BACKGROUND">
    <rect y="0" width="500" height="500" style="fill: #fff;"/>
  </g>
  <g id="OBJECTS">
    <g>
      <path d="m18.33,482.99S2.21,486.12.06,444.36c-2.15-41.76,53.19-85.6,42.44-177.98C31.76,174,32.43,7.65,210.65.19c124.64-5.22,163.85,98.13,169.76,187.38,5.91,89.25-18.8,87.17,18.8,136.75,37.61,49.58,98.31,123.18,100.46,150.32,2.15,27.14-39.25,23.78-39.25,23.78,0,0,2.61-105.11-51.54-105.72-46.2-.52-149.82-63.35-208.98-31.84-105.83,56.37-164.39-27.14-181.58,122.14Z"/>
      <g>
        <path d="m308.56,362.92s37.1,77.2-100.2,76.41c-80.76-.46-52.02-69.87-52.02-69.87l152.22-6.54Z" style="opacity: .1;"/>
        <path d="m178.25,280.98s5.18,64.83,1.3,94.41c-3.89,29.58-17.6,19.93,37.02,25.14,33.04,3.15,64.51-2.94,81.6-35.9,2.09-4.03,1.35-8.96-1.86-12.22-7.57-7.68-24.81-50.76-35.45-111.07" style="fill: #fff; stroke: #000; stroke-linecap: round; stroke-miterlimit: 10; stroke-width: 1.63px;"/>
        <path d="m265.18,247.83s-30.07,69.64-58.65,59.41c-28.57-10.23-28.29-26.27-28.29-26.27l86.93-33.14Z" style="opacity: .1;"/>
        <path d="m179.54,358.39s-65.77,28.4-119.81,31.78c-7.41.46-14.03,4.65-17.13,11.21-9.78,20.67-28.75,66.42-22.41,98.62" style="fill: none; stroke: #000; stroke-linecap: round; stroke-miterlimit: 10; stroke-width: 1.63px;"/>
        <path d="m300.06,358.39s65.77,28.4,119.81,31.78c7.41.46,14.03,4.65,17.13,11.21,9.78,20.67,28.75,66.42,22.41,98.62" style="fill: none; stroke: #000; stroke-linecap: round; stroke-miterlimit: 10; stroke-width: 1.63px;"/>
        <path d="m305.97,165.57c-23.61,78.2-74.92,108.7-95.53,118.09-5.49,2.5-11.77,2.98-17.62,1.41-74.31-20.02-94.05-84.07-96.28-139.51-2.47-61.22,51.06-110.56,113.98-106.6,1.29.08,2.59.17,3.9.27.77.06,1.53.12,2.29.17,64.11,5.06,107.36,66.21,89.26,126.17Z" style="fill: #fff; stroke: #000; stroke-miterlimit: 10; stroke-width: 1.96px;"/>
        <g>
          <path d="m288.05,191.82s19.99-18.32,29.76,5.5c9.76,23.82-20.84,39.45-40.49,21.32" style="fill: #fff; stroke: #000; stroke-linecap: round; stroke-miterlimit: 10; stroke-width: 1.2px;"/>
          <g>
            <path d="m289.48,208.55s13.5-7.11,18.63-5.87" style="fill: #fff; stroke: #000; stroke-linecap: round; stroke-miterlimit: 10; stroke-width: 1.2px;"/>
            <path d="m298.77,203.84s-.91-6.59-3.48-7.94" style="fill: #fff; stroke: #000; stroke-linecap: round; stroke-miterlimit: 10; stroke-width: 1.2px;"/>
          </g>
          <path d="m311.52,208.69c-1.27,4.69-5.81,8.37-10.79,8.73-3.08.22-6.1-.69-9.14-1.21-1.73-.29-3.55-.45-5.21.11-1.66.56-3.12,1.98-3.19,3.69-.06,1.63,1.1,3.06,2.41,4.09,2.79,2.19,6.44,3.19,10.02,3.19,3.58,0,7.11-.96,10.39-2.36,4.97-2.12,9.57-5.39,12.3-9.94,2.37-3.95,3.95-10.89.45-14.73-5.06-5.55-6.54,5.84-7.24,8.44Z" style="opacity: .1;"/>
        </g>
        <path d="m136.44,197.68c0,7.81,3.56,14.14,7.95,14.14s7.95-6.33,7.95-14.14-3.56-14.14-7.95-14.14-7.95,6.33-7.95,14.14Z"/>
        <path d="m207.37,200.38c0,7.81,3.56,14.14,7.95,14.14s7.95-6.33,7.95-14.14-3.56-14.14-7.95-14.14-7.95,6.33-7.95,14.14Z"/>
        <path d="m220.81,223.31c0,4.87,4.06,8.81,9.07,8.81s9.07-3.95,9.07-8.81-4.06-8.81-9.07-8.81-9.07,3.95-9.07,8.81Z" style="opacity: .1;"/>
        <path d="m172.96,191.83s-5.51,22.4-.5,21.91c5.01-.49,6.01-9.25,6.01-9.25" style="fill: #fff; stroke: #000; stroke-linecap: round; stroke-miterlimit: 10; stroke-width: 1.63px;"/>
        <path d="m168.27,224.52l23.75-4.38c1.77-.33,3.5.72,3.96,2.42,1.71,6.24,3.59,20.25-13.51,21.38-17.24,1.14-17.63-11.11-16.99-16.51.18-1.46,1.29-2.64,2.78-2.91Z"/>
        <path d="m183.87,233.12c-2.87.15-5.65,1.57-7.4,3.79-.22.27-.42.57-.5.91-.13.61.22,1.25.72,1.64.51.39,1.15.56,1.78.69,3.71.75,7.7-.06,10.85-2.08,2.08-1.33,2.67-2.15.3-3.53-1.72-1.01-3.75-1.52-5.76-1.41Z" style="fill: none;"/>
        <path d="m284.7,251.66l-.15.14" style="fill: none;"/>
        <path d="m138.44,174.69c2.79-2.03,7.83-4.33,15.2-2.59l-1.3-8.5s-10.2,4.51-14.72,10.28c-.41.52.27,1.21.81.81Z"/>
        <path d="m221.69,175.32c-2.79-2.03-7.83-4.33-15.2-2.59l1.3-8.5s10.2,4.51,14.72,10.28c.41.52-.27,1.21-.81.81Z"/>
      </g>
      <path d="m176.4,240.93s1.79-4.84,7.78-5.62c5.98-.77,7.97,2.91,7.97,2.91,0,0-8.77,6-15.75,2.71Z" style="fill: #fff;"/>
      <path d="m279.01,340.3c4.36-4.28,11.71-3.94,15.41.89,20.02,26.17,22.6,57.25-11.24,76.04-33.54,18.62-57.59,3.67-63.15-8.34-2.05-4.42-1.04-9.59,2.46-13.04l56.52-55.55Z" style="fill: #fff; stroke: #000; stroke-linecap: round; stroke-miterlimit: 10; stroke-width: 1.63px;"/>
      <path d="m183.26,349.89l33.85,52.19s-16.64,44.85-49.42,12c-34.38-34.45,15.58-64.2,15.58-64.2Z" style="fill: #fff; stroke: #000; stroke-linecap: round; stroke-miterlimit: 10; stroke-width: 1.63px;"/>
      <path d="m236.98,462.11c6.45-25.05-16.94-53.22-16.94-53.22,0,0-21.74,25.56-17.98,51.14" style="fill: none; stroke: #000; stroke-linecap: round; stroke-miterlimit: 10; stroke-width: 1.63px;"/>
      <path d="m206.27,42.11s-59.79,139.84-113.99,107.23C38.07,116.72,126.96,7.55,206.27,42.11Z"/>
      <path d="m170.9,88.92s142.9,199.9,185.34,108.56C398.68,106.14,288.01,3.32,204.74,22.63c-83.27,19.31-33.85,66.29-33.85,66.29Z"/>
      <path d="m282.1,225.67c0,5.19,4.33,9.4,9.67,9.4s9.67-4.21,9.67-9.4-4.33-9.39-9.67-9.39-9.67,4.21-9.67,9.39Z" style="fill: #fff; stroke: #000; stroke-linecap: round; stroke-miterlimit: 10; stroke-width: 1.63px;"/>
      <ellipse cx="124.65" cy="205.61" rx="38.06" ry="36.98" style="fill: none; stroke: #000; stroke-linecap: round; stroke-miterlimit: 10; stroke-width: 1.63px;"/>
      <ellipse cx="227.65" cy="205.61" rx="38.06" ry="36.98" style="fill: none; stroke: #000; stroke-linecap: round; stroke-miterlimit: 10; stroke-width: 1.63px;"/>
      <path d="m162.71,202.31s19.11-5.98,26.88,3.3" style="fill: none; stroke: #000; stroke-linecap: round; stroke-miterlimit: 10; stroke-width: 1.63px;"/>
    </g>
  </g>
</svg>