<?xml version="1.0" encoding="UTF-8"?>
<svg id="Doodle" xmlns="http://www.w3.org/2000/svg" viewBox="0 0 558.2 850.39">
  <path d="m523.06,319.14c-.38-9.81-2.25-19.31-4.9-26.75-5.7-16.04-17.61-38.07-35.57-47.12.29-2.24.45-4.52.3-6.89-2.95-48.4-44.93-91.72-97.34-98.26.04-.26.09-.52.12-.78,4.04-34.36-33.36-60.47-67.04-71.6-3.16-22.42-26.24-39.15-46.42-49.96-26.39-14.13-96.73-35.97-99.48,9.84-.52,8.65,1.54,17.28,1.18,25.93-.7,17.38-12.34,31.63-24.42,44.38-10.29,10.85-21.81,20.43-28.94,33.4-6.17,11.21-8.65,23.16-10.18,35.4-11.61,6-22.39,13.24-31.99,22.86-34.74,34.81-46.11,80.82-26.17,124.23,1.12,2.44,2.82,4.26,4.79,5.62-.95.81-1.93,1.6-2.86,2.43-21.88,19.43-44.34,54.32-37.3,83.41-2.08.97-4,2.43-5.53,4.62-27.76,39.73-.5,70.91,38.87,86.91,13.19,33.53,27.74,66.49,43.72,99.02,11.59,23.6,23.1,48.65,48.7,62.66,9.21,5.04,19.09,8.89,29.41,11.8.1.33.12.63.25.97,12.22,32.21,24,64.74,37.26,96.61,9.21,22.14,18.8,46.02,40.11,61.01,38.22,26.88,95.07,23.99,139.91,15.83,40.55-7.38,89.79-22.84,114.26-55.01,14.47-19.02,12.23-37.22,8.62-58.86-6.32-37.99-12.02-76.06-16.89-114.23,0-.08-.04-.14-.05-.22,6.24-4.08,12.2-8.45,17.78-13.21,23.15-19.75,23.1-44.98,22.67-71.83-.6-37.27-1.9-74.25-6.06-111.36-.06-.54-.22-1.01-.34-1.51,14.06-10.58,25.51-23.44,28.14-39.28,3.62-21.81-12.06-50.12-34.61-60.06Zm-35.4-26.89c6.75,13.32,13.97,35.05,10.01,51.53-21.62,17.95-48.83,30.69-75.16,41.64-40.08,16.66-82.91,29.14-126.09,37.32-33.78,6.39-68.2,10.38-102.71,11.73,26.99-33.88,65.39-53.37,106.86-71.03,42.4-18.06,84.29-38.12,123.62-61.2,14.89-8.74,33.82-19.13,46.12-32.66,6.19,7.28,13.1,14.28,17.35,22.68ZM153.42,128.89c9.95-10.69,21.08-20.51,29.25-32.49,13.74-20.16,13.28-38.57,12.98-61.05-.18-13.68,3.75-14.76,18.88-11.1,16.81,4.06,34.06,10.11,48.65,18.77,15.71,9.32,34.18,23.51,24.1,42.09-6.18,11.39-19.75,18.44-31.58,24.29-32.54,16.09-67.89,27.78-102.4,39.87-5.21,1.83-10.35,3.65-15.4,5.53,3.32-9.31,8.17-18.02,15.52-25.91Zm-33.27,62.05c27.85-16.57,63.49-24.42,94.15-36.04,25.82-9.79,53.63-19.35,75.99-34.94,10.23-7.13,18.99-16.25,24.07-26.72,16.26,6.87,32.75,16.7,39.99,30.67,10.37,20.03-14.47,41.38-29.32,54.21-36.45,31.48-85.25,48.99-130.34,67.86-38.6,16.16-81.26,33.46-116.35,57.25-17.15-41.89-.64-87.02,41.81-112.29Zm-47.35,147.76c22.87-18.42,50.32-31.69,77.32-44.48,48.83-23.14,101.34-40.36,148.54-66.24,25.23-13.83,60.04-36.13,77.09-62.77,31.43,1.27,52.88,17.95,67.2,42.78,8.07,14.01,18.08,32.13,4.87,45.31-22.97,22.93-58.02,38.29-87.43,53.19-33.23,16.83-66.49,33.45-99.08,51.29-34.13,18.68-74.98,41.9-89.11,77.21-5.86.04-11.71,0-17.56-.12-37.35-.77-78.41-3.71-112.28-19.43-20.3-26.09,9.02-59.5,30.44-76.75Zm-43.68,99.4c34.17,15.76,74.14,20.28,111.98,21.95,52.29,2.32,105.52-1.97,156.75-11.6,45.68-8.58,90.48-21.54,133.13-38.63,33.29-13.34,68.36-29.83,93.79-54.16,4.32,9.43,4.62,21.1.94,27.65-6.23,11.06-19.42,19.23-30.64,25.9-22.37,13.3-47.09,23.99-71.82,33.16-50.66,18.78-104.03,30.77-158.06,38.38-56.3,7.92-116.63,11.49-172.87,1.16-27.66-5.08-67.21-17.92-63.2-43.81Zm403.56,338.36c-11.19-7.19-22.7-14.09-34.19-20.92,4.43-6.4,8.85-12.79,13.27-19.15,1.96-2.82,3.9-5.64,5.86-8.46,10.92,5.49,21.81,11.02,32.66,16.62-2.48,4.83-4.97,9.66-7.56,14.45-3.19,5.88-6.57,11.69-10.03,17.47Zm-22.1,37.2c-.32.08-.64.16-.96.25-11.66-8.05-23.53-15.87-35.46-23.63,4.93-6.9,9.8-13.84,14.64-20.78,11.3,7.74,22.73,15.45,34.35,22.7-4.32,7.1-8.56,14.24-12.56,21.46Zm26.22-13.24c1.62.94,3.24,1.86,4.87,2.78-3,1.29-6.05,2.51-9.15,3.64,1.45-2.11,2.87-4.26,4.28-6.42Zm-148.16-8.72c6.41-9.52,13.03-18.95,19.65-28.35,14.83,10.39,29.66,21,44.63,31.46-6.42,9.02-12.76,18.07-18.97,27.19-15.44-9.77-30.53-19.87-45.32-30.3Zm19.47,31.93c-12.06-1.67-23.48-4.92-33.5-10.22,1.9-3.09,3.82-6.18,5.8-9.25,9.05,6.7,18.28,13.21,27.7,19.47Zm-78.53-81.13c-6.5-17.06-13.12-34.08-19.73-51.1,12.75,9.96,25.63,19.8,38.72,29.41-6.06,8.53-12.05,17.24-17.31,26.21-.56-1.53-1.12-3.05-1.68-4.52Zm29.9-13.81c12.38,8.97,24.83,17.83,37.36,26.61-6.64,9.34-13.3,18.75-19.53,28.33-12.27-8.88-24.33-18-36.23-27.35,6.44-8.97,12.33-18.37,18.4-27.59Zm49.22-57.08c10.54,5.85,21.17,11.56,31.88,17.17-4.76,7.52-9.44,15.06-14.13,22.53-12.31-7.66-24.63-15.31-36.98-22.92,4.04-5.17,7.99-10.39,11.66-15.72,2.54-.35,5.07-.7,7.57-1.06Zm96.17,49.92c-1.88,2.75-3.73,5.52-5.63,8.26-4.27,6.19-8.6,12.34-12.97,18.48-7.96-4.75-15.85-9.49-23.51-14.31-7.79-4.9-15.62-9.74-23.43-14.62,5.48-7.49,11.04-15.02,16.54-22.6,16.26,8.36,32.63,16.58,49,24.79Zm-39.5-38.2c5.5-7.98,10.73-16.05,15.44-24.25,10.13,6.44,28.29,11.19,34.07,13.72,5.73,2.5,11.5,5.34,17.3,8.27-5.84,8.76-11.7,17.51-17.61,26.23-16.21-8.35-32.61-16.41-49.2-23.97Zm-46.21,39.45c-1.7,2.64-3.4,5.29-5.13,7.89-3.03,4.53-6.17,9.06-9.36,13.6-12.65-8.75-25.27-17.53-37.87-26.34.37-.53.73-1.06,1.1-1.59,4.45-6.23,9.25-12.33,14.07-18.42,12.36,8.34,24.77,16.61,37.19,24.87Zm-3.01,29.4c3.49-4.97,6.97-9.94,10.39-14.92,1.5-2.18,3.07-4.36,4.61-6.54,6.78,4.48,13.51,9.01,20.32,13.46,8.46,5.52,16.93,11.31,25.47,17.18-5.02,6.98-10.05,13.96-15.07,20.95-15.35-9.93-30.69-19.86-45.72-30.12Zm111.16-38.25c6.01-8.72,11.98-17.46,17.92-26.22,8.69,4.41,17.49,8.67,26.4,12.13-4.54,10.17-9.26,20.27-14.15,30.3-9.98-5.46-20.04-10.87-30.16-16.2Zm54.64.61c2.44,10.36,5.32,21.66,5.91,32.39-5.51-3.07-11.03-6.14-16.58-9.2,3.68-7.74,7.23-15.49,10.67-23.19Zm-5.25-29.87c-7.21-3.7-14.88-6.92-22.48-9.98,5.88-8.31,11.95-16.71,17.35-25.34,1.64,11.78,3.36,23.56,5.14,35.33Zm-36.53-15.71c-.27-.11-.56-.23-.82-.34-9.11-3.87-18.26-7.67-27.52-11.25-1.64-.63-5.82-1.75-10.48-3.05,21.31-5.3,42.39-11.9,61.92-20.56-8.49,11.18-15.62,23.51-23.09,35.21Zm-91.31,7.03c-6.16-2.66-12.35-5.24-18.57-7.73.58-.09,1.18-.19,1.76-.28,8.26-1.34,16.72-2.77,25.29-4.33-2.89,4.06-5.71,8.18-8.47,12.35Zm-71.74,4.8c-2.47-1.52-4.93-3.04-7.4-4.55,3.98-.34,7.94-.73,11.88-1.16-1.52,1.88-3.01,3.79-4.48,5.71Zm-25.35-3.33c6.16,4.2,12.35,8.36,18.52,12.55-4.83,6.73-9.47,13.54-14.14,20.14-.06.08-.11.15-.17.23-16.19-11.31-32.43-22.58-48.78-33.71,14.6,1.39,29.6,1.5,44.56.79Zm-10.94,95.01c9.32,8.11,18.94,15.95,28.78,23.56-2.02,3.42-3.96,6.87-5.8,10.36-10.52-8.58-17.51-20.99-22.99-33.91Zm107.93,51.96c5.48-7.05,10.85-14.17,16.12-21.36,7.78,5.33,15.62,10.58,23.54,15.69-.83.17-1.69.35-2.51.51-11.3,2.21-24.03,4.16-37.15,5.16Zm110.04-29.95c-4.13-3.09-8.35-6.11-12.66-9.07,6.48-10.91,12.52-22.13,18.21-33.49,7.36,3.87,14.67,7.81,21.95,11.79-.82,2.89-1.98,5.67-3.56,8.27-5.5,9-13.95,16.39-23.94,22.5Zm48.64-279.16c.25,26.38,6.39,54.66-18.87,73.28-43.65,32.18-104.14,44.63-158.3,53.73-51.93,8.72-118.67,18.93-168.22-3.47-24.11-10.9-33.35-35.08-43.65-55.95-12.42-25.15-23.52-50.65-34.49-76.28,63.22,13.55,133.74,7.07,196.38-2.28,73.47-10.97,147.01-30.76,212.18-63.83,3.39-1.72,6.93-3.55,10.52-5.48,2.6,26.7,4.2,53.46,4.45,80.28Z" style="fill: #2d2d2d;"/>
  <path d="m383.24,194.45c21.46,13.37,35.4,31.75,47.55,52.11,2.35,3.94,9.92,2.28,9.58-2.34-2.07-27.75-24.81-49.8-52.69-59.26-6.45-2.19-9.47,6.35-4.43,9.49Z" style="fill: #2d2d2d;"/>
  <path d="m322.4,129.15c2.73,3.29,4.34,7.94,7.99,10.49,2.44,1.7,6.37,1.99,8.05-.94,3.42-5.96-.23-12.83-4.43-17.64-4.55-5.22-10.31-8.26-17.65-8.91-4.49-.4-6.75,5.34-3.65,7.94,3.32,2.8,6.96,5.75,9.69,9.05Z" style="fill: #2d2d2d;"/>
  <path d="m228,53.8c12.57,6.37,23.18,14.12,33.51,23.08,3.8,3.29,10.59.03,9.02-4.74-4.96-15.13-22.43-21.27-37-26.88-6.29-2.42-11.86,5.33-5.53,8.54Z" style="fill: #2d2d2d;"/>
  <path d="m475.75,329.92c1.35,4.26,8.49,4.42,9.76,0,3.46-12.04-1.81-22.64-11.19-30.97-4.59-4.07-12.68,1.21-9.09,6.33,5.14,7.34,7.9,16.38,10.52,24.64Z" style="fill: #2d2d2d;"/>
  <path d="m96.32,225.61c-7.19,5.35-9.63,16.81-10.95,24.84-1.53,9.3-.2,17.5,4.63,25.8,2.36,4.04,10.44,2.37,9.91-2.42-.95-8.61-1.69-17.39.45-25.89,1.75-6.96,5.83-13.33,3.74-20.48-.96-3.28-5.18-3.79-7.78-1.85Z" style="fill: #2d2d2d;"/>
  <path d="m61.12,408.98c2,4.86,9.81,4.19,10.13-1.24.41-7.14.27-14.38,2.09-21.39,1.72-6.59,6.24-12.43,7.38-19.04.61-3.55-3.33-7.49-7.36-5.11-14.52,8.6-17.88,33.09-12.23,46.78Z" style="fill: #2d2d2d;"/>
  <path d="m90.35,353.4c2.19-.47,3.96-2.25,5.21-3.86,2.75-3.54-1-7.82-5.12-8.04-3.52-.18-6.41,2.25-7.21,5.22-.46,1.7-.12,4.08,1.54,5.24,1.73,1.21,3.33,1.92,5.58,1.44Z" style="fill: #2d2d2d;"/>
  <path d="m134.63,550.48c-2.99-6.66-14.06-4.3-12.19,3.03,5.43,21.21,16.59,43.8,31.69,60.83,4.55,5.13,12.13-1.41,9.45-6.58-9.96-19.16-20.13-37.62-28.95-57.29Z" style="fill: #2d2d2d;"/>
  <path d="m177.91,620.67c-2.57-1.55-6.31-.67-8.07,1.45-1.92,2.31-1.65,5.28.49,7.41,1.99,1.98,4.55,4.19,7.74,3.9,3.06-.28,6.02-2.2,5.88-5.31-.16-3.65-2.92-5.58-6.04-7.45Z" style="fill: #2d2d2d;"/>
</svg>