<?xml version="1.0" encoding="UTF-8"?>
<svg id="Layer_3" data-name="Layer 3" xmlns="http://www.w3.org/2000/svg" viewBox="0 0 2146.82 2198.51">
  <path d="m164.67,2115.8c-1.06-17.94-9.34-34.59-21.92-47.27-15.59-15.71-35.07-23.07-56.68-25.69-10.16-1.23-20.17-1.2-30.33-.14-13.66,1.43-28.25,2.86-37.73,14.09-7.25,8.6-6.29,20.34,3.44,26.68,2.41,1.57,4.94,2.74,7.54,3.61-3.26,2.76-6.35,5.72-9.18,8.82-10.82,11.86-18.11,26.59-19.59,42.67-1.43,15.59,4.08,31.47,16.32,41.52,13,10.66,30.18,16.78,46.85,18.12,29.5,2.37,61.53-9.85,81.13-32.21,12.08-13.78,21.26-31.4,20.15-50.21Zm-39.73,11.9c-.15.54-.26.95-.36,1.27-.78,1.9-1.84,3.72-2.87,5.5-.99,1.7-2.1,3.3-3.17,4.94-.11.17-.42.57-.69.91-1.52,1.81-3.1,3.57-4.79,5.23-1.59,1.57-3.26,3.07-4.98,4.5-.4.29-1.59,1.18-1.96,1.44-1.43.98-2.88,1.92-4.37,2.81-2.24,1.34-4.56,2.48-6.86,3.69-.33.17-.59.31-.82.43-.12.04-.28.1-.49.18-1.35.53-2.71,1.03-4.08,1.49-2.47.83-4.98,1.54-7.52,2.15-1.41.34-2.83.58-4.24.9-.57.13-.89.22-1.09.28-.25.01-.61.04-1.14.09-11.79,1.04-20.05.64-29.77-2.49-8.45-2.72-16.28-8.39-18.73-17.44-3.21-11.86.76-23.58,8.06-33.35,4.38-5.86,9.89-10.71,15.19-15.69,2.12-2,4.26-3.98,6.43-5.92,4.85-.42,9.67-.91,14.29-1.05,3.49-.1,6.98-.08,10.47.11,1.93.1,3.84.3,5.77.46.29.02.51.04.67.04.36.09.81.2,1.36.33,3.33.78,6.64,1.46,9.9,2.51,1.45.47,2.88,1.01,4.32,1.51.33.11.58.19.78.25.21.13.45.28.78.47,2.42,1.4,4.9,2.64,7.24,4.19.48.32,1.68,1.27,2.1,1.58.55.48,1.11.95,1.65,1.45.9.83,1.77,1.7,2.62,2.58.23.24,2.35,2.79,2.41,2.73,1.41,2.03,2.62,4.17,3.78,6.36.04.08.07.14.11.22.43,1.38.8,2.75,1.13,4.15-.41-1.42.2,3.37.26,4.63.02.38.03.68.05.93-.04.15-.09.34-.16.65-.34,1.69-.84,3.32-1.29,4.98Z" style="fill: #050505;"/>
  <g>
    <path d="m438.64,1711.83s.03,0,.04.01c.3-.09.75-.13,1.31-.14-.47-.07-.97-.06-1.35.13Z" style="fill: #050505;"/>
    <path d="m402.51,1648.31c.22.54.44,1.07.66,1.61.02.04.04.09.05.13-1.02-2.53-1-2.47-.71-1.74Z" style="fill: #050505;"/>
    <path d="m742.43,1677.14s0,0,0,0c.17-.18.55-.69.96-1.19.22-.39.46-.77.69-1.15-1.19.56-1.83,2.16-1.66,2.35Z" style="fill: #050505;"/>
    <g>
      <path d="m1314.55,1316.44c.11-.31.21-.58.28-.77-.15.19-.32.47-.49.78.07,0,.14,0,.22,0Z" style="fill: #050505;"/>
      <g>
        <path d="m2141.15,103.46c-8.26-12.74-22.51-17.11-36.55-20.02-14.3-2.96-28.61-5.86-42.94-8.68-56.49-11.13-113.19-21.18-170.06-30.17-115.29-18.24-231.29-32.11-347.65-41.38-28.07-2.24-56.11-4.11-84.26-2.74-26.9,1.32-54.94,3.29-77.58,21.13-19.35,15.24-33.03,38.75-44.74,60.06-12.92,23.52-23.4,48.56-31.15,74.24-3.69,12.22-7.68,24.63-9.76,37.25-1.73,10.5,2.74,22.5,14.26,25.12.68.16,1.38.27,2.09.35,1.46,2.73,3.63,5.02,6.6,6.36,13.25,5.99,26.56,12.45,40.13,17.57,6.06,2.29,12.1,4.63,18.16,6.91,9.12,3.43,11.09,4.5,19.35,7.18,25.68,8.32,50.99,18.43,77.16,25.11,51.44,13.12,103.6,24.83,156.2,32.23,3.64.51,7.29,1.01,10.93,1.51-36.55,28.85-69.68,62.2-99.79,97.49-51.81,60.71-99.36,127.15-128.04,202.12-14.6,38.15-23.05,79.17-23.51,120.08-.24,21.31,2,42.82,6.41,63.67,2.04,9.64,4.43,19.43,7.93,28.67,2.78,7.35,6.87,13.92,13.84,18,3.57,2.09,7.91,3.3,11.83,4.71,5.02,1.81,10.04,3.61,15.07,5.41,79.25,28.26,159.36,53.99,240.22,77.25,80.45,23.13,161.55,43.75,243.01,62.98,10.37,2.45,20.68,5.13,31.03,7.66,17.84,4.35,36.26-5.6,41.44-23.53,6.52-22.62,11.92-45.58,18.29-68.25,6.48-23.06,13.37-46,20.65-68.82,14.39-45.11,29.58-90.33,47.3-134.26,2.63-6.53.65-17.59-3.05-23.34-4.15-6.44-10.39-12.22-18.1-13.92-52.15-11.51-104.22-23.28-156.26-35.26-51.55-11.87-103-25.11-154.87-35.55-8.5-1.71-17.02-3.36-25.54-5.01,74.05-44.07,145.36-92.51,214.05-144.68,44.28-33.62,87.59-68.46,128.99-105.59,20.5-18.39,38.2-39.08,45.46-66.24,3.55-13.28,5.46-27.1,8.09-40.59,2.84-14.57,5.67-29.13,8.51-43.7,2.84-14.57,5.67-29.13,8.51-43.7,3.11-15.98,7.93-32.82-1.66-47.62Zm-790.58,58.36c-1.13,8.93-1.59,18.65,1.42,27.29.94,2.7,2.15,5.33,3.59,7.85-5.82-1.39-11.78-2.82-18.17-4.41.33-2.2.7-4.4,1.07-6.58,1.15-6.71,2.4-13.45,4.03-20.07,2.89-11.74,6.43-23.33,10.52-34.71,8.1-22.52,18.69-44.29,31.53-64.5,2.67-4.21,5.68-8.42,9.05-12.27-2.32,3.07-4.56,6.2-6.7,9.41-9.49,14.24-17.22,29.61-23.21,45.63-6.27,16.79-10.87,34.59-13.12,52.36Zm124.4,459.71c.05-.13.1-.25.15-.37.1-.22.22-.5.37-.83,1.23-2.76,2.44-5.52,3.71-8.26,4.43-9.6,9.2-19.04,14.25-28.33,9.95-18.3,20.99-35.99,32.72-53.2,5.98-8.77,12.13-17.42,18.42-25.97,2.89-3.93,5.82-7.84,8.76-11.73,1.07-1.42,2.16-2.83,3.24-4.25.99-.75,1.85-2.39,2.61-3.37,14.58-18.61,29.81-36.71,45.86-54.05-13.9,16.94-26.85,34.66-38.74,53.05-23.63,36.55-41.58,76.44-68.66,110.74-9.11,11.55-18.36,22.92-26.14,35.28,1.13-2.92,2.27-5.83,3.45-8.73Zm541.48,99.86c-.68,1.64-1.37,3.28-2.04,4.92-4.32,10.54-8.56,21.12-12.71,31.73-8.74,22.33-16.8,44.93-24.58,67.61-5.44,15.86-10.89,31.83-16.14,47.89,1.44-13.97,2.9-27.94,4.4-41.91,1.11-10.28,2.27-20.49,4.9-30.51,2.4-9.16,6.1-17.84,10.15-26.38,4.49-9.48,9.27-18.81,13.65-28.34,4.17-9.08,8.97-18.09,12.08-27.61,3.43.87,6.86,1.73,10.3,2.6Zm-286.23-70.07c25.74,7,51.77,12.94,77.69,19.22,51.45,12.46,102.91,24.91,154.36,37.37,11.78,2.85,23.55,5.78,35.31,8.73-5.41,8.13-9.65,17.22-14.12,25.87-4.79,9.25-9.48,18.58-14.04,27.95-4.31,8.85-8.31,17.91-10.96,27.41-2.74,9.83-4.25,20-6.04,30.03-6.08,34.11-12.4,68.18-18.63,102.26-127.04-25.72-252.25-61.63-375.67-100.69-29.83-9.44-59.53-19.32-89.13-29.48-.1-.11-.2-.23-.31-.34-.07-.07-.11-.11-.17-.16-.07-.11-.13-.21-.22-.35-.97-1.5-1.97-2.97-2.85-4.53-.44-.77-.85-1.56-1.25-2.36-.18-.37-1.28-3.14-.98-2.22-1.09-3.07-2.08-6.15-2.81-9.35-.46-2.03-.83-4.08-1.26-6.11-.19-.91-.38-1.82-.55-2.73-.06-.34-.38-2.27-.51-2.97-.07-.58-.18-1.43-.2-1.61-.1-.96-.2-1.93-.28-2.89-.19-2.18-.3-4.37-.41-6.56-.23-4.4-.81-8.8-.84-13.21-.06-8.38,1.28-16.99,2.22-25.31,2.35-20.71,6.44-41.41,13.8-60.96,7.34-19.49,19.28-36.28,31.9-52.66,12.94-16.8,24.48-34.16,34.76-52.72,10.07-18.19,19.53-36.7,30.33-54.48,20.36-33.52,44.53-64.76,71.47-93.23,14.76-15.6,30.39-30.38,46.8-44.24,12.56-10.6,25.62-20.51,38.61-30.52,5.48-3.28,11.01-6.47,16.62-9.55,11.34-6.22,18.04-21.92,14-34.41-4.39-13.58-15.42-21.18-29.38-22.37-13.26-1.13-26.51-2.41-39.74-3.85-6.41-.7-12.83-1.44-19.23-2.22-2.8-.34-5.6-.69-8.41-1.04-1.6-.2-3.2-.41-4.8-.62-1.19-.16-9.48-1.14-1.5-.19-8.26-.98-16.69-1.99-24.87-3.38.23.04,5.62.77,2.07.28-1.6-.22-3.2-.44-4.8-.66-3.6-.5-7.2-1.01-10.8-1.54-13.19-1.92-26.36-4.01-39.5-6.26-25.87-4.43-51.63-9.48-77.25-15.16-3.15-.7-6.31-1.39-9.45-2.12-1.55-.36-3.14-.82-4.71-1.12-1.72-.23-3.44-.46-5.16-.69-2.03.28-7.5-1.64-9.16-1.97-3.57-.72-7.13-1.45-10.69-2.19-11.43-2.38-22.83-4.89-34.21-7.51-3.17-11.96-26-16.37-35.34-19.42-5.62-1.83-10.19-3.48-14.33-8.81-4.24-5.46-7.93-12.9-9.27-19.67-3.18-16.12,1.97-33.58,7.15-48.76,5.2-15.23,12.22-29.8,20.75-43.44,4.64-7.42,9.7-14.64,15.16-21.47,4.1-5.13,9.02-9.78,13.35-14.79,3.8-.64,7.68-.94,11.57-1.04,11.83-.33,21.42,1.89,34.22,4.06,14.62,2.48,29.46,3.45,44.21,4.89,54.81,5.38,109.73,9.25,164.5,15.32,56.17,6.23,106.84,12.82,161.55,20.99,54.46,8.14,108.76,17.29,162.86,27.52,26.54,5.01,53.03,10.27,79.47,15.77.15,9.2.65,18.4.48,27.62-.1,5.56-.34,11.12-.74,16.67-.2,2.77-.44,5.54-.72,8.3-.11,1.1-.23,2.21-.35,3.31-.12,1.1-.26,2.2-.4,3.3.14-.98.14-.95-.01.11-1.56,11.17-3.68,22.26-6.74,33.12-3.1,11.03-6.44,20.05-10.97,29.21-10.2,20.62-22.12,34.6-37.98,50.68-7.27,7.37-14.45,14.83-22.21,21.69-3.73,3.3-7.14,6.67-11.15,9.65-4.68,3.48-9.41,6.9-14.16,10.28-17.68,12.59-36.26,23.85-53.85,36.59-20,14.48-38.82,30.42-57.31,46.77-18.48,16.33-36.69,32.99-55.87,48.52-18.84,15.25-38.85,28.7-59.46,41.42-22.97,14.18-46.4,27.73-68.07,43.9-5.29,3.95-10.5,8.01-15.56,12.24-4.28,3.58-9.05,7.06-11.95,11.93-.06.1-.11.2-.17.31-2.36,1.38-4.72,2.77-7.09,4.14-18.11,10.5-15.44,41.19,6.02,46.03,26.01,5.88,51.61,13.5,77.34,20.49Zm219.13-269.45c-2.47,1.93-4.94,3.86-7.41,5.78-.86.67-1.72,1.33-2.58,2-.36.28-1.65,1.28-2.45,1.89-31.27,24.04-63.14,47.25-95.53,69.73,12.18-10.3,24.22-20.81,36.33-31.33,18.15-15.76,36.58-31.41,56.54-44.86,16.34-11.01,33.21-21.22,50.2-31.18-6.77,5.46-13.55,10.92-20.35,16.33-4.9,3.9-9.82,7.78-14.75,11.65Z" style="fill: #050505;"/>
        <path d="m1477.03,225.26c.78.1,1.55.21,2.33.31.13-.02.25-.05.35-.09-.89-.08-1.79-.15-2.68-.23Z" style="fill: #050505;"/>
        <g>
          <path d="m1259.06,1109.27c-.11,0-.11.17,0,.17s.11-.17,0-.17Z" style="fill: #050505;"/>
          <path d="m1367.68,1084.48c-16.2-18.31-42.73-25.62-65.94-29.56-61.95-10.52-124.73-16.19-187.54-17.64-3.76-.09-7.53-.16-11.29-.21,2.51-2.34,5.05-4.65,7.58-6.98,13.12-12.08,26.24-24.15,39.36-36.23,26.55-24.44,53.11-48.88,79.66-73.32,23.82-21.92,49.73-44.67,56.44-77.98,3.55-17.61,3.09-35.53,3.06-53.39l-.07-53.27-.15-121.76c-.02-13.35-10.67-22.11-23.21-23.21-134.86-11.77-270.82-12.66-405.87-3.57-37.77,2.54-75.48,5.93-113.11,10.03-10.85,1.18-21.46,8.24-22.75,19.59-1.69-5.84-7.3-10.48-13.22-11.18-8.01-.95-14.81,3.68-17.35,11.33-3.56,10.72-7.94,21.61-10.28,32.12-2.44,10.95-5.1,21.87-7.64,32.8-4.93,21.12-9.31,42.11-12.91,63.5-3.59,21.32-6.87,42.68-9.86,64.09-1.73,12.39-3.39,24.79-4.95,37.2-.73,5.82-1.47,11.64-2.14,17.46-.08.64-.14,1.14-.19,1.54-.19,1.38-.45,3.37-.79,5.95-.37,3.33-.67,6.66-1.06,9.99-.78,6.73,3.81,16.45,8.66,20.9,6,5.5,12.74,8.12,20.9,8.66,49.79,3.3,99.95,2.44,149.79.16,30.42-1.39,60.9-3.86,91.27-7.23-11.89,13.21-25.28,25.02-38.99,36.29-31.24,25.71-65.22,49.08-91.17,80.51-16.83,20.38-29.91,42.32-38,67.64-8.51,26.61-10.74,55.57-8.87,83.35,1.97,29.35,7.66,58.42,14.98,86.87,3.41,13.24,7.11,26.41,11.01,39.51,5.03,16.91,13.12,33.04,29.37,41.69,15.18,8.08,32.86,8.43,49.59,10.14,15.95,1.63,31.92,3.17,47.89,4.62,30.69,2.77,61.41,5.2,92.15,7.28,61.95,4.18,123.94,7.89,186,9.95,31.24,1.04,62.5,1.74,93.75,2.11,15.63.19,31.26.3,46.89.29,17.71,0,35.53-3.14,48.07-16.84,11.65-12.73,14.86-28.78,16.13-45.4,1.18-15.51,1.74-31.09,2.6-46.62,1.7-30.87,4.22-61.66,6.68-92.48,2.47-30.85,7.83-63.46-14.49-88.7Zm-637.11-426.21c-.52,19.6-.87,39.21-1.24,58.81-.38,20.01-1.05,39.87-2.6,59.81-.75,9.64-1.49,19.27-2.25,28.91-.75,9.53-.88,19.37-2.33,28.82-.85,5.54-2.95,10.88-3.04,16.55,0,.25.01.49.02.74-5,.04-9.99.08-14.99.12,1.99-33.71,4.82-67.39,8.31-100.97,2.24-21.46,4.1-42.93,6.28-64.39,1.03-10.13,2.21-21.17,3.49-30.67,1.33-9.92,1.42-21.3,1.99-31.98.98,4.66,3.37,9.31,6.75,12.88-.25,7.12-.19,14.29-.38,21.39Zm605.58,481.93c-2.21,29.19-6.08,58.35-9.16,87.47-.18,1.69-.38,3.38-.54,5.07-.28,2.97-.27,3.18-.19,2.6-.54,4.62-1.26,9.25-1.86,13.87-.99,7.6-1.99,15.2-2.98,22.8l-2.82,21.54c-.44,3.38-.88,6.76-1.33,10.14-.24,1.85-.32,2.59-.31,2.72-.15.66-.31,1.31-.42,1.91-.29,1.57-.61,3.13-.99,4.67-.22-5.12-.57-10.25-.64-15.19-.14-9.97-.27-19.95-.41-29.92-.28-20.61-.51-41.23-.74-61.84-.11-9.98-.12-19.95-.5-29.92-.38-10-.21-20.24-3.04-29.94-4.16-14.28-13.58-28.09-28.37-32.57-1.55-.47-2.66,1.99-1.13,2.67,7.9,3.5,12.08,10.1,14.54,18.18,2.39,7.83.62,16.51.1,24.55-1.21,18.66-2.03,37.33-2.78,56.01-.76,18.95-1.53,37.9-2.33,56.85-.4,9.31-.79,18.62-1.19,27.93-.23,5.5-.86,11.24-1.18,16.94-2.78.01-5.57.04-8.35.05-29.57.08-59.13-.15-88.69-.77-118.41-2.46-236.29-10.87-353.88-24.96-3.18-.38-6.53-.48-9.67-1.15-1.03-.24-2.06-.48-2.63-.61-.88-.2-1.74-.46-2.6-.71-.04-.13-.09-.26-.14-.41-.97-2.8-1.78-5.66-2.61-8.5-1.87-6.38-3.71-12.78-5.49-19.18-3.51-12.61-6.82-25.28-9.68-38.06-1.39-6.2-2.68-12.43-3.83-18.68-.54-2.93-1.05-5.86-1.52-8.8-.24-1.47-.47-2.93-.69-4.4-.06-.38-.19-1.01-.35-1.67.06.23.12.48.19.74-1.43-5.45-1.33-11.93-1.71-17.55-.44-6.52-.66-13.06-.61-19.59.05-6.46.37-12.92.99-19.34.1-1.06.57-2.91.49-3.99.52-3.09,1.06-6.17,1.72-9.24,1.2-5.57,2.67-11.08,4.44-16.49.96-2.94,2.1-5.81,3.15-8.73.66-1.41,1.29-2.84,1.98-4.24,4.35-8.89,9.58-17.33,15.46-25.29.12-.16.25-.32.37-.49,1.37-1.63,2.7-3.29,4.08-4.91,3.18-3.71,6.48-7.31,9.87-10.82,6.87-7.11,14.13-13.83,21.59-20.33,14.71-12.81,30.18-24.71,45.4-36.89,30.71-24.56,61.17-51.45,80.38-86.39,5.33-9.7,9.7-20.07,13.17-30.58,5.69-17.21-9.98-40.62-29.27-38.42-49.25,5.63-98.43,9.86-147.91,12.68-23.25,1.32-46.51,2.03-69.77,2.45-.33-1.21-.85-2.43-1.58-3.65-.99-1.66-2.35-2.91-3.89-3.77-.26-1.25-.52-2.51-.76-3.76-.96-4.87-1.23-9.59-1.49-14.55-.53-9.97-1.06-19.94-1.58-29.91-1.09-20.96-2.25-41.8-2.11-62.8.15-20.6.42-41.2.41-61.81,0-9.47,0-18.95,0-28.42,1.84.44,3.78.59,5.8.37,134.62-14.68,270.37-19.04,405.66-13.16,30.11,1.31,60.18,3.2,90.23,5.49.16,29.24.32,58.47.49,87.71l.3,53.27c.1,17.28,1.06,34.84-.77,52.05-.03.26-.05.47-.06.63-.09.35-.2.78-.33,1.3-.56,2.24-.97,4.49-1.61,6.71-.43,1.48-.94,2.93-1.43,4.39-.13.39-.23.71-.31.98-.17.28-.39.65-.67,1.15-.08.15-.17.3-.25.46,2.05-18.3-1.38-36.71-2.2-55.1-.99-22.16-1.74-44.33-2.46-66.51-.83-25.53-1.49-51.01-4-76.43-.27-2.73-4.12-2.8-4.3,0-2.74,43.25-.9,86.71-1.3,130.03-.19,20.53-.63,40.99-3.7,61.34-1.42,9.4-3.97,18.31-8.79,26.54-4.49,7.67-9.9,14.73-15.71,21.44-7.29,8.42-14.59,16.82-21.87,25.25-.49.57-1,1.14-1.49,1.7-19.46,18.07-38.93,36.15-58.39,54.22-14.81,13.75-29.89,27.27-44.45,41.29-15.26,14.7-28.26,35.1-21.28,57.06,2.91,9.17,11.34,16.37,21.28,16.2,21.7-.37,43.38-.14,65.03.68-.58,2.02.21,4.32,3.03,5.18,16.38,4.98,32.75,9.08,49.57,12.32,8.42,1.62,16.83,3.01,25.31,4.25,3.91.57,7.83,1.12,11.72,1.84,4.07.75,8.47,2.18,12.6,1.72,2.91-.32,4.39-4.06,1.56-5.77-3.57-2.15-8.01-2.7-12.02-3.72-3.81-.97-7.57-2.08-11.34-3.18-8.19-2.39-16.37-4.62-24.65-6.63-5.92-1.44-11.83-2.75-17.76-3.95,23.92,1.66,47.79,4.04,71.61,7.13,4.72.61,2.56.34,1.52.2,1.65.22,3.3.46,4.95.69,3.71.52,7.42,1.06,11.13,1.62,7.42,1.11,14.82,2.3,22.22,3.55,10.96,1.85,21.96,3.82,32.5,7.45,1.5.52,7.43,3.18,2.95,1.01,2.38,1.16,4.74,2.24,6.95,3.7.09.06.24.15.4.26-1.2-.7,2.12,1.66,2.38,1.9.83.76,1.63,1.54,2.4,2.36.44.47,1.83,2.55,1.95,2.58.22.4.39.71.43.77.57,1,1.09,2.03,1.58,3.07.53,1.13.35,1.87.13,1.46.27,1,.65,2.07.84,2.8.05.21.09.38.14.55.09,1.33.19,2.66.22,3.99.1,3.73-.08,7.46-.36,11.18Z" style="fill: #050505;"/>
        </g>
      </g>
      <path d="m1335.33,1121.67c-.14-.52-.25-1.01-.28-1.43.06.79.17,1.24.28,1.43Z" style="fill: #050505;"/>
      <g>
        <path d="m999.07,864.19c-.56-4.76-1.42-7.8-3.91-11.88-1.72-2.82-5.42-1.35-5.77,1.56-.47,3.95-.39,7.13-.17,11.11.22,3.92.13,7.85-.23,11.76-.69,7.56-2.46,15.09-4.88,22.28-5.19,15.39-13.84,29.48-23.36,42.54-9.77,13.4-20.87,25.74-32.04,37.96-13.01,14.24-25.95,28.55-39.2,42.58-13.46,14.25-26.69,28.77-40.45,42.73-6.78,6.87-13.88,13.38-20.65,20.23-5.87,5.95-12.28,11.55-17.62,17.99-23.79,28.64-18.3,70.14-11.98,104.05,3.58,19.22,8.96,38.1,16.03,56.32,3.67,9.45,7.7,18.79,12.15,27.9,2.21,4.52,4.53,8.99,6.96,13.4,1.64,2.98,3.16,5.86,5.93,7.98,2.53,1.93,5.55,2.93,8.51,4.08,5.19,2.01,13.19-2.26,13.95-7.92.84-6.25,1.17-10.72-1.88-16.55-2.06-3.94-4.27-7.79-6.28-11.76-3.61-7.13-7.16-14.8-9.88-21.59-6.4-15.94-11.48-32.41-15.2-49.18-3.71-16.75-5.61-31.52-6.48-48.64-.81-16.11.22-30.42,7.82-45.06,3.91-7.54,8.94-13.79,14.26-20.35,6.11-7.53,11.89-15.29,18.19-22.69,12.52-14.71,25.3-29.22,37.95-43.83,23.08-26.64,48.33-51.75,69.01-80.37,10.39-14.37,19.5-29.92,25.02-46.85,2.66-8.17,4.34-16.65,4.67-25.25.16-4.19,0-8.39-.49-12.55Z" style="fill: #050505;"/>
        <path d="m796.45,1526.03c-1.06-12.55-10.24-24.88-24.21-24.21-71.3,3.44-142.6,6.88-213.9,10.32-.96.05-1.93.09-2.89.14,1.22-1.23,2.45-2.44,3.73-3.6.86-.78,1.73-1.54,2.61-2.29.67-.57,1.36-1.13,2.04-1.69,21.13-15.19,44.77-26.42,64.83-43.17,44.68-37.31,52.53-99.39,48.79-154.01-.95-13.84-2.62-27.61-4.46-41.36-2.13-15.84-3.86-32.09-15.28-44.43-13.78-14.88-34.28-14.19-52.96-14.84-17.66-.61-35.32-.92-52.98-.99-39.57-.16-79.12.95-118.61,3.49-39.89,2.56-80.33,8.11-118.97,18.33-4.29,1.14-6.93,3.93-8.09,7.24-.06-2.46-.12-4.91-.19-7.37-.38-14.67-22.53-18.57-26.2-3.55-5.51,22.57-9.6,45.06-13.06,68.03-3.28,21.77-7.8,43.4-6.72,65.51,1.11,22.79,11.12,42.98,28.67,57.66,9.68,8.1,18.92,13.57,30.87,17.76,9.94,3.49,20.6,5.07,31.07,5.85,9.31.7,18.66.13,27.93-.99-4.28,6.98-8.88,13.79-13.36,20.61-16.22,24.69-30.92,50.62-35.17,80.32-9.56,66.71,19.31,130.9,49.93,188.51,8.88,16.7,21.48,29.87,39.74,35.92,15.48,5.12,32.42,3.4,48.36,2.47,34.34-1.99,68.65-4.43,102.96-6.78,34.73-2.38,69.44-4.98,104.14-7.82,28.18-2.3,56.63-5.13,82.16-18.26,14.07-7.23,26.68-18.7,34.54-32.49,10.06-17.65,11.77-38.01,11.55-57.92-.44-38.95-3.6-77.61-6.87-116.4Zm-419.79-146.94c-1.38.26-11.77,2.46-4.25.83-3.09.67-6.55.68-9.7.84-5.39.27-10.69-.03-16.07-.27-.64-.11-1.27-.21-1.91-.34-2.45-.49-4.88-1.08-7.29-1.78-.37-.11-3.26-.97-5.23-1.63-.05-.02-.1-.05-.16-.07-.92-.5-1.87-.94-2.82-1.36,3.97.5,8.1.34,12.3.11,20-1.1,40.04-1.78,60.07-2.04.64,0,1.29-.02,1.94-.03-8.92,2.15-17.96,4.07-26.89,5.75Zm181.5,318.33c-12.77,1.5-25.54,3.08-38.25,5.03-11.44,1.75-23.76,3.44-34.55,7.99-7.45.47-14.92.97-22.38,1.33-.06-.03-.12-.06-.18-.1-3.28-1.76-7.78-4.43-9.4-5.83-6.14-5.3-11.7-11.64-15.86-18.26-11.16-17.76-18.84-38.29-24.65-58.33-6.47-22.31-12.1-45.3-13.11-68.6-.49-11.35.38-22.5,3.42-33.47,3.11-11.23,8.65-21.15,14.61-31.08,14.76-24.62,29.71-49.13,43.4-74.38,1.55-2.86-2.49-5.13-4.3-2.52-15.66,22.54-30.19,45.8-44.85,69-6.54,10.35-13.02,20.65-17.08,32.28-3.91,11.19-5.77,23.18-6.53,34.98-1.58,24.33,3.05,48.6,8.61,72.18,1.38,5.83,2.77,11.68,4.2,17.52-1.6-4.01-3.15-8.05-4.62-12.12-4.9-13.57-9.01-27.48-11.71-41.66-.28-1.46-.54-2.93-.79-4.4-.02-.09-.29-2.02-.48-3.29-.13-1.18-.28-2.53-.29-2.61-.14-1.46-.26-2.93-.37-4.4-.51-7.29-.56-14.61-.03-21.89.1-1.45.27-2.9.38-4.35.02-.24.03-.46.04-.65.05-.21.1-.44.15-.73.81-3.97,1.53-7.92,2.58-11.85,1.06-3.97,2.31-7.88,3.75-11.73.26-.69.56-1.7.91-2.57.34-.55.66-1.12.85-1.52,6.13-12.94,14-24.96,21.83-36.91,15.69-23.95,32.75-49.72,36.98-78.61,1.54-10.53.54-20.08-7.41-28.03-1.6-1.6-3.38-2.97-5.28-4.13,7.58.83,14.95,2.51,21.69,5.76.44,8.77-.44,17.23-3.22,25.72-1.58,4.82,6.19,8.26,8.32,3.51,4.05-9.03,6.42-18.41,6.52-28.34.05-5.24-.41-8.29-5.24-10.87-4.08-2.18-8.48-3.88-12.94-5.1-18.55-5.08-39.12-4.04-58.18-4.28-10.84-.13-21.67-.13-32.5.13-5.25.13-10.5.29-15.75.48-4.79.18-9.91.93-14.68.36-7.93-.95-11.66-8.87-14.55-15.41-3.97-8.96-7.36-18.31-9.73-27.83-4.9-19.68-3.06-39.95,7.34-57.58,3.27-5.55-3.73-10.71-8.46-7.24-.01-2.99-.04-5.99-.09-8.98,1.65,4.33,5.51,7.82,11.18,7.95,70.09,1.57,140.18-4.01,210.31-2.82,17.26.29,34.5.85,51.74,1.68,8.41.4,16.82.87,25.22,1.4,4.2.26,8.4.54,12.61.84,1.48.1,2.96.2,4.44.32.15.06.95.21,1.81.38.25,1.14.65,2.28.92,3.41.72,2.96,1.18,5.97,1.63,8.97.28,1.86.52,3.72.79,5.57.05.35.09.62.12.85.02.14.04.28.06.45,1.71,13.39,3.17,26.8,3.9,40.29.72,13.38.78,26.82-.34,40.19-.21,2.47-.47,4.94-.76,7.41.05-.76-.86,5.27-1.12,6.67-1.19,6.26-2.72,12.46-4.66,18.53-.91,2.83-2,5.59-3,8.39-.04.08-.07.15-.11.23-.51,1.07-1,2.16-1.53,3.22-2.71,5.51-5.96,10.6-9.41,15.65,1.36-2.08-3.06,3.76-4.02,4.82-2.06,2.26-4.23,4.43-6.48,6.51-1.57,1.45-3.2,2.82-4.85,4.17-.1.04-2.39,1.84-2.94,2.23-1.46,1.04-2.95,2.06-4.44,3.06-21.95,14.71-46.64,25.31-65.73,44.08-10.16,9.99-19.78,22.89-22.55,37.13-4.6,23.61,9.52,45.15,34.64,46.01,19.48.66,39.52-1.77,58.99-2.71l59.84-2.89c24.25-1.17,48.49-2.34,72.74-3.51,3.2,11.57,6.19,23.21,7.63,35.15,1.51,12.56,1.02,25.42-.48,37.97-1.26,10.57-3.05,20.63-12.18,27.18-9.2,6.6-19.91,11.69-30.29,16.13-42.03,18-86.84,23.19-131.81,28.47Zm-11.84-171.36s-.05-.27-.05-.67c.07-.26.15-.6.25-1.03.03-.07.04-.12.06-.19.3.96.31,1.7-.26,1.89Zm204.55,97.66c-.07,7.71-.14,15.43-.44,23.13-.11,2.95-.27,5.91-.52,8.85,0,.11-.38,2.68-.51,3.83-.27,1.3-.58,2.84-.66,3.18-.53,2.25-.97,5.53-2.03,7.93-.39.52-.86,1.19-1.14,1.71-.45.83-.96,1.64-1.46,2.44.16-.08.33-.14.51-.17-.16.03-.7.68-1.21,1.32-.01.03-.03.05-.05.08-.54.96-.83,1.22-.92,1.13-1.11,1.22-2.28,2.38-3.5,3.49-.08.07-.17.15-.25.22-2.18,1.15-9.77,5.68-11.94,6.93-1,.37-2,.74-3.01,1.09-3.07,1.05-6.19,1.96-9.33,2.77-5.23,1.34-10.53,2.39-15.86,3.24.08-.01-.18.02-.59.08.53-.04.31.03-2.06.31-.05,0-.11.01-.16.02-.44.07-.76.12-.76.13,0-.02.03-.03.07-.05-2.95.35-5.91.65-8.87.92-17.3,1.58-34.61,2.97-51.93,4.29,21.83-3.24,43.53-7.86,63.94-16.4,11.14-4.66,22.47-10.01,32.19-17.25,10.56-7.87,15.88-18.11,17.98-30.98,2.42-14.83,2.77-29.6,2.43-44.59-.31-13.31-1.67-26.86-4.89-39.84l3.83-.18c1.21,24.11,1.37,48.32,1.16,72.39Z" style="fill: #050505;"/>
      </g>
    </g>
    <path d="m695.73,1695.29c.67-.1,1.61-.24,2.23-.33-.67.05-2.54.26-2.92.41.23-.03.46-.05.69-.08Z" style="fill: #050505;"/>
    <path d="m350.44,1830.4c-4.66-17.08-15.69-31.81-31.08-40.68-11.93-6.88-26.17-11.66-39.3-15.86-13.51-4.32-27.52-8.17-41.77-8.64-6.85-.23-14.96-.27-21.64,1.37-5.81,1.42-11.79,4.99-17.22,7.94-1.14-.99-2.69-1.47-4.47-.93-8.96,2.72-17.77,6.03-26.84,8.35-9.15,2.34-17.91,5.82-26.04,10.66-7.77,4.62-14.78,10.42-21.73,15.66-8.39,6.32-15.53,13.52-21.62,22.11-1.66,2.34-2.95,4.55-4.07,7.2-.76,1.81-1.47,3.59-2.15,5.43-.95,2.6.34-1.03.46-1.22-4.55,7.07-5.54,15.52-6.5,23.66-1.38,11.74-.94,24.53,3,35.72,9.05,25.7,27.68,46.34,51.19,59.92,44.13,25.49,104.11,25.55,148.38.58,44.71-25.21,75.46-79.71,61.39-131.25Zm-125.05,79.19c-.22.04-.44.07-.65.11-8.71.47-17.05.5-25.75-.04-2.34-.41-4.67-.89-6.98-1.44-4.37-1.04-8.69-2.32-12.91-3.86-.73-.27-1.52-.66-2.3-.92-1.27-.58-2.54-1.17-3.78-1.81-3.93-2.02-7.48-4.53-11.26-6.79-1.81-1.55-3.56-3.16-5.23-4.85-1.25-1.27-2.42-2.6-3.6-3.92-.17-.25-.37-.54-.62-.89-4.45-6.33-8.01-13.11-11.6-19.93-.19-.73-.73-1.93-.82-2.26-.54-1.83-1-3.68-1.38-5.55-.1-.48-.17-2.25-.47-2.71-.17-1.25-.34-2.51-.51-3.76,0-.04-.02-.09-.03-.13.11-1.58.05-4.41.07-4.63.1-1.19.05-2.39.13-3.58.04-.69.13-1.39.17-2.08.01-.04.02-.06.03-.1.59-2.17.94-4.39,1.63-6.54.19-.58,1.32-3.4,1.32-3.52,3.39-7.14,8.56-12.11,14.77-17.34,6.59-5.55,13.49-10.75,20.17-16.22,4.93-4.04,10.59-7.23,16.27-10.26.24,4.96,3.08,9.73,8.47,10.57,3.62.56,6.66,1.48,9.82,2.91,3.13,1.42,6.2,2.6,9.5,3.5.86.24,5.8,1.78,4.75,1.32,8.83,3.46,17.57,8.2,25.78,12.9,8.67,4.97,16.98,10.78,25.29,16.34,1.7,1.14,3.38,2.32,5.08,3.46.09.06.18.12.26.17,0,0,.01.01.02.02,1.24,1.14,2.45,2.3,3.66,3.47.27.51.61,1.08.92,1.55.04.11.08.23.11.34.12.43.22.89.31,1.35.02,3.41.24,6.81.09,10.25-.43,1.83-.79,3.67-1.28,5.49-.51,1.87-1.08,3.73-1.71,5.56-.32.92-.69,1.82-1,2.74-.08.2-.14.37-.2.52-.02.03-.02.05-.04.08-.45.86-.83,1.77-1.26,2.63-.87,1.74-1.8,3.46-2.79,5.15-.98,1.69-2.02,3.35-3.11,4.97-.37.56-.78,1.11-1.16,1.67-2.3,2.64-4.64,5.21-7.18,7.63-1.26,1.19-2.57,2.32-3.87,3.46-.13.09-.25.17-.4.27-1.51,1.04-3.06,2.04-4.63,3-15.69-1.62-31.31-4.05-46.77-7.16-20.72-4.16-66.05-11.61-54.03-43.15,2.99-7.84,8.2-14.87,13.16-21.55,5.03-6.77,10.39-13.31,17.31-18.22,5.79-4.12.32-13.76-5.64-9.65-13.88,9.59-25.07,24.53-32.15,39.76-6.73,14.49-7.21,30.77,4.86,42.54,10.81,10.55,26.18,14.46,40.36,18.13,13.38,3.47,26.89,6.41,40.5,8.83-1.18.32-2.37.62-3.56.9-2.04.48-4.09.91-6.15,1.29Z" style="fill: #050505;"/>
  </g>
</svg>