<?xml version="1.0" encoding="UTF-8"?>
<svg xmlns="http://www.w3.org/2000/svg" viewBox="0 0 800 803.18">
  <g id="BACKGROUND">
    <rect width="800" height="800" style="fill: #fff;"/>
  </g>
  <g id="OBJECTS">
    <g>
      <path d="m465.46,268.77c4.66,1.85,8.09,3.03,11.34,4.58,2.92,1.4,4.21,3.9,3.66,7.11-.18,1.05-.28,2.15-.68,3.12-4.21,10.24-4.82,21.41-8.07,31.9-.5,1.62-.31,3.51-.13,5.25.41,3.91,1.02,7.8,1.53,11.7.94,7.1,1.81,14.2-.89,21.06,5.05,7.1,11.63,10.81,19.73,13.01,14.81,4.03,29.44,8.74,44.14,13.17,2.8.85,5.74,1.4,8.36,2.64,7.55,3.58,14.81,2.73,21.93-.64,7.35-3.49,15.06-4.97,23.25-4.35,1.04.08,2.11-.36,2.98-.52.69-.62,1.36-1,1.71-1.56,1.67-2.64,1.81-6.75,5.44-7.52,5.23-1.11,10.41-3.61,16-1.91,9.8,2.97,19.7,5.69,29.26,9.28,6,2.25,9.7,7.5,12.17,13.24,1.13,2.62,2.25,5.52,2.23,8.26-.05,5.9,3.06,10.12,6.71,14.2,7,7.83,14,15.66,21.14,23.37,3.65,3.95,3.55,8.7,2.8,13.13-.69,4.08-.34,7.48,1.31,11.32,1.68,3.9,3.13,8.34,2.95,12.45-.43,9.95,2.74,19.64,1.45,29.7-1.45,11.26-1.08,22.76-2.05,34.1-.69,8.12-2.47,16.13-3.4,24.23-.61,5.28-.55,10.63-.84,15.95-.33,6.04-.76,12.07-1.07,18.1-.24,4.62-.54,9.24-.52,13.87.04,11.76,1.17,23.61.14,35.25-1.07,12.11.31,24.29-1,36.23-1.83,16.62-1.71,33.34-4.19,49.97-2.39,16.07-7.93,30.97-12.51,46.25-1.5,4.99-4.78,9.51-7.65,13.99-1.07,1.67-3.1,3.01-5,3.81-4.98,2.1-10.24,3.6-15.2,5.75-8.86,3.83-18.43,3.37-27.75,4.46-12.78,1.49-25.37-.93-37.89-3-10.75-1.78-19.22-8.38-27.68-14.74-8.79-6.6-13.77-15.61-17.75-25.41-2.3-5.65-5.1-11.12-7.64-16.68-3.74-8.18-7.42-16.33-10.23-24.91-5.22-15.97-15.52-28.05-30.54-36.65-10.06-5.76-19.88-12-29.25-18.95-6.97-5.17-14.82-9.29-22.59-13.27-11.02-5.66-22.18-11.02-32.37-18.12-5.41-3.77-11.43-6.3-17.82-8.21-17.17-5.13-34.28-10.46-51.31-16.01-7.04-2.29-14.09-3.93-21.45-3.84-10.97.15-21.76-1.64-32.61-2.87-7.97-.9-15.94-1.82-23.92-2.7-1.44-.16-2.92-.24-4.36-.12-13.08,1.06-26.16.03-39.2-.94-15.27-1.14-29.17,2.67-40.95,11.52-11.27,8.46-23.73,14.93-35.54,22.46-2.12,1.35-4.39,2.5-6.44,3.93-12.05,8.39-25.48,10.86-40.21,9.85-9.35-.64-18.08-2.05-25.72-7.74-14.54-4.23-24.6-15.21-36.39-23.56-2.03-1.44-3.71-3.48-5.21-5.49-3.24-4.34-5.71-9.38-9.5-13.17-6.83-6.86-7.2-14.97-5.08-22.9,4.39-16.45,8.9-32.78,16.35-48.4,6.93-14.54,16.32-27.55,23.55-41.82,2.23-4.4,5.65-8.21,8.4-12.37,9.02-13.64,17.27-27.84,27.16-40.85,10.41-13.7,17.53-29.32,27.68-43.14,4.16-5.66,7.07-12.3,10-18.74,5.77-12.69,12.77-24.65,20.68-36.13,2.02-2.93,3.17-6.6,5.65-9.01,9.18-8.87,14.37-21.35,26.33-27.69,1.46-.77,2.51-2.43,3.46-3.87,1.17-1.77,1.9-3.82,3.06-5.6,2.64-4.04,6.17-6.24,11.33-7.19,10.33-1.9,20.49-4.68,30.61-7.45,3.75-1.02,7.41-2.42,9.75-6.18,1.43-2.31,4.07-4.02,6.44-5.6,6.51-4.33,13.53-6.61,21.55-4.04,6.62,2.12,13.19,4.44,19.92,6.11,6.71,1.66,11.8,5.27,16.34,10.2,2.41,2.61,3.78,5.19,3.06,8.67-.35,1.7-.55,3.43-.84,5.26,1.67,1.31,2.99,2.54,4.49,3.5,5.94,3.81,10.75,8.64,14.27,14.68.55.94,1.12,1.86,1.73,2.75,3.73,5.55,8.61,9.06,15.38,11.01,16.86,4.85,33.49,10.49,50.22,15.8,8.6,2.73,17.13,2.96,26.04-.41,1.57-12.84,13.64-17.34,21.86-25.81-1.29-5.67,1.25-11.27.86-17.43-.32-4.96,2.47-10.29,4.74-15.06,1.62-3.41,4.66-6.15,7.33-9.51,4.39.67,8.63,1.31,13.41,2.03,3.48-6.79,5.02-13.97,6.08-21.34.7-4.9,1.76-9.75,2.71-14.61.96-4.88,1.97-9.74,2.96-14.61.71-3.48,1.16-7.04,2.2-10.41,5.86-19.06,11.86-38.09,17.83-57.12.64-2.04,1.05-4.24,2.13-6.03,6.02-10.07,11.47-20.57,18.51-29.9,9.88-13.1,24.5-18.18,40.87-18.77,2.1-.08,4.29.79,6.4,1.39,4.92,1.4,9.75,3.19,14.74,4.31,15.23,3.43,24.5,13.41,31.09,26.5,2.65,5.25,3.58,10.63,3.52,16.56-.14,13.33-2.62,26.06-6.1,38.88-4.66,17.16-7.19,34.86-7.39,52.74-.07,6.36.95,12.8,2.08,19.11.77,4.27,3.11,8.11,7.06,10.54,2.47,1.52,5.06,3.01,7.79,3.92,7.98,2.65,16.09,4.9,24.08,7.51,5.74,1.88,10.95,1.14,15.31-2.71,15.07-13.27,30.45-26.33,38.35-45.44.41-.98.86-1.97,1.42-2.87,7.44-11.91,11.68-25.08,15.65-38.4,4.37-14.67,9.3-29.12,15.34-43.26,5.15-12.07,8.77-24.86,12.3-37.54,4.41-15.85,11.33-30.71,17.33-45.93.78-1.97,1.84-3.89,3.09-5.6,4.42-6.07,9.06-11.99,10.55-19.59.07-.34.3-.64.46-.96,1.47-2.76,4.41-4.21,7.17-3.54,3.14.76,5.75,4.06,4.84,7.41-1.39,5.1-2.58,10.67-5.59,14.83-10.41,14.42-16.09,30.86-21.9,47.27-2.96,8.38-5.37,16.97-8.02,25.48-3.61,11.56-7.31,23.05-12.46,34.08-3.14,6.74-5.05,14.06-7.37,21.17-2.43,7.45-4.7,14.95-7.02,22.43-2.33,7.47-4.46,14.96-9.06,21.56-2.43,3.47-3.69,7.7-5.79,11.42-3.14,5.58-5.81,11.63-10,16.35-8.99,10.14-18.76,19.63-28.36,29.23-1.99,1.99-4.59,3.46-7.04,4.95-6.17,3.71-12.88,4.81-19.93,2.67-9.8-2.97-19.65-5.82-29.25-9.35-13.59-5.02-20.56-14.63-22.39-29.08-2.38-18.78.11-36.88,2.96-55.22,1.49-9.58,3.86-18.79,6.69-27.97,2.87-9.33,2.71-19.04,2.64-28.62-.03-3.66-2-7.67-4.06-10.94-4.66-7.38-10.32-13.9-19.49-16.28-3.18-.83-6.46-1.61-9.37-3.06-15.36-7.69-37.95,1.65-46.54,17.3-3.76,6.86-7.94,13.49-11.78,20.31-1.21,2.15-2.12,4.51-2.86,6.87-5.87,18.69-11.71,37.39-17.46,56.12-.83,2.7-1.15,5.56-1.71,8.34-1.25,6.27-2.5,12.54-3.77,18.81-.14.69-.49,1.35-.6,2.05-.87,5.62-1.43,11.3-2.63,16.84-1.12,5.16-2.92,10.17-4.67,16.1Zm137.74,522.01c3.34-.03,6.99.13,10.59-.13,10.86-.81,21.53-1.86,31.67-6.54,6.76-3.13,11.18-7.39,13.32-14.21,2.45-7.81,4.61-15.73,7.42-23.41,3.71-10.13,4.3-20.86,5.91-31.33,1.83-11.91,2.38-24.09,2.64-36.18.29-13.51-.14-27.02.81-40.54,1.32-18.77-1.79-37.77,1.67-56.49.25-1.37.09-2.86-.05-4.28-1.25-11.86.87-23.49,2.76-35,3.88-23.66,4.15-47.43,3.4-71.33-.21-6.65-1.91-12.59-5.89-18.53-1.61-.67-3.66-2.23-5.63-2.18-9.15.22-16.02-4.12-22.33-9.96-1.05-.97-2.46-1.55-3.64-2.39-9.83-7-21.2-11.27-31.48-17.42-14.77-8.84-30.22-15.99-46.94-20.28-11.26-2.88-22.57-5.56-33.89-8.33-7.55,7.5-21.58,17.42-30.61,21.34-10.59,4.59-21.73,8.11-30.67,15.73-.53.45-1.27.67-1.93.96-11.26,4.87-22.17,10.54-34.19,13.64-11.59,2.99-23.03,2.37-34.2-2.19-4.03-1.65-7.89-3.72-11.4-5.39-4.28-5.86-8.54-11.25-12.3-16.96-5.17-7.84-11.25-15.44-14.58-24-4.38-11.24-11.07-20.97-17.06-31.23-6.17-10.56-10.55-21.85-12.37-34-10.1-3.94-20.17-8.08-30.39-11.82-16.86-6.17-34.22-10.05-52.21-10.71-3.27-.12-6.6-.23-9.78-.94-12.95-2.87-25.97-3.22-39.08-2.26-3.7.27-7.24-.41-10.53-2.32-2.19-1.27-4.45-2.62-6.86-3.29-1.98-.55-4.66-.89-6.27-.02-4.02,2.2-8.02,4.27-11.16,8.11-7.72,9.43-14.06,19.7-20.75,29.79-7.3,11.01-13.83,22.31-19.53,34.24-4.09,8.57-7.7,17.53-13.86,25.11-4.5,5.53-8.32,11.53-11.15,18.16-1.52,3.55-3.99,6.74-6.23,9.95-6.11,8.76-12.52,17.33-18.46,26.21-5.52,8.26-10.44,16.89-16.13,25.08-7.5,10.8-14.27,22.11-20.92,33.46-5.2,8.88-10.56,17.83-14.35,27.34-4.6,11.54-7.92,23.63-11.17,35.65-1.38,5.1-1.07,10.56,2.82,15.24,2.07,2.49,3.53,5.46,5.41,8.11,7.26,10.24,18.08,16.44,26.7,23.04,4.63.12,7.87.22,11.1.28,5.8.11,11.62.44,17.4.24,6.73-.24,12.47-2.86,17.95-6.77,9.34-6.65,18.71-13.34,29.22-18.28,2.59-1.22,4.97-2.89,7.4-4.42,7.56-4.79,14.31-10.77,22.65-14.46,1.58-.7,3.01-2.03,4.12-3.37,4.88-5.84,11.03-10.05,17.52-14.03,12.05-7.4,24.51-13.66,39.1-14.44,14.18-.76,28.3-.82,42.14,3.76,14.57,4.83,29.26,9.28,43.94,13.77,3.82,1.17,7.75,2.31,11.7,2.71,5.16.52,9.92,2.06,14.79,3.69,14.9,4.97,29.74,10.41,45,13.95,9.93,2.3,19.89,4.41,29.69,7.25,5.96,1.73,11.74,3.51,16.53,7.93,2.24,2.07,5.77,2.97,8.86,3.96,12.18,3.92,24.29,8.14,36.66,11.34,14.11,3.65,26.35,10.64,37.84,19.03,5.81,4.25,11.85,8.53,15.84,14.76,2.72,4.26,5.78,8.38,7.96,12.89,3.59,7.42,7.54,14.87,9.55,22.73,1.86,7.28,4.35,14.19,6.79,21.26,5.74,16.7,14.83,31.98,20.76,48.54,1.33,3.72,2.55,7.5,4.32,11.03,1.74,3.49,3.6,7.18,6.3,9.93,5.07,5.16,10.74,9.73,17.46,12.93,3.23,1.54,6.14,3.74,10.29,6.34ZM71.6,627.77c5.68,5.69,12.9,4.8,19.39,4.45,8.74-.47,18.58.49,24.84-7.93.56-.76,1.86-.99,2.82-1.44,13.7-6.45,26.81-13.78,38.95-22.79,16.15-11.97,34.19-17.85,54.99-15.37,9.35,1.12,18.88.65,28.32.88,5.81.15,11.62.26,17.43.4,18.25.45,35.88,5.99,54.07,7.01,2.49.14,4.97,1.14,7.41,1.88,5.24,1.6,10.49,3.21,15.68,4.97,6.94,2.35,14,3.8,21.28,4.89,27.11,4.07,52.09,13.57,74.04,30.28,2.28,1.74,5,2.91,7.5,4.37,7.85,4.59,15.81,9.01,23.51,13.84,9.54,5.98,18.84,12.33,28.27,18.47,7.94,5.16,16.05,10.22,21.58,18.03,6.28,8.88,11.65,18.26,14.5,28.82.93,3.43,2.28,6.8,3.77,10.05,2.67,5.89,5.73,11.6,8.37,17.5,2.75,6.13,7.83,11.22,8.6,18.27.14,1.29,1.15,2.69,2.12,3.71,7.75,8.25,16.5,15.2,27.14,19.56,1.01.41,2.8,1.46,3.41-1.33-.88-.8-1.85-1.8-2.96-2.64-8.34-6.32-14.5-13.96-17.43-24.15-1.87-6.5-4.26-13.09-7.73-18.9-8.18-13.72-11.69-29.32-19.48-43.15-.85-1.52-1.18-3.41-1.39-5.15-.89-7.14-3.06-13.86-5.92-20.52-5.17-12-11.44-23.23-22.02-31.5-10.32-8.07-21.08-15.44-33.97-19.26-15.06-4.46-30.05-9.19-44.98-14.08-4.82-1.58-9.54-3.69-13.97-6.14-8.43-4.68-17.57-7.66-26.84-9.03-6.93-1.03-13.48-2.88-20.14-4.69-4.57-1.24-9.15-2.47-13.76-3.54-4.59-1.07-9.37-1.55-13.83-2.99-10.41-3.38-20.6-7.42-31.02-10.79-16.68-5.4-33.47-10.5-50.22-15.69-2.44-.75-4.9-1.71-7.4-1.93-18.59-1.62-37.05-2.45-54.12,6.86-8.53,4.66-16.94,9.31-23.78,16.31-2.72,2.78-5.81,5.25-8.98,7.55-2.87,2.08-6.11,3.66-9.11,5.56-6.37,4.04-12.63,8.25-19.06,12.2-9.17,5.64-18.96,10.48-27.56,16.85-8.51,6.29-17.67,9.4-28.13,9.85-1.4.06-2.8.29-4.2.43Zm271.92-295.2c4.91,11.46,7.7,21.06,13.58,29.47,6.2,8.89,12.42,17.82,15.46,28.37.29,1.01.95,1.93,1.49,2.86,6.35,10.92,13.21,21.52,21.06,31.48,8.35,10.62,21.12,14.65,34.02,10.68,5.19-1.59,10.43-3.13,15.4-5.24,8.28-3.53,16.44-7.36,24.5-11.36,5.79-2.87,11.05-6.88,17.04-9.21,11.52-4.47,22.48-9.75,32.53-16.8,1.39-.97,3.35-1.58,2.94-4.59-1.6-.67-3.47-1.6-5.43-2.25-6.25-2.05-12.47-4.22-18.81-5.95-13.39-3.65-24.71-10.46-33.55-20.63-10.12.02-18.69-4.69-27.89-6.75-9.44-2.12-17.35-7.28-25.23-11.91-1.88.34-3.35.47-4.72.89-11.85,3.69-23.56,3.32-35.28-1.13-4.43-1.68-9.05-2.89-13.6-4.23-3.75-1.1-7.54-2.08-13.53-3.72Zm329.29,106.95c-5.06-8.64-11.18-16.08-18.03-23.01-7.73-7.84-16.31-14.22-27.08-17.43-8.04-2.4-16.08-4.81-24.02-7.52-8.19-2.8-16.44-2.31-24.73-1.36-1.33.15-2.93.61-2.69,3.29,3.39,1.16,7.08,2.4,10.76,3.67,3.1,1.07,6.46,1.72,9.23,3.35,8.74,5.12,18.36,8.61,26.73,14.39,1.78,1.23,3.78,2.26,5.8,3.05,9.96,3.88,18.8,9.77,27.1,16.14,5.17,3.97,10.6,4.98,16.92,5.43Zm-374.47-132.88c.37-.59.74-1.17,1.11-1.76-.61-.88-1.05-1.93-1.84-2.62-6.33-5.48-12.86-10.58-21.23-12.87-6.35-1.74-12.71-3.53-18.83-5.93-9.08-3.56-18.45-4.83-27.91-3.82-7.88.84-15.7,2.65-23.37,4.64-4.68,1.2-9.74,2-14.18,5.09,7.7,4.96,9.29,5.2,15.01,5.3,9.46.15,19.11-.34,28.33,1.38,12.21,2.27,24.8.88,36.73,4.86,6.04-.8,11.47,1.69,17.07,3.29,3.02.86,6.07,1.63,9.11,2.44Zm120.39,24.09c10.16,10.04,23.59,11.55,35.79,15.72,2.18.75,4.75.35,8.06.53-.38-9.64-1.6-18.32-2.5-27.27-8.61-2.92-16.6-6.17-25.3-7.22-4.59,6.93-13.39,9.91-16.05,18.24Zm184.64,47.35c15.14,7.23,30.72,8.89,44.02,16.39.37.2,1.18-.37,1.79-.58.09-.66.5-1.49.23-1.96-2.74-4.83-6.54-8.47-12.07-10.15-6.62-2.02-13.22-4.07-19.81-6.17-4.43-1.41-8.52-.92-14.16,2.48Zm-319.15-99.79c-2.24-5.57-5.26-8.37-9.71-9.75-6.97-2.16-13.92-4.36-20.88-6.52-5.18-1.6-10.05-.44-14.71,1.66-.75.34-1.03,1.63-1.71,2.79,5.3,1.09,10.3,1.91,15.18,3.18,5.29,1.38,10.43,3.3,15.69,4.78,4.8,1.35,9.41,3.64,16.15,3.85Zm157.35,5.97c9.14,4.04,21.35,6.03,24.67,3.83.43-1.72.99-3.94,1.72-6.83-6.18-2.08-11.64-4-17.15-5.74-2-.63-4.12-.82-6.91-1.35-.82,3.54-1.51,6.52-2.33,10.09Zm23.2,19.05c-7.4-4.88-16.53-2.02-25.23-5.75.87,2.11,1.04,3.63,1.66,3.85,6.44,2.23,12.9,4.48,19.48,6.19,2.08.54,4.05-1.05,4.08-4.29Z" style="fill-rule: evenodd;"/>
      <path d="m310.88,441.06c5.93,1.85,11.83,3.76,17.79,5.53,3.65,1.09,6.46,3.18,8.82,6.09,12.81,15.74,15.93,33.31,11.19,52.37-.35,1.38-1,2.69-1.23,4.09-2.51,15.55-14.55,23.16-26.81,30.12-11.51,6.54-24.21,6.71-37.02,3.08-4.22-1.19-8.31-2.86-12.57-3.84-12.62-2.93-20.76-11.62-28.35-20.99-1.33-1.64-2.3-3.73-2.87-5.76-3.21-11.56-3.94-23.19-.84-34.82.82-3.09,1.9-6.12,2.79-9.19,4.09-14.01,13.93-22.77,27.1-28.46,1.66-.71,3.39-1.26,5.12-1.79q12.38-3.78,25.27.34c3.82,1.22,7.66,2.39,11.49,3.59l.11-.35Zm-8.92,12.08c3.15.55,6.32.96,9.43,1.69,4.37,1.03,6.93,3.9,7.55,8.23.41,2.8.64,5.64.74,8.46.15,4.17.12,8.35.16,12.53,2.13.85,3.8,1.56,5.49,2.19,1.7.64,3.49,1.11,5.14,1.86,3.71,1.68,4.98,5.28,3.17,8.9-.47.95-1.15,1.79-1.74,2.68-3.97,6.01-9.81,9.43-16.88,10.5-6.02.91-9.67,4.51-12.46,9.14-1.44,2.39-2.24,5.24-2.85,8-.59,2.65-4.45,3.5-3.9,6.76,7.09,1.59,13.48.06,19.21-3.06,7.25-3.94,14.32-8.32,19.43-14.99.43-.56.86-1.16,1.11-1.81,3.54-9.33,6.92-18.72,5.15-29.01-.84-4.92-1.62-9.9-3.12-14.66-1.86-5.88-5.27-11.75-10.56-14.55-6.62-3.5-14.36-5.06-21.74-6.95-2.58-.66-3.63,1.62-3.33,4.11-1.18-.8-2.28-1.75-3.55-2.37-1.62-.79-3.36-1.27-4.66.59-4.84-3.67-10.4-5.95-16.3-4.64-11.67,2.6-20.06,9.85-24.96,20.28-3.78,8.07-5.78,16.91-5.56,25.9.17,7.05.66,14.41,5.14,20.43,2.77,3.73,6.31,7.02,9.92,10.04,5.49,4.58,11.78,6.45,20.72,6.73-2.42-3.78-4.49-7.17-4.3-11.73.23-5.23-3.44-9.42-7.41-12.66-3.88-3.16-8.06-5.85-13.13-7.45-6.55-2.07-8.7-7.15-6.88-13.57.67-2.36,1.73-4.62,2.5-6.61,11.58-6.02,13.4-6.42,24.09-5.47,6.53-3.59,11.2-8.55,12.98-15.96.48-1.98,2.04-3.69,3.1-5.52,2.77.66,5.54,1.33,8.31,1.99Zm20.61,42.2c-13.14-6.57-13.72-7.6-12.54-21.78.06-.7.52-1.39.47-2.06-.23-2.73-.59-5.46-.87-7.84-8.41-2.69-9.83-2.29-13.24,3.36-.36.6-.46,1.36-.85,1.94-5.32,7.96-11.56,14.19-22.62,13.32-3.47-.27-7.11.93-10.53,1.9-1.05.3-2.22,2.03-2.27,3.16-.04,1.06,1.12,2.47,2.14,3.22,1.11.82,2.7,1.01,4.03,1.58,10.48,4.52,18.35,11.35,21.02,22.77.32,1.39.52,2.86,1.15,4.11.53,1.06,1.62,1.86,2.46,2.78.79-.71,1.11-.89,1.26-1.16.36-.6.71-1.22.95-1.89,3.56-10.06,9.99-16.85,21.4-18.11,1.77-.19,3.72-.52,5.15-1.43,1.26-.8,1.91-2.5,2.88-3.88Z" style="fill-rule: evenodd;"/>
      <path d="m490.11,497.35c5.93,1.85,11.83,3.78,17.78,5.52,3.64,1.06,6.64,2.84,8.91,5.91,2.79,3.78,6.13,7.23,8.55,11.21,7.21,11.87,10.26,24.51,5.8,37.91-2.01,6.05-4.73,11.86-7.15,17.77-3.35,8.21-10.29,13.54-16.35,19.56-.99.99-2.3,1.85-3.62,2.3-11.43,3.87-22.97,6.86-35.15,2.66-9.28-3.2-19.03-5.02-27.38-10.8-4.57-3.16-8.78-6.48-11.94-10.97-6.81-9.64-10.75-20.33-12.16-31.88-.17-1.4-.3-2.91.03-4.24,3.03-12.12,6.25-24.2,15.58-33.42,3.82-3.77,7.4-8.02,11.9-10.81,9.24-5.75,19.02-10.36,30.68-5.68,4.73,1.89,9.74,3.11,14.63,4.63l-.1.33Zm-61.98,48.06c5.59-8.76,6.25-8.64,15.68-11.29,8.41-2.36,14.31.68,19.05,6.81,4.51,5.84,4.05,11.95-.48,17.68-.88,1.11-1.68,2.3.12,3.9,3.9-.44,8.1-.93,12.85-1.47.64-8.11,6.89-10.78,13.76-12.71,1.73-.49,3.77-.26,5.31-1.02,7.02-3.5,11.88.25,16.27,4.86,1.94,2.03,3.13,4.77,4.51,7.26.8,1.43.28,3.64,2.9,4.15,6.65-12.11,6.46-24.39.37-36.71-3.77-7.64-8.97-13.91-18.07-15.98-2.81-.64-5.72-1.57-8.16-3.05-6.7-4.06-14.38-5.17-21.58-7.71-2.92-1.03-5.63-.24-8.52.37-8.28,1.76-13.95,7.14-19.68,12.56-9.29,8.77-13.34,19.84-14.33,32.36Zm43.68,44.19c.12.31.16.73.38.89.56.42,1.17.91,1.83,1.06,8.49,2.01,16.56.1,24.46-2.52,3.67-1.22,4.3-2.42,6.91-8.53-4.05,0-8.04.55-11.81-.13-3.78-.68-7.35-2.59-11.01-3.96q-4.96,9.43-10.76,13.19Zm-38.92-28.47c.98,14.32,11.04,25.74,24.34,26.33-9.33-6.08-5.62-13.81-5.15-20.34-6.87-2.14-13.06-4.08-19.2-5.99Zm52.13-1.2c-.42,4.99,1.89,7.99,5.38,10.36,3.28,2.23,6.94,1.87,10.52,1.34,4.65-.69,6.66-2.95,6.49-6.88-.25-5.58-2.51-8.48-6.99-9.27-5.74-1.01-10.75.21-15.4,4.45Zm-39.71-3.1c.72.16,2.14.73,3.55.73,4.19.01,6.38-2.99,8.26-5.98,1.45-2.33.57-4.81-.94-6.98-3.57-5.11-9.51-5.65-15.25-1.44-5.01,3.68-4.17,10.15,1.66,12.67.66.29,1.36.5,2.73,1Zm25.75,23.13c2.14-2.97,2.91-5.64,1.92-8.44-.42-1.19-1.54-2.59-2.68-3.03-4.5-1.73-9.46.89-10.89,5.47-.97,3.12.53,5.9,3.74,6.19,2.75.25,5.55-.11,7.9-.19Z" style="fill-rule: evenodd;"/>
      <path d="m539.18,491.42c3.55-18.35,17.01-29.19,31.6-38.7,7.74-5.04,16.77-6.3,26.18-3.02,6.89,2.41,13.97,4.32,21.01,6.29,4.39,1.22,7.93,3.3,10.58,7.14,2.03,2.96,4.4,5.89,7.21,8.11,5.93,4.7,7.97,11.97,12.83,17.33.46.5.73,1.28.83,1.97,1.79,11.7,3.63,23.39-2.77,34.36-2.52,4.3-4.49,8.94-7.22,13.1-8.54,13-19.32,22.92-36.34,23.81-4,.21-7.98,1.17-11.95.98-4.67-.22-9.76-.35-13.86-2.24-7.9-3.63-16-7.58-22.63-13.02-13.76-11.3-19.55-26.63-19.11-43.89.1-4.12,2.37-8.15,3.64-12.22Zm90.34-11.64l.27.5c-4.76-9.83-12.06-16.74-23.07-19.51-3.54-.89-7.07-1.9-10.49-3.16-8.81-3.26-16.64-1.13-23.55,4.13-5.4,4.12-10.82,8.48-15.17,13.59-9.65,11.37-13.75,24.68-11.51,39.7,1.04,6.98,4.83,12.82,8.61,18.46,7.02,10.45,18.86,14.28,29.72,19.34,9.91.42,19.68-.29,29.04-3.52,1.98-.69,3.65-2.22,5.39-3.48,10.04-7.2,15.38-17.74,19.87-28.57,4.26-10.29,4.17-20.72-3.05-30.36-1.07-1.43-1.47-3.33-2.57-4.72-.83-1.05-2.29-1.63-3.46-2.41Z" style="fill-rule: evenodd;"/>
      <path d="m239.44,338.17c2.79.87,5.54,1.9,8.38,2.59,11.36,2.76,18.53,10.23,22.31,20.48,2.84,7.69,4.51,15.85,6.09,23.9,1.17,6,.62,12.08-1.51,17.91-.97,2.67-1.81,5.41-2.52,8.16-3.33,12.88-11.76,21.39-23.33,27.82-10.89,6.05-22.11,8.52-34.54,6.02-2.12-.42-4.39-.05-6.54-.42-3.22-.56-6.62-.94-9.53-2.28-12.21-5.65-22.2-14.18-29.07-25.47-4.11-6.76-5.39-14.93-5.3-22.79.11-9.59,1.22-19.11,3.93-28.42,2.53-8.67,9.51-14,14.7-20.69,6.32-2.51,12.6-5.15,19.01-7.46,2.69-.97,5.86-.78,8.46-1.89,8.65-3.72,16.96-2.66,25.28,1.22,1.31.61,2.78.9,4.17,1.33h0Zm-29.09,8.02c-8.32-1.4-14.24,4.47-21.42,6.51-6.12,6.54-12.33,13.05-13.35,22.52-.62,5.66-1.63,11.33-1.55,17,.12,8.21.73,16.82,6.45,23.34,5.2,5.94,11.59,10.94,17.8,15.94,2.14,1.72,5.24,2.66,8.04,3.12,5.02.84,10.14,1.11,15.23,1.48,12.92.97,23.57-4.17,32.34-12.56,10.41-9.94,14.09-23.06,13.24-36.98-.46-7.71-2.89-15.48-5.38-22.93-2.48-7.42-7.51-13.05-15.7-15.3-5.99-1.64-11.93-3.44-17.86-5.28-6.76-2.1-12.73-.65-18.21,3.32l.38-.19Z" style="fill-rule: evenodd;"/>
      <path d="m549.91,635.25c.79-2.14,1.24-3.89,2.04-5.45,2.65-5.22,6.16-10.53,12.54-10.28,6.75.26,13.84,1.91,17.35,9.16.62,1.29,1.4,2.51,2.07,3.77,5.04,9.48,4.67,12.94-3.97,18.92-11.12,7.69-20.37,5.81-28.87-3.5-1.5-1.65-1.95-4.53-2.15-6.89-.17-2.04.7-4.15,1.01-5.74Zm7.4,6.7c3.49,3.4,6.13,6.13,10.84,5.35,4.67-.77,7.75-3.1,10.02-7.48-1.61-3.06-3.02-6.31-4.92-9.28-2.97-4.64-8.14-4.78-11.56-.64-2.82,3.41-3.69,7.42-4.38,12.05Z" style="fill-rule: evenodd;"/>
      <path d="m182.93,518.78c-1.12,2.82-1.51,5.08-2.77,6.69-1.47,1.87-3.44,3.79-5.63,4.59-9.65,3.53-21.18-1.48-25.29-10.95-1.26-2.91-1.88-6.14-2.33-9.28-.42-2.96.65-5.97,3.18-7.47,4.58-2.72,9.29-5.84,14.4-6.97,10.64-2.37,19.51,5.23,19.53,15.92,0,2.79-.8,5.56-1.09,7.47Zm-10.48,2.59c1.82-3.55,3.4-7.39,3.2-11.74-.24-5.32-4.83-8.49-9.68-6.4-3.5,1.51-7.29,2.83-9.78,5.62,1.79,12.2,4.53,14.32,16.26,12.52Z" style="fill-rule: evenodd;"/>
      <path d="m439.04,404.72c.85-4.53,3.66-8.05,8.31-9.92,4.29-1.73,8.67-3.38,13.15-4.59,4.51-1.21,9.15-2.12,13.8-2.67,6.28-.74,10.31,4.47,8.17,10.34-.59,1.62-1.34,3.55-2.66,4.49-7.47,5.34-14.12,11.97-23.86,13.82-4.86.92-9.34.5-13.81-1.36-3.66-1.52-4.74-3.75-3.84-7.72.16-.69.42-1.36.74-2.38Zm33.38-7.36c-9.38.67-19.51-.36-25.75,9.28,1.39.86,2.28,1.85,3.16,1.86,2.13.03,4.28-.33,6.39-.66,6.86-1.1,10.62-7.01,16.2-10.47Z" style="fill-rule: evenodd;"/>
      <path d="m404.76,393.81c-2.05,6.57-4.59,7.82-10.71,6.09-8.52-2.4-12.92-8.94-16.56-16.01-1.95-3.78-2.99-7.99-4.46-12-1.16-3.15-1.1-6.25.11-9.34,1.89-4.84,7.75-6.98,11.34-3.31,6.74,6.9,14.8,12.72,19.04,21.83,2.1,4.51,2.67,8.78,1.23,12.73Zm-23.98-25.94c1.67,5.44,2.59,8.48,3.53,11.52,1.41,4.59,4.46,8.11,8.19,11.01.92.72,2.99.96,3.92.43.79-.46,1.24-2.51.9-3.59-2.42-7.77-8.05-13.06-16.55-19.37Z" style="fill-rule: evenodd;"/>
      <path d="m430.01,368.14c3.43,1.87,7.07,3.45,10.24,5.68,3.38,2.37,3.65,5.91,2.34,9.58-1.35,3.8-4.34,5.89-8.19,5.66-6.45-.4-13.02-.51-19.16-3.17-6.16-2.66-8.07-8.46-4.49-13.93,3.48-5.33,7.16-6.64,13.77-4.86,1.75.47,3.46,1.07,5.19,1.61.1-.19.21-.38.31-.57Zm4.01,11.07c-4.12-3.21-8.52-4.08-13-4.53-.69-.07-1.96,1-2.09,1.7-.13.68.71,1.96,1.44,2.3,4.23,1.94,8.56,3.14,13.65.53Z" style="fill-rule: evenodd;"/>
      <path d="m478.97,542.61c-14.93-4.74-16.39-7.55-11.85-21.27.44-1.34.94-2.66,1.34-4.01,1.29-4.4,4.27-6.3,8.92-5.74.36.04.72.09,1.08.1,14.11.05,18.98,3.52,22.98,16.34,2.18,6.99-.77,12.48-7.62,15.16-5.48,2.14-10.6,1.12-14.85-.58Zm14.44-9.43c-1.09-3.49-1.65-6.67-3.06-9.45-2.08-4.09-6-6.36-10.53-6.13-4.18.21-3.98,4.43-4.86,7.27-.67,2.18-.58,4.6-.81,6.73q11.6,4.34,19.26,1.58Z" style="fill-rule: evenodd;"/>
      <path d="m629.52,479.78c-.39,3.8,1.57,6.91,3.63,9.8,2.08,2.91,2.67,5.87,1.65,9.1-3.17,10.14-5.6,20.43-11.53,29.68-5.66,8.83-13.76,13.13-23.43,15.55-1.94.48-4.34-.09-6.38-.68-4.91-1.41-9.72-3.19-14.6-4.7-13.98-4.33-20.25-14.63-22.31-27.86-1.49-9.56,1.83-18.26,5.91-26.68,2.16-4.46,4.56-8.82,6.38-13.41,1.32-3.32,3.42-5.38,6.88-6,8.97-1.61,17.3.27,24.94,5.22.32.21.07,1.27.09,2.39-6.77,1.01-13.34-4.23-20.84-.96-2.77,4.1-5.91,8.8-9.11,13.46-5.75,8.37-6.99,17.9-6.01,27.59.89,8.76,6.14,15.2,14.55,18.73,3.35,1.41,6.94,2.29,10.46,3.25,10.09,2.76,19.86-.83,25.45-9.29,3.55-5.36,6.54-10.96,8.1-17.26.94-3.79,2.29-7.48,3.36-10.93q-5.62-14.38-16.75-24.52c.13-1.9,1.47-2.51,2.89-1.73,5.71,3.13,11.3,6.48,16.94,9.74l-.27-.5Z" style="fill-rule: evenodd;"/>
      <path d="m209.98,346.38c3.88.71,7.78,1.34,11.63,2.19,1.55.35,3.01,1.16,5.45,2.15-3.79,3.49-7.76,1.8-10.95,2.85-3.07,1.01-6.4,1.48-9.23,2.91-3.16,1.59-5.87,4.01-9.1,6.29-2.68,9.19-6.73,18.32-6.5,28.62.15,6.7,1.53,12.94,6.42,17.66,8.7,8.38,30.55,15.04,41.44,2.75,6.17-6.97,11.02-14.89,11.37-24.68.19-5.32.55-10.64.76-15.96.09-2.27-.75-4.28-2.81-5.48-2.82-1.64-5.75-3.08-8.64-4.59-2.13-1.12-4.27-2.22-6.47-3.36.74-1.11,1.11-2.16,1.47-2.15,7.88.26,14.87,2.86,21.05,7.83,4.11,3.32,5.89,6.83,3.99,12.14-1.29,3.6-1.28,7.66-1.8,11.52-1.3,9.61-3.58,18.77-9.92,26.61-8.33,10.3-24.52,15.41-35.03,10.74-2.98-1.32-6.27-1.95-9.43-2.88-9.97-2.95-10.16-2.84-16.07-11.67-3.43-5.13-4.74-10.96-4.85-17.19-.2-11.35,3.56-21.68,7.19-32.09,1.23-3.52,3.23-5.95,7.04-7.43,4.65-1.8,8.89-4.6,13.33-6.97.02,0-.36.18-.36.18Z" style="fill-rule: evenodd;"/>
    </g>
  </g>
</svg>